  0
SECTION
  2
HEADER
  9
$ACADVER
  1
AC1014
  9
$HANDSEED
  5
FFFF
  9
$MEASUREMENT
 70
     1
  0
ENDSEC
  0
SECTION
  2
TABLES
  0
TABLE
  2
VPORT
  5
8
330
0
100
AcDbSymbolTable
 70
     4
  0
VPORT
  5
2E
330
8
100
AcDbSymbolTableRecord
100
AcDbViewportTableRecord
  2
*ACTIVE
 70
     0
 10
0.0
 20
0.0
 11
1.0
 21
1.0
 12
210.0
 22
148.5
 13
0.0
 23
0.0
 14
10.0
 24
10.0
 15
10.0
 25
10.0
 16
0.0
 26
0.0
 36
1.0
 17
0.0
 27
0.0
 37
0.0
 40
341.0
 41
1.24
 42
50.0
 43
0.0
 44
0.0
 50
0.0
 51
0.0
 71
     0
 72
   100
 73
     1
 74
     3
 75
     0
 76
     0
 77
     0
 78
     0
  0
ENDTAB
  0
TABLE
  2
LTYPE
  5
5
330
0
100
AcDbSymbolTable
 70
     1
  0
LTYPE
  5
14
330
5
100
AcDbSymbolTableRecord
100
AcDbLinetypeTableRecord
  2
BYBLOCK
 70
     0
  3

 72
    65
 73
     0
 40
0.0
  0
LTYPE
  5
15
330
5
100
AcDbSymbolTableRecord
100
AcDbLinetypeTableRecord
  2
BYLAYER
 70
     0
  3

 72
    65
 73
     0
 40
0.0
  0
LTYPE
  5
16
330
5
100
AcDbSymbolTableRecord
100
AcDbLinetypeTableRecord
  2
CONTINUOUS
 70
     0
  3
Solid line
 72
    65
 73
     0
 40
0.0
  0
ENDTAB
  0
TABLE
  2
LAYER
  5
2
100
AcDbSymbolTable
 70
2
  0
LAYER
  5
50
100
AcDbSymbolTableRecord
100
AcDbLayerTableRecord
  2
0
 70
0
  6
CONTINUOUS
  0
LAYER
  5
51
100
AcDbSymbolTableRecord
100
AcDbLayerTableRecord
  2
printingsheet2
 70
0
  6
CONTINUOUS
  0
ENDTAB
  0
TABLE
  2
STYLE
  5
3
330
0
100
AcDbSymbolTable
 70
     1
  0
STYLE
  5
11
330
3
100
AcDbSymbolTableRecord
100
AcDbTextStyleTableRecord
  2
STANDARD
 70
     0
 40
0.0
 41
1.0
 50
0.0
 71
     0
 42
2.5
  3
txt
  4

  0
ENDTAB
  0
TABLE
  2
VIEW
  5
6
330
0
100
AcDbSymbolTable
 70
     0
  0
ENDTAB
  0
TABLE
  2
UCS
  5
7
330
0
100
AcDbSymbolTable
 70
     0
  0
ENDTAB
  0
TABLE
  2
APPID
  5
9
330
0
100
AcDbSymbolTable
 70
     2
  0
APPID
  5
12
330
9
100
AcDbSymbolTableRecord
100
AcDbRegAppTableRecord
  2
ACAD
 70
     0
  0
ENDTAB
  0
TABLE
  2
DIMSTYLE
  5
A
330
0
100
AcDbSymbolTable
 70
     1
  0
DIMSTYLE
105
27
330
A
100
AcDbSymbolTableRecord
100
AcDbDimStyleTableRecord
  2
ISO-25
 70
     0
  3

  4

  5

  6

  7

 40
1.0
 41
2.5
 42
0.625
 43
3.75
 44
1.25
 45
0.0
 46
0.0
 47
0.0
 48
0.0
140
2.5
141
2.5
142
0.0
143
0.03937007874016
144
1.0
145
0.0
146
1.0
147
0.625
 71
     0
 72
     0
 73
     0
 74
     0
 75
     0
 76
     0
 77
     1
 78
     8
170
     0
171
     3
172
     1
173
     0
174
     0
175
     0
176
     0
177
     0
178
     0
270
     2
271
     2
272
     2
273
     2
274
     3
340
11
275
     0
280
     0
281
     0
282
     0
283
     0
284
     8
285
     0
286
     0
287
     3
288
     0
  0
ENDTAB
  0
TABLE
  2
BLOCK_RECORD
  5
1
330
0
100
AcDbSymbolTable
 70
     1
  0
BLOCK_RECORD
  5
1F
330
1
100
AcDbSymbolTableRecord
100
AcDbBlockTableRecord
  2
*MODEL_SPACE
  0
BLOCK_RECORD
  5
1B
330
1
100
AcDbSymbolTableRecord
100
AcDbBlockTableRecord
  2
*PAPER_SPACE
  0
ENDTAB
  0
ENDSEC
  0
SECTION
  2
BLOCKS
  0
BLOCK
  5
20
330
1F
100
AcDbEntity
  8
0
100
AcDbBlockBegin
  2
*MODEL_SPACE
 70
     0
 10
0.0
 20
0.0
 30
0.0
  3
*MODEL_SPACE
  1

  0
ENDBLK
  5
21
330
1F
100
AcDbEntity
  8
0
100
AcDbBlockEnd
  0
BLOCK
  5
1C
330
1B
100
AcDbEntity
 67
     1
  8
0
100
AcDbBlockBegin
  2
*PAPER_SPACE
  1

  0
ENDBLK
  5
1D
330
1B
100
AcDbEntity
 67
     1
  8
0
100
AcDbBlockEnd
  0
ENDSEC
  0
SECTION
  2
ENTITIES
  0
SPLINE
  5
100
100
AcDbEntity
  8
printingsheet2
 62
1
100
AcDbSpline
 70
8
 71
3
 72
8
 73
4
 74
0
 40
0
 40
0
 40
0
 40
0
 40
1
 40
1
 40
1
 40
1
 10
1519.505862
 20
1204.043870
 30
0.0
 10
1432.576864
 20
1234.785869
 30
0.0
 10
1309.035867
 20
1242.434869
 30
0.0
 10
1173.472871
 20
1238.143869
 30
0.0
  0
SPLINE
  5
101
100
AcDbEntity
  8
printingsheet2
 62
1
100
AcDbSpline
 70
8
 71
3
 72
8
 73
4
 74
0
 40
0
 40
0
 40
0
 40
0
 40
1
 40
1
 40
1
 40
1
 10
1173.472871
 20
1238.143869
 30
0.0
 10
1069.602873
 20
1235.562869
 30
0.0
 10
970.174876
 20
1229.006869
 30
0.0
 10
888.433878
 20
1228.922869
 30
0.0
  0
SPLINE
  5
102
100
AcDbEntity
  8
printingsheet2
 62
1
100
AcDbSpline
 70
8
 71
3
 72
8
 73
4
 74
0
 40
0
 40
0
 40
0
 40
0
 40
1
 40
1
 40
1
 40
1
 10
888.433878
 20
1228.922869
 30
0.0
 10
806.312880
 20
1228.113869
 30
0.0
 10
741.879881
 20
1233.775869
 30
0.0
 10
699.226883
 20
1238.863869
 30
0.0
  0
SPLINE
  5
103
100
AcDbEntity
  8
printingsheet2
 62
1
100
AcDbSpline
 70
8
 71
3
 72
8
 73
4
 74
0
 40
0
 40
0
 40
0
 40
0
 40
1
 40
1
 40
1
 40
1
 10
699.226883
 20
1238.863869
 30
0.0
 10
656.299884
 20
1243.772869
 30
0.0
 10
635.155884
 20
1248.117869
 30
0.0
 10
633.333884
 20
1240.660869
 30
0.0
  0
SPLINE
  5
104
100
AcDbEntity
  8
printingsheet2
 62
1
100
AcDbSpline
 70
8
 71
3
 72
8
 73
4
 74
0
 40
0
 40
0
 40
0
 40
0
 40
1
 40
1
 40
1
 40
1
 10
633.333884
 20
1240.660869
 30
0.0
 10
631.344884
 20
1233.578869
 30
0.0
 10
648.676884
 20
1214.693870
 30
0.0
 10
678.871883
 20
1181.790870
 30
0.0
  0
SPLINE
  5
105
100
AcDbEntity
  8
printingsheet2
 62
1
100
AcDbSpline
 70
8
 71
3
 72
8
 73
4
 74
0
 40
0
 40
0
 40
0
 40
0
 40
1
 40
1
 40
1
 40
1
 10
678.871883
 20
1181.790870
 30
0.0
 10
740.533881
 20
1114.732872
 30
0.0
 10
836.212879
 20
1022.666874
 30
0.0
 10
912.115877
 20
972.735876
 30
0.0
  0
SPLINE
  5
106
100
AcDbEntity
  8
printingsheet2
 62
1
100
AcDbSpline
 70
8
 71
3
 72
8
 73
4
 74
0
 40
0
 40
0
 40
0
 40
0
 40
1
 40
1
 40
1
 40
1
 10
912.115877
 20
972.735876
 30
0.0
 10
991.099875
 20
918.961877
 30
0.0
 10
1050.307874
 20
907.322877
 30
0.0
 10
1110.148872
 20
912.393877
 30
0.0
  0
SPLINE
  5
107
100
AcDbEntity
  8
printingsheet2
 62
1
100
AcDbSpline
 70
8
 71
3
 72
8
 73
4
 74
0
 40
0
 40
0
 40
0
 40
0
 40
1
 40
1
 40
1
 40
1
 10
1110.148872
 20
912.393877
 30
0.0
 10
1109.892872
 20
911.076877
 30
0.0
 10
1109.635872
 20
909.758877
 30
0.0
 10
1109.379872
 20
908.440877
 30
0.0
  0
SPLINE
  5
108
100
AcDbEntity
  8
printingsheet2
 62
1
100
AcDbSpline
 70
8
 71
3
 72
8
 73
4
 74
0
 40
0
 40
0
 40
0
 40
0
 40
1
 40
1
 40
1
 40
1
 10
1109.379872
 20
908.440877
 30
0.0
 10
1107.172872
 20
895.938878
 30
0.0
 10
1109.938872
 20
886.394878
 30
0.0
 10
1115.551872
 20
887.095878
 30
0.0
  0
SPLINE
  5
109
100
AcDbEntity
  8
printingsheet2
 62
1
100
AcDbSpline
 70
8
 71
3
 72
8
 73
4
 74
0
 40
0
 40
0
 40
0
 40
0
 40
1
 40
1
 40
1
 40
1
 10
1115.551872
 20
887.095878
 30
0.0
 10
1126.177872
 20
888.368878
 30
0.0
 10
1136.784872
 20
889.555878
 30
0.0
 10
1147.327871
 20
890.399878
 30
0.0
  0
SPLINE
  5
10a
100
AcDbEntity
  8
printingsheet2
 62
1
100
AcDbSpline
 70
8
 71
3
 72
8
 73
4
 74
0
 40
0
 40
0
 40
0
 40
0
 40
1
 40
1
 40
1
 40
1
 10
1147.327871
 20
890.399878
 30
0.0
 10
1152.898871
 20
890.881878
 30
0.0
 10
1164.369871
 20
901.129877
 30
0.0
 10
1172.982871
 20
913.451877
 30
0.0
  0
SPLINE
  5
10b
100
AcDbEntity
  8
printingsheet2
 62
1
100
AcDbSpline
 70
8
 71
3
 72
8
 73
4
 74
0
 40
0
 40
0
 40
0
 40
0
 40
1
 40
1
 40
1
 40
1
 10
1172.982871
 20
913.451877
 30
0.0
 10
1175.479871
 20
917.121877
 30
0.0
 10
1177.975871
 20
920.791877
 30
0.0
 10
1180.471870
 20
924.461877
 30
0.0
  0
SPLINE
  5
10c
100
AcDbEntity
  8
printingsheet2
 62
1
100
AcDbSpline
 70
8
 71
3
 72
8
 73
4
 74
0
 40
0
 40
0
 40
0
 40
0
 40
1
 40
1
 40
1
 40
1
 10
1180.471870
 20
924.461877
 30
0.0
 10
1233.897869
 20
936.063877
 30
0.0
 10
1300.477867
 20
948.652876
 30
0.0
 10
1377.813866
 20
950.767876
 30
0.0
  0
SPLINE
  5
10d
100
AcDbEntity
  8
printingsheet2
 62
1
100
AcDbSpline
 70
8
 71
3
 72
8
 73
4
 74
0
 40
0
 40
0
 40
0
 40
0
 40
1
 40
1
 40
1
 40
1
 10
1377.813866
 20
950.767876
 30
0.0
 10
1453.859864
 20
954.893876
 30
0.0
 10
1540.660861
 20
948.543876
 30
0.0
 10
1604.748860
 20
968.747876
 30
0.0
  0
SPLINE
  5
10e
100
AcDbEntity
  8
printingsheet2
 62
1
100
AcDbSpline
 70
8
 71
3
 72
8
 73
4
 74
0
 40
0
 40
0
 40
0
 40
0
 40
1
 40
1
 40
1
 40
1
 10
1604.748860
 20
968.747876
 30
0.0
 10
1652.963859
 20
983.327875
 30
0.0
 10
1680.575858
 20
1017.343875
 30
0.0
 10
1675.580858
 20
1060.145873
 30
0.0
  0
SPLINE
  5
10f
100
AcDbEntity
  8
printingsheet2
 62
1
100
AcDbSpline
 70
8
 71
3
 72
8
 73
4
 74
0
 40
0
 40
0
 40
0
 40
0
 40
1
 40
1
 40
1
 40
1
 10
1675.580858
 20
1060.145873
 30
0.0
 10
1671.002858
 20
1102.300872
 30
0.0
 10
1633.818859
 20
1153.243871
 30
0.0
 10
1562.076861
 20
1186.735870
 30
0.0
  0
SPLINE
  5
110
100
AcDbEntity
  8
printingsheet2
 62
1
100
AcDbSpline
 70
8
 71
3
 72
8
 73
4
 74
0
 40
0
 40
0
 40
0
 40
0
 40
1
 40
1
 40
1
 40
1
 10
1519.504862
 20
1204.043870
 30
0.0
 10
1525.836862
 20
1236.614869
 30
0.0
 10
1573.752861
 20
1254.652869
 30
0.0
 10
1626.635859
 20
1244.372869
 30
0.0
  0
SPLINE
  5
111
100
AcDbEntity
  8
printingsheet2
 62
1
100
AcDbSpline
 70
8
 71
3
 72
8
 73
4
 74
0
 40
0
 40
0
 40
0
 40
0
 40
1
 40
1
 40
1
 40
1
 10
1562.543861
 20
1186.539970
 30
0.0
 10
1565.813861
 20
1203.359970
 30
0.0
 10
1595.579860
 20
1211.697970
 30
0.0
 10
1629.097859
 20
1205.182970
 30
0.0
  0
SPLINE
  5
112
100
AcDbEntity
  8
printingsheet2
 62
1
100
AcDbSpline
 70
8
 71
3
 72
8
 73
4
 74
0
 40
0
 40
0
 40
0
 40
0
 40
1
 40
1
 40
1
 40
1
 10
1095.705073
 20
1020.645474
 30
0.0
 10
1094.808073
 20
1017.644475
 30
0.0
 10
1091.647073
 20
1015.943475
 30
0.0
 10
1088.647073
 20
1016.843475
 30
0.0
  0
SPLINE
  5
113
100
AcDbEntity
  8
printingsheet2
 62
1
100
AcDbSpline
 70
8
 71
3
 72
8
 73
4
 74
0
 40
0
 40
0
 40
0
 40
0
 40
1
 40
1
 40
1
 40
1
 10
1088.647073
 20
1016.843475
 30
0.0
 10
1085.648073
 20
1017.743475
 30
0.0
 10
1083.948073
 20
1020.901474
 30
0.0
 10
1084.846073
 20
1023.902474
 30
0.0
  0
SPLINE
  5
114
100
AcDbEntity
  8
printingsheet2
 62
1
100
AcDbSpline
 70
8
 71
3
 72
8
 73
4
 74
0
 40
0
 40
0
 40
0
 40
0
 40
1
 40
1
 40
1
 40
1
 10
1084.846073
 20
1023.902474
 30
0.0
 10
1085.748073
 20
1026.902474
 30
0.0
 10
1088.906073
 20
1028.603474
 30
0.0
 10
1091.906073
 20
1027.703474
 30
0.0
  0
SPLINE
  5
115
100
AcDbEntity
  8
printingsheet2
 62
1
100
AcDbSpline
 70
8
 71
3
 72
8
 73
4
 74
0
 40
0
 40
0
 40
0
 40
0
 40
1
 40
1
 40
1
 40
1
 10
1091.906073
 20
1027.703474
 30
0.0
 10
1094.904073
 20
1026.802474
 30
0.0
 10
1096.607073
 20
1023.645474
 30
0.0
 10
1095.705073
 20
1020.645474
 30
0.0
  0
LWPOLYLINE
  5
116
100
AcDbEntity
  8
printingsheet2
 62
1
100
AcDbPolyline
 90
2
 70
0
 10
1626.635659
 20
1244.372569
 30
0.0
 10
1629.097659
 20
1205.182570
 30
0.0
  0
SPLINE
  5
117
100
AcDbEntity
  8
printingsheet2
 62
1
100
AcDbSpline
 70
8
 71
3
 72
8
 73
4
 74
0
 40
0
 40
0
 40
0
 40
0
 40
1
 40
1
 40
1
 40
1
 10
1343.643566
 20
1065.563973
 30
0.0
 10
1342.970566
 20
1062.104973
 30
0.0
 10
1339.622567
 20
1059.846974
 30
0.0
 10
1336.164567
 20
1060.519973
 30
0.0
  0
SPLINE
  5
118
100
AcDbEntity
  8
printingsheet2
 62
1
100
AcDbSpline
 70
8
 71
3
 72
8
 73
4
 74
0
 40
0
 40
0
 40
0
 40
0
 40
1
 40
1
 40
1
 40
1
 10
1336.164567
 20
1060.519973
 30
0.0
 10
1332.705567
 20
1061.190973
 30
0.0
 10
1330.449567
 20
1064.538973
 30
0.0
 10
1331.122567
 20
1067.997973
 30
0.0
  0
SPLINE
  5
119
100
AcDbEntity
  8
printingsheet2
 62
1
100
AcDbSpline
 70
8
 71
3
 72
8
 73
4
 74
0
 40
0
 40
0
 40
0
 40
0
 40
1
 40
1
 40
1
 40
1
 10
1331.122567
 20
1067.997973
 30
0.0
 10
1331.793567
 20
1071.455973
 30
0.0
 10
1335.139567
 20
1073.712973
 30
0.0
 10
1338.598567
 20
1073.040973
 30
0.0
  0
SPLINE
  5
11a
100
AcDbEntity
  8
printingsheet2
 62
1
100
AcDbSpline
 70
8
 71
3
 72
8
 73
4
 74
0
 40
0
 40
0
 40
0
 40
0
 40
1
 40
1
 40
1
 40
1
 10
1338.598567
 20
1073.040973
 30
0.0
 10
1342.057566
 20
1072.367973
 30
0.0
 10
1344.315566
 20
1069.021973
 30
0.0
 10
1343.643566
 20
1065.563973
 30
0.0
  0
LWPOLYLINE
  5
11b
100
AcDbEntity
  8
printingsheet2
 62
1
100
AcDbPolyline
 90
1
 70
1
 10
1095.705073
 20
1020.645474
 30
0.0
  0
SPLINE
  5
11c
100
AcDbEntity
  8
printingsheet2
 62
1
100
AcDbSpline
 70
8
 71
3
 72
8
 73
4
 74
0
 40
0
 40
0
 40
0
 40
0
 40
1
 40
1
 40
1
 40
1
 10
1127.636672
 20
1181.037070
 30
0.0
 10
1126.964672
 20
1177.579071
 30
0.0
 10
1123.616672
 20
1175.320071
 30
0.0
 10
1120.157672
 20
1175.993071
 30
0.0
  0
SPLINE
  5
11d
100
AcDbEntity
  8
printingsheet2
 62
1
100
AcDbSpline
 70
8
 71
3
 72
8
 73
4
 74
0
 40
0
 40
0
 40
0
 40
0
 40
1
 40
1
 40
1
 40
1
 10
1120.157672
 20
1175.993071
 30
0.0
 10
1116.698672
 20
1176.665071
 30
0.0
 10
1114.443672
 20
1180.013070
 30
0.0
 10
1115.115672
 20
1183.472070
 30
0.0
  0
SPLINE
  5
11e
100
AcDbEntity
  8
printingsheet2
 62
1
100
AcDbSpline
 70
8
 71
3
 72
8
 73
4
 74
0
 40
0
 40
0
 40
0
 40
0
 40
1
 40
1
 40
1
 40
1
 10
1115.115672
 20
1183.472070
 30
0.0
 10
1115.786672
 20
1186.929070
 30
0.0
 10
1119.133672
 20
1189.186070
 30
0.0
 10
1122.591672
 20
1188.514070
 30
0.0
  0
SPLINE
  5
11f
100
AcDbEntity
  8
printingsheet2
 62
1
100
AcDbSpline
 70
8
 71
3
 72
8
 73
4
 74
0
 40
0
 40
0
 40
0
 40
0
 40
1
 40
1
 40
1
 40
1
 10
1122.591672
 20
1188.514070
 30
0.0
 10
1126.050672
 20
1187.842070
 30
0.0
 10
1128.308672
 20
1184.495070
 30
0.0
 10
1127.636672
 20
1181.037070
 30
0.0
  0
LWPOLYLINE
  5
120
100
AcDbEntity
  8
printingsheet2
 62
1
100
AcDbPolyline
 90
1
 70
1
 10
1343.643566
 20
1065.563973
 30
0.0
  0
SPLINE
  5
121
100
AcDbEntity
  8
printingsheet2
 62
1
100
AcDbSpline
 70
8
 71
3
 72
8
 73
4
 74
0
 40
0
 40
0
 40
0
 40
0
 40
1
 40
1
 40
1
 40
1
 10
1136.357372
 20
901.122077
 30
0.0
 10
1135.685372
 20
897.664078
 30
0.0
 10
1132.337372
 20
895.405078
 30
0.0
 10
1128.878372
 20
896.078078
 30
0.0
  0
SPLINE
  5
122
100
AcDbEntity
  8
printingsheet2
 62
1
100
AcDbSpline
 70
8
 71
3
 72
8
 73
4
 74
0
 40
0
 40
0
 40
0
 40
0
 40
1
 40
1
 40
1
 40
1
 10
1128.878372
 20
896.078078
 30
0.0
 10
1125.419372
 20
896.750078
 30
0.0
 10
1123.164372
 20
900.098077
 30
0.0
 10
1123.836372
 20
903.556077
 30
0.0
  0
SPLINE
  5
123
100
AcDbEntity
  8
printingsheet2
 62
1
100
AcDbSpline
 70
8
 71
3
 72
8
 73
4
 74
0
 40
0
 40
0
 40
0
 40
0
 40
1
 40
1
 40
1
 40
1
 10
1123.836372
 20
903.556077
 30
0.0
 10
1124.508372
 20
907.014077
 30
0.0
 10
1127.854372
 20
909.271077
 30
0.0
 10
1131.312372
 20
908.599077
 30
0.0
  0
SPLINE
  5
124
100
AcDbEntity
  8
printingsheet2
 62
1
100
AcDbSpline
 70
8
 71
3
 72
8
 73
4
 74
0
 40
0
 40
0
 40
0
 40
0
 40
1
 40
1
 40
1
 40
1
 10
1131.312372
 20
908.599077
 30
0.0
 10
1134.771372
 20
907.927077
 30
0.0
 10
1137.030372
 20
904.580077
 30
0.0
 10
1136.357372
 20
901.122077
 30
0.0
  0
LWPOLYLINE
  5
125
100
AcDbEntity
  8
printingsheet2
 62
1
100
AcDbPolyline
 90
1
 70
1
 10
1127.636672
 20
1181.037070
 30
0.0
  0
SPLINE
  5
126
100
AcDbEntity
  8
printingsheet2
 62
1
100
AcDbSpline
 70
8
 71
3
 72
8
 73
4
 74
0
 40
0
 40
0
 40
0
 40
0
 40
1
 40
1
 40
1
 40
1
 10
1615.061460
 20
1225.677169
 30
0.0
 10
1614.388460
 20
1222.219169
 30
0.0
 10
1611.040460
 20
1219.960170
 30
0.0
 10
1607.582460
 20
1220.633169
 30
0.0
  0
SPLINE
  5
127
100
AcDbEntity
  8
printingsheet2
 62
1
100
AcDbSpline
 70
8
 71
3
 72
8
 73
4
 74
0
 40
0
 40
0
 40
0
 40
0
 40
1
 40
1
 40
1
 40
1
 10
1607.582460
 20
1220.633169
 30
0.0
 10
1604.123460
 20
1221.305169
 30
0.0
 10
1601.867460
 20
1224.652169
 30
0.0
 10
1602.540460
 20
1228.111169
 30
0.0
  0
SPLINE
  5
128
100
AcDbEntity
  8
printingsheet2
 62
1
100
AcDbSpline
 70
8
 71
3
 72
8
 73
4
 74
0
 40
0
 40
0
 40
0
 40
0
 40
1
 40
1
 40
1
 40
1
 10
1602.540460
 20
1228.111169
 30
0.0
 10
1603.211460
 20
1231.569169
 30
0.0
 10
1606.557460
 20
1233.826169
 30
0.0
 10
1610.016460
 20
1233.154169
 30
0.0
  0
SPLINE
  5
129
100
AcDbEntity
  8
printingsheet2
 62
1
100
AcDbSpline
 70
8
 71
3
 72
8
 73
4
 74
0
 40
0
 40
0
 40
0
 40
0
 40
1
 40
1
 40
1
 40
1
 10
1610.016460
 20
1233.154169
 30
0.0
 10
1613.474460
 20
1232.482169
 30
0.0
 10
1615.733460
 20
1229.135169
 30
0.0
 10
1615.061460
 20
1225.677169
 30
0.0
  0
LWPOLYLINE
  5
12a
100
AcDbEntity
  8
printingsheet2
 62
1
100
AcDbPolyline
 90
1
 70
1
 10
1136.357372
 20
901.122077
 30
0.0
  0
SPLINE
  5
12b
100
AcDbEntity
  8
printingsheet2
 62
1
100
AcDbSpline
 70
8
 71
3
 72
8
 73
4
 74
0
 40
0
 40
0
 40
0
 40
0
 40
1
 40
1
 40
1
 40
1
 10
1631.121059
 20
1077.477973
 30
0.0
 10
1630.449059
 20
1074.019973
 30
0.0
 10
1627.101059
 20
1071.761973
 30
0.0
 10
1623.642059
 20
1072.434973
 30
0.0
  0
SPLINE
  5
12c
100
AcDbEntity
  8
printingsheet2
 62
1
100
AcDbSpline
 70
8
 71
3
 72
8
 73
4
 74
0
 40
0
 40
0
 40
0
 40
0
 40
1
 40
1
 40
1
 40
1
 10
1623.642059
 20
1072.434973
 30
0.0
 10
1620.183059
 20
1073.106973
 30
0.0
 10
1617.928060
 20
1076.454973
 30
0.0
 10
1618.600060
 20
1079.911973
 30
0.0
  0
SPLINE
  5
12d
100
AcDbEntity
  8
printingsheet2
 62
1
100
AcDbSpline
 70
8
 71
3
 72
8
 73
4
 74
0
 40
0
 40
0
 40
0
 40
0
 40
1
 40
1
 40
1
 40
1
 10
1618.600060
 20
1079.911973
 30
0.0
 10
1619.272060
 20
1083.369973
 30
0.0
 10
1622.618059
 20
1085.627973
 30
0.0
 10
1626.077059
 20
1084.955973
 30
0.0
  0
SPLINE
  5
12e
100
AcDbEntity
  8
printingsheet2
 62
1
100
AcDbSpline
 70
8
 71
3
 72
8
 73
4
 74
0
 40
0
 40
0
 40
0
 40
0
 40
1
 40
1
 40
1
 40
1
 10
1626.077059
 20
1084.955973
 30
0.0
 10
1629.535059
 20
1084.283973
 30
0.0
 10
1631.794059
 20
1080.935973
 30
0.0
 10
1631.121059
 20
1077.477973
 30
0.0
  0
LWPOLYLINE
  5
12f
100
AcDbEntity
  8
printingsheet2
 62
1
100
AcDbPolyline
 90
1
 70
1
 10
1615.061460
 20
1225.677169
 30
0.0
  0
SPLINE
  5
130
100
AcDbEntity
  8
printingsheet2
 62
1
100
AcDbSpline
 70
8
 71
3
 72
8
 73
4
 74
0
 40
0
 40
0
 40
0
 40
0
 40
1
 40
1
 40
1
 40
1
 10
809.568380
 20
1155.000471
 30
0.0
 10
808.896380
 20
1151.542471
 30
0.0
 10
805.549380
 20
1149.283471
 30
0.0
 10
802.090380
 20
1149.956471
 30
0.0
  0
SPLINE
  5
131
100
AcDbEntity
  8
printingsheet2
 62
1
100
AcDbSpline
 70
8
 71
3
 72
8
 73
4
 74
0
 40
0
 40
0
 40
0
 40
0
 40
1
 40
1
 40
1
 40
1
 10
802.090380
 20
1149.956471
 30
0.0
 10
798.631380
 20
1150.628471
 30
0.0
 10
796.375380
 20
1153.976471
 30
0.0
 10
797.047380
 20
1157.434471
 30
0.0
  0
SPLINE
  5
132
100
AcDbEntity
  8
printingsheet2
 62
1
100
AcDbSpline
 70
8
 71
3
 72
8
 73
4
 74
0
 40
0
 40
0
 40
0
 40
0
 40
1
 40
1
 40
1
 40
1
 10
797.047380
 20
1157.434471
 30
0.0
 10
797.719380
 20
1160.892471
 30
0.0
 10
801.066380
 20
1163.149471
 30
0.0
 10
804.525380
 20
1162.477471
 30
0.0
  0
SPLINE
  5
133
100
AcDbEntity
  8
printingsheet2
 62
1
100
AcDbSpline
 70
8
 71
3
 72
8
 73
4
 74
0
 40
0
 40
0
 40
0
 40
0
 40
1
 40
1
 40
1
 40
1
 10
804.525380
 20
1162.477471
 30
0.0
 10
807.983380
 20
1161.805471
 30
0.0
 10
810.240380
 20
1158.458471
 30
0.0
 10
809.568380
 20
1155.000471
 30
0.0
  0
LWPOLYLINE
  5
134
100
AcDbEntity
  8
printingsheet2
 62
1
100
AcDbPolyline
 90
1
 70
1
 10
1631.121059
 20
1077.477973
 30
0.0
  0
SPLINE
  5
135
100
AcDbEntity
  8
printingsheet2
 62
1
100
AcDbSpline
 70
8
 71
3
 72
8
 73
4
 74
0
 40
0
 40
0
 40
0
 40
0
 40
1
 40
1
 40
1
 40
1
 10
1455.923764
 20
1075.387673
 30
0.0
 10
1452.078764
 20
1076.120673
 30
0.0
 10
1449.555764
 20
1079.832673
 30
0.0
 10
1450.288764
 20
1083.677673
 30
0.0
  0
SPLINE
  5
136
100
AcDbEntity
  8
printingsheet2
 62
1
100
AcDbSpline
 70
8
 71
3
 72
8
 73
4
 74
0
 40
0
 40
0
 40
0
 40
0
 40
1
 40
1
 40
1
 40
1
 10
1450.288764
 20
1083.677673
 30
0.0
 10
1451.022764
 20
1087.521673
 30
0.0
 10
1454.734764
 20
1090.042673
 30
0.0
 10
1458.578764
 20
1089.309673
 30
0.0
  0
SPLINE
  5
137
100
AcDbEntity
  8
printingsheet2
 62
1
100
AcDbSpline
 70
8
 71
3
 72
8
 73
4
 74
0
 40
0
 40
0
 40
0
 40
0
 40
1
 40
1
 40
1
 40
1
 10
1458.578764
 20
1089.309673
 30
0.0
 10
1462.425763
 20
1088.575673
 30
0.0
 10
1464.944763
 20
1084.866673
 30
0.0
 10
1464.213763
 20
1081.020673
 30
0.0
  0
SPLINE
  5
138
100
AcDbEntity
  8
printingsheet2
 62
1
100
AcDbSpline
 70
8
 71
3
 72
8
 73
4
 74
0
 40
0
 40
0
 40
0
 40
0
 40
1
 40
1
 40
1
 40
1
 10
1464.213763
 20
1081.020673
 30
0.0
 10
1463.480763
 20
1077.175673
 30
0.0
 10
1459.770764
 20
1074.654673
 30
0.0
 10
1455.923764
 20
1075.387673
 30
0.0
  0
LWPOLYLINE
  5
139
100
AcDbEntity
  8
printingsheet2
 62
1
100
AcDbPolyline
 90
1
 70
1
 10
809.568380
 20
1155.000471
 30
0.0
  0
SPLINE
  5
13a
100
AcDbEntity
  8
printingsheet2
 62
1
100
AcDbSpline
 70
8
 71
3
 72
8
 73
4
 74
0
 40
0
 40
0
 40
0
 40
0
 40
1
 40
1
 40
1
 40
1
 10
1467.872063
 20
1138.037572
 30
0.0
 10
1464.029063
 20
1138.770572
 30
0.0
 10
1461.508063
 20
1142.481571
 30
0.0
 10
1462.241063
 20
1146.326571
 30
0.0
  0
SPLINE
  5
13b
100
AcDbEntity
  8
printingsheet2
 62
1
100
AcDbSpline
 70
8
 71
3
 72
8
 73
4
 74
0
 40
0
 40
0
 40
0
 40
0
 40
1
 40
1
 40
1
 40
1
 10
1462.241063
 20
1146.326571
 30
0.0
 10
1462.975063
 20
1150.171571
 30
0.0
 10
1466.684063
 20
1152.693571
 30
0.0
 10
1470.531063
 20
1151.959571
 30
0.0
  0
SPLINE
  5
13c
100
AcDbEntity
  8
printingsheet2
 62
1
100
AcDbSpline
 70
8
 71
3
 72
8
 73
4
 74
0
 40
0
 40
0
 40
0
 40
0
 40
1
 40
1
 40
1
 40
1
 10
1470.531063
 20
1151.959571
 30
0.0
 10
1474.375063
 20
1151.226571
 30
0.0
 10
1476.895063
 20
1147.515571
 30
0.0
 10
1476.162063
 20
1143.670571
 30
0.0
  0
SPLINE
  5
13d
100
AcDbEntity
  8
printingsheet2
 62
1
100
AcDbSpline
 70
8
 71
3
 72
8
 73
4
 74
0
 40
0
 40
0
 40
0
 40
0
 40
1
 40
1
 40
1
 40
1
 10
1476.162063
 20
1143.670571
 30
0.0
 10
1475.430063
 20
1139.824572
 30
0.0
 10
1471.721063
 20
1137.303572
 30
0.0
 10
1467.872063
 20
1138.037572
 30
0.0
  0
LWPOLYLINE
  5
13e
100
AcDbEntity
  8
printingsheet2
 62
1
100
AcDbPolyline
 90
1
 70
1
 10
1455.923764
 20
1075.387673
 30
0.0
  0
SPLINE
  5
13f
100
AcDbEntity
  8
printingsheet2
 62
1
100
AcDbSpline
 70
8
 71
3
 72
8
 73
4
 74
0
 40
0
 40
0
 40
0
 40
0
 40
1
 40
1
 40
1
 40
1
 10
195.374995
 20
704.320282
 30
0.0
 10
286.572993
 20
690.732283
 30
0.0
 10
409.304990
 20
706.799282
 30
0.0
 10
541.558986
 20
736.881282
 30
0.0
  0
SPLINE
  5
140
100
AcDbEntity
  8
printingsheet2
 62
1
100
AcDbSpline
 70
8
 71
3
 72
8
 73
4
 74
0
 40
0
 40
0
 40
0
 40
0
 40
1
 40
1
 40
1
 40
1
 10
541.558986
 20
736.881282
 30
0.0
 10
643.026984
 20
759.236281
 30
0.0
 10
739.376982
 20
784.645280
 30
0.0
 10
819.598980
 20
800.325280
 30
0.0
  0
SPLINE
  5
141
100
AcDbEntity
  8
printingsheet2
 62
1
100
AcDbSpline
 70
8
 71
3
 72
8
 73
4
 74
0
 40
0
 40
0
 40
0
 40
0
 40
1
 40
1
 40
1
 40
1
 10
819.598980
 20
800.325280
 30
0.0
 10
900.055977
 20
816.791280
 30
0.0
 10
964.385976
 20
823.528279
 30
0.0
 10
1007.225975
 20
826.674279
 30
0.0
  0
SPLINE
  5
142
100
AcDbEntity
  8
printingsheet2
 62
1
100
AcDbSpline
 70
8
 71
3
 72
8
 73
4
 74
0
 40
0
 40
0
 40
0
 40
0
 40
1
 40
1
 40
1
 40
1
 10
1007.225975
 20
826.674279
 30
0.0
 10
1050.299974
 20
830.047279
 30
0.0
 10
1071.884973
 20
829.816279
 30
0.0
 10
1072.250973
 20
837.484279
 30
0.0
  0
SPLINE
  5
143
100
AcDbEntity
  8
printingsheet2
 62
1
100
AcDbSpline
 70
8
 71
3
 72
8
 73
4
 74
0
 40
0
 40
0
 40
0
 40
0
 40
1
 40
1
 40
1
 40
1
 10
1072.250973
 20
837.484279
 30
0.0
 10
1072.851973
 20
844.816279
 30
0.0
 10
1052.233974
 20
860.046278
 30
0.0
 10
1016.314975
 20
886.582278
 30
0.0
  0
SPLINE
  5
144
100
AcDbEntity
  8
printingsheet2
 62
1
100
AcDbSpline
 70
8
 71
3
 72
8
 73
4
 74
0
 40
0
 40
0
 40
0
 40
0
 40
1
 40
1
 40
1
 40
1
 10
1016.314975
 20
886.582278
 30
0.0
 10
942.989976
 20
940.641276
 30
0.0
 10
831.499979
 20
1012.756275
 30
0.0
 10
747.462981
 20
1047.285274
 30
0.0
  0
SPLINE
  5
145
100
AcDbEntity
  8
printingsheet2
 62
1
100
AcDbSpline
 70
8
 71
3
 72
8
 73
4
 74
0
 40
0
 40
0
 40
0
 40
0
 40
1
 40
1
 40
1
 40
1
 10
747.462981
 20
1047.285274
 30
0.0
 10
659.668984
 20
1084.999273
 30
0.0
 10
599.328985
 20
1085.125273
 30
0.0
 10
541.555986
 20
1068.728273
 30
0.0
  0
LWPOLYLINE
  5
146
100
AcDbEntity
  8
printingsheet2
 62
1
100
AcDbPolyline
 90
1
 70
1
 10
1467.872063
 20
1138.037572
 30
0.0
  0
SPLINE
  5
147
100
AcDbEntity
  8
printingsheet2
 62
1
100
AcDbSpline
 70
8
 71
3
 72
8
 73
4
 74
0
 40
0
 40
0
 40
0
 40
0
 40
1
 40
1
 40
1
 40
1
 10
541.555986
 20
1072.755273
 30
0.0
 10
541.335986
 20
1085.448273
 30
0.0
 10
536.799987
 20
1094.290273
 30
0.0
 10
531.423987
 20
1092.530273
 30
0.0
  0
SPLINE
  5
148
100
AcDbEntity
  8
printingsheet2
 62
1
100
AcDbSpline
 70
8
 71
3
 72
8
 73
4
 74
0
 40
0
 40
0
 40
0
 40
0
 40
1
 40
1
 40
1
 40
1
 10
531.423987
 20
1092.530273
 30
0.0
 10
521.236987
 20
1089.254273
 30
0.0
 10
511.049987
 20
1086.063273
 30
0.0
 10
500.861987
 20
1083.223273
 30
0.0
  0
SPLINE
  5
149
100
AcDbEntity
  8
printingsheet2
 62
1
100
AcDbSpline
 70
8
 71
3
 72
8
 73
4
 74
0
 40
0
 40
0
 40
0
 40
0
 40
1
 40
1
 40
1
 40
1
 10
500.861987
 20
1083.223273
 30
0.0
 10
495.485988
 20
1081.687273
 30
0.0
 10
486.181988
 20
1069.437273
 30
0.0
 10
480.077988
 20
1055.698274
 30
0.0
  0
SPLINE
  5
14a
100
AcDbEntity
  8
printingsheet2
 62
1
100
AcDbSpline
 70
8
 71
3
 72
8
 73
4
 74
0
 40
0
 40
0
 40
0
 40
0
 40
1
 40
1
 40
1
 40
1
 10
480.077988
 20
1055.698274
 30
0.0
 10
478.327988
 20
1051.620274
 30
0.0
 10
476.577988
 20
1047.541274
 30
0.0
 10
474.826988
 20
1043.462274
 30
0.0
  0
SPLINE
  5
14b
100
AcDbEntity
  8
printingsheet2
 62
1
100
AcDbSpline
 70
8
 71
3
 72
8
 73
4
 74
0
 40
0
 40
0
 40
0
 40
0
 40
1
 40
1
 40
1
 40
1
 10
474.826988
 20
1043.462274
 30
0.0
 10
424.596989
 20
1021.878274
 30
0.0
 10
361.641991
 20
996.814275
 30
0.0
 10
286.130993
 20
979.981276
 30
0.0
  0
SPLINE
  5
14c
100
AcDbEntity
  8
printingsheet2
 62
1
100
AcDbSpline
 70
8
 71
3
 72
8
 73
4
 74
0
 40
0
 40
0
 40
0
 40
0
 40
1
 40
1
 40
1
 40
1
 10
286.130993
 20
979.981276
 30
0.0
 10
212.269995
 20
961.419276
 30
0.0
 10
125.851997
 20
951.088276
 30
0.0
 10
66.796998
 20
919.026277
 30
0.0
  0
SPLINE
  5
14d
100
AcDbEntity
  8
printingsheet2
 62
1
100
AcDbSpline
 70
8
 71
3
 72
8
 73
4
 74
0
 40
0
 40
0
 40
0
 40
0
 40
1
 40
1
 40
1
 40
1
 10
66.796998
 20
919.026277
 30
0.0
 10
22.250999
 20
895.512278
 30
0.0
 10
1.638000
 20
856.852279
 30
0.0
 10
14.709000
 20
815.790280
 30
0.0
  0
SPLINE
  5
14e
100
AcDbEntity
  8
printingsheet2
 62
1
100
AcDbSpline
 70
8
 71
3
 72
8
 73
4
 74
0
 40
0
 40
0
 40
0
 40
0
 40
1
 40
1
 40
1
 40
1
 10
14.709000
 20
815.790280
 30
0.0
 10
27.247999
 20
775.282281
 30
0.0
 10
73.470998
 20
732.372282
 30
0.0
 10
150.283996
 20
713.186282
 30
0.0
  0
SPLINE
  5
14f
100
AcDbEntity
  8
printingsheet2
 62
1
100
AcDbSpline
 70
8
 71
3
 72
8
 73
4
 74
0
 40
0
 40
0
 40
0
 40
0
 40
1
 40
1
 40
1
 40
1
 10
195.375995
 20
704.320282
 30
0.0
 10
195.375995
 20
671.139283
 30
0.0
 10
151.782996
 20
644.289284
 30
0.0
 10
97.909998
 20
644.289284
 30
0.0
  0
SPLINE
  5
150
100
AcDbEntity
  8
printingsheet2
 62
1
100
AcDbSpline
 70
8
 71
3
 72
8
 73
4
 74
0
 40
0
 40
0
 40
0
 40
0
 40
1
 40
1
 40
1
 40
1
 10
149.788096
 20
713.289582
 30
0.0
 10
149.788096
 20
696.154583
 30
0.0
 10
122.160097
 20
682.289583
 30
0.0
 10
88.015098
 20
682.289583
 30
0.0
  0
LWPOLYLINE
  5
151
100
AcDbEntity
  8
printingsheet2
 62
1
100
AcDbPolyline
 90
2
 70
0
 10
541.555986
 20
1068.728273
 30
0.0
 10
541.555986
 20
1072.755273
 30
0.0
  0
SPLINE
  5
152
100
AcDbEntity
  8
printingsheet2
 62
1
100
AcDbSpline
 70
8
 71
3
 72
8
 73
4
 74
0
 40
0
 40
0
 40
0
 40
0
 40
1
 40
1
 40
1
 40
1
 10
576.389586
 20
965.222676
 30
0.0
 10
576.699586
 20
968.339676
 30
0.0
 10
579.476586
 20
970.612676
 30
0.0
 10
582.592585
 20
970.301676
 30
0.0
  0
SPLINE
  5
153
100
AcDbEntity
  8
printingsheet2
 62
1
100
AcDbSpline
 70
8
 71
3
 72
8
 73
4
 74
0
 40
0
 40
0
 40
0
 40
0
 40
1
 40
1
 40
1
 40
1
 10
582.592585
 20
970.301676
 30
0.0
 10
585.707585
 20
969.990676
 30
0.0
 10
587.980585
 20
967.214676
 30
0.0
 10
587.670585
 20
964.097676
 30
0.0
  0
SPLINE
  5
154
100
AcDbEntity
  8
printingsheet2
 62
1
100
AcDbSpline
 70
8
 71
3
 72
8
 73
4
 74
0
 40
0
 40
0
 40
0
 40
0
 40
1
 40
1
 40
1
 40
1
 10
587.670585
 20
964.097676
 30
0.0
 10
587.359585
 20
960.980676
 30
0.0
 10
584.582585
 20
958.707676
 30
0.0
 10
581.467585
 20
959.019676
 30
0.0
  0
SPLINE
  5
155
100
AcDbEntity
  8
printingsheet2
 62
1
100
AcDbSpline
 70
8
 71
3
 72
8
 73
4
 74
0
 40
0
 40
0
 40
0
 40
0
 40
1
 40
1
 40
1
 40
1
 10
581.467585
 20
959.019676
 30
0.0
 10
578.351586
 20
959.330676
 30
0.0
 10
576.077586
 20
962.105676
 30
0.0
 10
576.389586
 20
965.222676
 30
0.0
  0
LWPOLYLINE
  5
156
100
AcDbEntity
  8
printingsheet2
 62
1
100
AcDbPolyline
 90
2
 70
0
 10
97.909698
 20
644.289084
 30
0.0
 10
88.014698
 20
682.289083
 30
0.0
  0
SPLINE
  5
157
100
AcDbEntity
  8
printingsheet2
 62
1
100
AcDbSpline
 70
8
 71
3
 72
8
 73
4
 74
0
 40
0
 40
0
 40
0
 40
0
 40
1
 40
1
 40
1
 40
1
 10
341.580091
 20
873.815378
 30
0.0
 10
341.580091
 20
877.338378
 30
0.0
 10
344.435091
 20
880.194378
 30
0.0
 10
347.959091
 20
880.194378
 30
0.0
  0
SPLINE
  5
158
100
AcDbEntity
  8
printingsheet2
 62
1
100
AcDbSpline
 70
8
 71
3
 72
8
 73
4
 74
0
 40
0
 40
0
 40
0
 40
0
 40
1
 40
1
 40
1
 40
1
 10
347.959091
 20
880.194378
 30
0.0
 10
351.482091
 20
880.194378
 30
0.0
 10
354.336091
 20
877.338378
 30
0.0
 10
354.336091
 20
873.815378
 30
0.0
  0
SPLINE
  5
159
100
AcDbEntity
  8
printingsheet2
 62
1
100
AcDbSpline
 70
8
 71
3
 72
8
 73
4
 74
0
 40
0
 40
0
 40
0
 40
0
 40
1
 40
1
 40
1
 40
1
 10
354.336091
 20
873.815378
 30
0.0
 10
354.336091
 20
870.293378
 30
0.0
 10
351.482091
 20
867.438378
 30
0.0
 10
347.959091
 20
867.438378
 30
0.0
  0
SPLINE
  5
15a
100
AcDbEntity
  8
printingsheet2
 62
1
100
AcDbSpline
 70
8
 71
3
 72
8
 73
4
 74
0
 40
0
 40
0
 40
0
 40
0
 40
1
 40
1
 40
1
 40
1
 10
347.959091
 20
867.438378
 30
0.0
 10
344.435091
 20
867.438378
 30
0.0
 10
341.580091
 20
870.293378
 30
0.0
 10
341.580091
 20
873.815378
 30
0.0
  0
LWPOLYLINE
  5
15b
100
AcDbEntity
  8
printingsheet2
 62
1
100
AcDbPolyline
 90
1
 70
1
 10
576.389586
 20
965.222676
 30
0.0
  0
SPLINE
  5
15c
100
AcDbEntity
  8
printingsheet2
 62
1
100
AcDbSpline
 70
8
 71
3
 72
8
 73
4
 74
0
 40
0
 40
0
 40
0
 40
0
 40
1
 40
1
 40
1
 40
1
 10
575.653286
 20
801.684580
 30
0.0
 10
575.653286
 20
805.207580
 30
0.0
 10
578.508286
 20
808.063580
 30
0.0
 10
582.032285
 20
808.063580
 30
0.0
  0
SPLINE
  5
15d
100
AcDbEntity
  8
printingsheet2
 62
1
100
AcDbSpline
 70
8
 71
3
 72
8
 73
4
 74
0
 40
0
 40
0
 40
0
 40
0
 40
1
 40
1
 40
1
 40
1
 10
582.032285
 20
808.063580
 30
0.0
 10
585.555285
 20
808.063580
 30
0.0
 10
588.409285
 20
805.207580
 30
0.0
 10
588.409285
 20
801.684580
 30
0.0
  0
SPLINE
  5
15e
100
AcDbEntity
  8
printingsheet2
 62
1
100
AcDbSpline
 70
8
 71
3
 72
8
 73
4
 74
0
 40
0
 40
0
 40
0
 40
0
 40
1
 40
1
 40
1
 40
1
 10
588.409285
 20
801.684580
 30
0.0
 10
588.409285
 20
798.162580
 30
0.0
 10
585.555285
 20
795.307580
 30
0.0
 10
582.032285
 20
795.307580
 30
0.0
  0
SPLINE
  5
15f
100
AcDbEntity
  8
printingsheet2
 62
1
100
AcDbSpline
 70
8
 71
3
 72
8
 73
4
 74
0
 40
0
 40
0
 40
0
 40
0
 40
1
 40
1
 40
1
 40
1
 10
582.032285
 20
795.307580
 30
0.0
 10
578.508286
 20
795.307580
 30
0.0
 10
575.653286
 20
798.162580
 30
0.0
 10
575.653286
 20
801.684580
 30
0.0
  0
LWPOLYLINE
  5
160
100
AcDbEntity
  8
printingsheet2
 62
1
100
AcDbPolyline
 90
1
 70
1
 10
341.580091
 20
873.815378
 30
0.0
  0
SPLINE
  5
161
100
AcDbEntity
  8
printingsheet2
 62
1
100
AcDbSpline
 70
8
 71
3
 72
8
 73
4
 74
0
 40
0
 40
0
 40
0
 40
0
 40
1
 40
1
 40
1
 40
1
 10
513.677187
 20
1074.790973
 30
0.0
 10
513.677187
 20
1078.313973
 30
0.0
 10
516.532187
 20
1081.169973
 30
0.0
 10
520.056187
 20
1081.169973
 30
0.0
  0
SPLINE
  5
162
100
AcDbEntity
  8
printingsheet2
 62
1
100
AcDbSpline
 70
8
 71
3
 72
8
 73
4
 74
0
 40
0
 40
0
 40
0
 40
0
 40
1
 40
1
 40
1
 40
1
 10
520.056187
 20
1081.169973
 30
0.0
 10
523.579187
 20
1081.169973
 30
0.0
 10
526.433187
 20
1078.314973
 30
0.0
 10
526.433187
 20
1074.790973
 30
0.0
  0
SPLINE
  5
163
100
AcDbEntity
  8
printingsheet2
 62
1
100
AcDbSpline
 70
8
 71
3
 72
8
 73
4
 74
0
 40
0
 40
0
 40
0
 40
0
 40
1
 40
1
 40
1
 40
1
 10
526.433187
 20
1074.790973
 30
0.0
 10
526.433187
 20
1071.268973
 30
0.0
 10
523.579187
 20
1068.414973
 30
0.0
 10
520.056187
 20
1068.414973
 30
0.0
  0
SPLINE
  5
164
100
AcDbEntity
  8
printingsheet2
 62
1
100
AcDbSpline
 70
8
 71
3
 72
8
 73
4
 74
0
 40
0
 40
0
 40
0
 40
0
 40
1
 40
1
 40
1
 40
1
 10
520.056187
 20
1068.414973
 30
0.0
 10
516.532187
 20
1068.414973
 30
0.0
 10
513.677187
 20
1071.268973
 30
0.0
 10
513.677187
 20
1074.790973
 30
0.0
  0
LWPOLYLINE
  5
165
100
AcDbEntity
  8
printingsheet2
 62
1
100
AcDbPolyline
 90
1
 70
1
 10
575.653286
 20
801.684580
 30
0.0
  0
SPLINE
  5
166
100
AcDbEntity
  8
printingsheet2
 62
1
100
AcDbSpline
 70
8
 71
3
 72
8
 73
4
 74
0
 40
0
 40
0
 40
0
 40
0
 40
1
 40
1
 40
1
 40
1
 10
105.704597
 20
664.849583
 30
0.0
 10
105.704597
 20
668.372583
 30
0.0
 10
108.559597
 20
671.228583
 30
0.0
 10
112.083597
 20
671.228583
 30
0.0
  0
SPLINE
  5
167
100
AcDbEntity
  8
printingsheet2
 62
1
100
AcDbSpline
 70
8
 71
3
 72
8
 73
4
 74
0
 40
0
 40
0
 40
0
 40
0
 40
1
 40
1
 40
1
 40
1
 10
112.083597
 20
671.228583
 30
0.0
 10
115.606597
 20
671.228583
 30
0.0
 10
118.460597
 20
668.373583
 30
0.0
 10
118.460597
 20
664.849583
 30
0.0
  0
SPLINE
  5
168
100
AcDbEntity
  8
printingsheet2
 62
1
100
AcDbSpline
 70
8
 71
3
 72
8
 73
4
 74
0
 40
0
 40
0
 40
0
 40
0
 40
1
 40
1
 40
1
 40
1
 10
118.460597
 20
664.849583
 30
0.0
 10
118.460597
 20
661.327583
 30
0.0
 10
115.606597
 20
658.473584
 30
0.0
 10
112.083597
 20
658.473584
 30
0.0
  0
SPLINE
  5
169
100
AcDbEntity
  8
printingsheet2
 62
1
100
AcDbSpline
 70
8
 71
3
 72
8
 73
4
 74
0
 40
0
 40
0
 40
0
 40
0
 40
1
 40
1
 40
1
 40
1
 10
112.083597
 20
658.473584
 30
0.0
 10
108.559597
 20
658.472584
 30
0.0
 10
105.704597
 20
661.327583
 30
0.0
 10
105.704597
 20
664.849583
 30
0.0
  0
LWPOLYLINE
  5
16a
100
AcDbEntity
  8
printingsheet2
 62
1
100
AcDbPolyline
 90
1
 70
1
 10
513.677187
 20
1074.790973
 30
0.0
  0
SPLINE
  5
16b
100
AcDbEntity
  8
printingsheet2
 62
1
100
AcDbSpline
 70
8
 71
3
 72
8
 73
4
 74
0
 40
0
 40
0
 40
0
 40
0
 40
1
 40
1
 40
1
 40
1
 10
61.658698
 20
807.260680
 30
0.0
 10
61.658698
 20
810.782680
 30
0.0
 10
64.513698
 20
813.638680
 30
0.0
 10
68.037698
 20
813.638680
 30
0.0
  0
SPLINE
  5
16c
100
AcDbEntity
  8
printingsheet2
 62
1
100
AcDbSpline
 70
8
 71
3
 72
8
 73
4
 74
0
 40
0
 40
0
 40
0
 40
0
 40
1
 40
1
 40
1
 40
1
 10
68.037698
 20
813.638680
 30
0.0
 10
71.560698
 20
813.638680
 30
0.0
 10
74.414698
 20
810.782680
 30
0.0
 10
74.414698
 20
807.260680
 30
0.0
  0
SPLINE
  5
16d
100
AcDbEntity
  8
printingsheet2
 62
1
100
AcDbSpline
 70
8
 71
3
 72
8
 73
4
 74
0
 40
0
 40
0
 40
0
 40
0
 40
1
 40
1
 40
1
 40
1
 10
74.414698
 20
807.260680
 30
0.0
 10
74.414698
 20
803.738680
 30
0.0
 10
71.560698
 20
800.882680
 30
0.0
 10
68.037698
 20
800.882680
 30
0.0
  0
SPLINE
  5
16e
100
AcDbEntity
  8
printingsheet2
 62
1
100
AcDbSpline
 70
8
 71
3
 72
8
 73
4
 74
0
 40
0
 40
0
 40
0
 40
0
 40
1
 40
1
 40
1
 40
1
 10
68.037698
 20
800.882680
 30
0.0
 10
64.513698
 20
800.882680
 30
0.0
 10
61.658698
 20
803.738680
 30
0.0
 10
61.658698
 20
807.260680
 30
0.0
  0
LWPOLYLINE
  5
16f
100
AcDbEntity
  8
printingsheet2
 62
1
100
AcDbPolyline
 90
1
 70
1
 10
105.704597
 20
664.849583
 30
0.0
  0
SPLINE
  5
170
100
AcDbEntity
  8
printingsheet2
 62
1
100
AcDbSpline
 70
8
 71
3
 72
8
 73
4
 74
0
 40
0
 40
0
 40
0
 40
0
 40
1
 40
1
 40
1
 40
1
 10
882.908178
 20
887.939478
 30
0.0
 10
882.908178
 20
891.462478
 30
0.0
 10
885.762178
 20
894.318478
 30
0.0
 10
889.286178
 20
894.318478
 30
0.0
  0
SPLINE
  5
171
100
AcDbEntity
  8
printingsheet2
 62
1
100
AcDbSpline
 70
8
 71
3
 72
8
 73
4
 74
0
 40
0
 40
0
 40
0
 40
0
 40
1
 40
1
 40
1
 40
1
 10
889.286178
 20
894.318478
 30
0.0
 10
892.809178
 20
894.318478
 30
0.0
 10
895.664178
 20
891.462478
 30
0.0
 10
895.664178
 20
887.939478
 30
0.0
  0
SPLINE
  5
172
100
AcDbEntity
  8
printingsheet2
 62
1
100
AcDbSpline
 70
8
 71
3
 72
8
 73
4
 74
0
 40
0
 40
0
 40
0
 40
0
 40
1
 40
1
 40
1
 40
1
 10
895.664178
 20
887.939478
 30
0.0
 10
895.664178
 20
884.417478
 30
0.0
 10
892.809178
 20
881.562478
 30
0.0
 10
889.286178
 20
881.562478
 30
0.0
  0
SPLINE
  5
173
100
AcDbEntity
  8
printingsheet2
 62
1
100
AcDbSpline
 70
8
 71
3
 72
8
 73
4
 74
0
 40
0
 40
0
 40
0
 40
0
 40
1
 40
1
 40
1
 40
1
 10
889.286178
 20
881.562478
 30
0.0
 10
885.762178
 20
881.562478
 30
0.0
 10
882.908178
 20
884.417478
 30
0.0
 10
882.908178
 20
887.939478
 30
0.0
  0
LWPOLYLINE
  5
174
100
AcDbEntity
  8
printingsheet2
 62
1
100
AcDbPolyline
 90
1
 70
1
 10
61.658698
 20
807.260680
 30
0.0
  0
SPLINE
  5
175
100
AcDbEntity
  8
printingsheet2
 62
1
100
AcDbSpline
 70
8
 71
3
 72
8
 73
4
 74
0
 40
0
 40
0
 40
0
 40
0
 40
1
 40
1
 40
1
 40
1
 10
111.349597
 20
842.316879
 30
0.0
 10
115.263597
 20
842.330879
 30
0.0
 10
118.447597
 20
839.169879
 30
0.0
 10
118.460597
 20
835.254879
 30
0.0
  0
SPLINE
  5
176
100
AcDbEntity
  8
printingsheet2
 62
1
100
AcDbSpline
 70
8
 71
3
 72
8
 73
4
 74
0
 40
0
 40
0
 40
0
 40
0
 40
1
 40
1
 40
1
 40
1
 10
118.460597
 20
835.254879
 30
0.0
 10
118.474597
 20
831.339879
 30
0.0
 10
115.312597
 20
828.157879
 30
0.0
 10
111.400597
 20
828.143879
 30
0.0
  0
SPLINE
  5
177
100
AcDbEntity
  8
printingsheet2
 62
1
100
AcDbSpline
 70
8
 71
3
 72
8
 73
4
 74
0
 40
0
 40
0
 40
0
 40
0
 40
1
 40
1
 40
1
 40
1
 10
111.400597
 20
828.143879
 30
0.0
 10
107.486597
 20
828.129879
 30
0.0
 10
104.300597
 20
831.290879
 30
0.0
 10
104.286597
 20
835.203879
 30
0.0
  0
SPLINE
  5
178
100
AcDbEntity
  8
printingsheet2
 62
1
100
AcDbSpline
 70
8
 71
3
 72
8
 73
4
 74
0
 40
0
 40
0
 40
0
 40
0
 40
1
 40
1
 40
1
 40
1
 10
104.286597
 20
835.203879
 30
0.0
 10
104.273597
 20
839.119879
 30
0.0
 10
107.435597
 20
842.301879
 30
0.0
 10
111.349597
 20
842.316879
 30
0.0
  0
LWPOLYLINE
  5
179
100
AcDbEntity
  8
printingsheet2
 62
1
100
AcDbPolyline
 90
1
 70
1
 10
882.908178
 20
887.939478
 30
0.0
  0
SPLINE
  5
17a
100
AcDbEntity
  8
printingsheet2
 62
1
100
AcDbSpline
 70
8
 71
3
 72
8
 73
4
 74
0
 40
0
 40
0
 40
0
 40
0
 40
1
 40
1
 40
1
 40
1
 10
111.574697
 20
778.537581
 30
0.0
 10
115.488697
 20
778.551581
 30
0.0
 10
118.672697
 20
775.391581
 30
0.0
 10
118.685697
 20
771.475581
 30
0.0
  0
SPLINE
  5
17b
100
AcDbEntity
  8
printingsheet2
 62
1
100
AcDbSpline
 70
8
 71
3
 72
8
 73
4
 74
0
 40
0
 40
0
 40
0
 40
0
 40
1
 40
1
 40
1
 40
1
 10
118.685697
 20
771.475581
 30
0.0
 10
118.699697
 20
767.561581
 30
0.0
 10
115.537697
 20
764.378581
 30
0.0
 10
111.623697
 20
764.364581
 30
0.0
  0
SPLINE
  5
17c
100
AcDbEntity
  8
printingsheet2
 62
1
100
AcDbSpline
 70
8
 71
3
 72
8
 73
4
 74
0
 40
0
 40
0
 40
0
 40
0
 40
1
 40
1
 40
1
 40
1
 10
111.623697
 20
764.364581
 30
0.0
 10
107.709697
 20
764.351581
 30
0.0
 10
104.528697
 20
767.511581
 30
0.0
 10
104.513697
 20
771.425581
 30
0.0
  0
SPLINE
  5
17d
100
AcDbEntity
  8
printingsheet2
 62
1
100
AcDbSpline
 70
8
 71
3
 72
8
 73
4
 74
0
 40
0
 40
0
 40
0
 40
0
 40
1
 40
1
 40
1
 40
1
 10
104.513697
 20
771.425581
 30
0.0
 10
104.498697
 20
775.340581
 30
0.0
 10
107.660697
 20
778.523581
 30
0.0
 10
111.574697
 20
778.537581
 30
0.0
  0
LWPOLYLINE
  5
17e
100
AcDbEntity
  8
printingsheet2
 62
1
100
AcDbPolyline
 90
1
 70
1
 10
111.349597
 20
842.316879
 30
0.0
  0
SPLINE
  5
17f
100
AcDbEntity
  8
printingsheet2
 62
1
100
AcDbSpline
 70
8
 71
3
 72
8
 73
4
 74
0
 40
0
 40
0
 40
0
 40
0
 40
1
 40
1
 40
1
 40
1
 10
1053.804674
 20
519.759787
 30
0.0
 10
1020.206674
 20
548.982786
 30
0.0
 10
985.528675
 20
582.632785
 30
0.0
 10
948.598676
 20
608.776785
 30
0.0
  0
SPLINE
  5
180
100
AcDbEntity
  8
printingsheet2
 62
1
100
AcDbSpline
 70
8
 71
3
 72
8
 73
4
 74
0
 40
0
 40
0
 40
0
 40
0
 40
1
 40
1
 40
1
 40
1
 10
948.598676
 20
608.776785
 30
0.0
 10
911.903677
 20
635.552784
 30
0.0
 10
872.957678
 20
654.822784
 30
0.0
 10
836.221679
 20
669.905783
 30
0.0
  0
SPLINE
  5
181
100
AcDbEntity
  8
printingsheet2
 62
1
100
AcDbSpline
 70
8
 71
3
 72
8
 73
4
 74
0
 40
0
 40
0
 40
0
 40
0
 40
1
 40
1
 40
1
 40
1
 10
836.221679
 20
669.905783
 30
0.0
 10
799.543680
 20
685.084783
 30
0.0
 10
765.071681
 20
696.067783
 30
0.0
 10
738.597682
 20
708.389782
 30
0.0
  0
SPLINE
  5
182
100
AcDbEntity
  8
printingsheet2
 62
1
100
AcDbSpline
 70
8
 71
3
 72
8
 73
4
 74
0
 40
0
 40
0
 40
0
 40
0
 40
1
 40
1
 40
1
 40
1
 10
738.597682
 20
708.389782
 30
0.0
 10
712.001682
 20
720.264782
 30
0.0
 10
693.404683
 20
733.481782
 30
0.0
 10
685.660683
 20
742.839781
 30
0.0
  0
SPLINE
  5
183
100
AcDbEntity
  8
printingsheet2
 62
1
100
AcDbSpline
 70
8
 71
3
 72
8
 73
4
 74
0
 40
0
 40
0
 40
0
 40
0
 40
1
 40
1
 40
1
 40
1
 10
685.660683
 20
742.839781
 30
0.0
 10
677.979683
 20
752.647781
 30
0.0
 10
681.995683
 20
755.778781
 30
0.0
 10
696.878683
 20
753.591781
 30
0.0
  0
SPLINE
  5
184
100
AcDbEntity
  8
printingsheet2
 62
1
100
AcDbSpline
 70
8
 71
3
 72
8
 73
4
 74
0
 40
0
 40
0
 40
0
 40
0
 40
1
 40
1
 40
1
 40
1
 10
696.878683
 20
753.591781
 30
0.0
 10
711.883682
 20
751.855781
 30
0.0
 10
737.755682
 20
744.801781
 30
0.0
 10
776.633681
 20
744.717781
 30
0.0
  0
SPLINE
  5
185
100
AcDbEntity
  8
printingsheet2
 62
1
100
AcDbSpline
 70
8
 71
3
 72
8
 73
4
 74
0
 40
0
 40
0
 40
0
 40
0
 40
1
 40
1
 40
1
 40
1
 10
776.633681
 20
744.717781
 30
0.0
 10
815.432680
 20
744.376781
 30
0.0
 10
867.235678
 20
750.990781
 30
0.0
 10
932.264677
 20
770.541781
 30
0.0
  0
SPLINE
  5
186
100
AcDbEntity
  8
printingsheet2
 62
1
100
AcDbSpline
 70
8
 71
3
 72
8
 73
4
 74
0
 40
0
 40
0
 40
0
 40
0
 40
1
 40
1
 40
1
 40
1
 10
932.264677
 20
770.541781
 30
0.0
 10
997.011675
 20
789.116780
 30
0.0
 10
1074.986673
 20
820.629779
 30
0.0
 10
1159.638671
 20
847.586779
 30
0.0
  0
SPLINE
  5
187
100
AcDbEntity
  8
printingsheet2
 62
1
100
AcDbSpline
 70
8
 71
3
 72
8
 73
4
 74
0
 40
0
 40
0
 40
0
 40
0
 40
1
 40
1
 40
1
 40
1
 10
1159.638671
 20
847.586779
 30
0.0
 10
1243.878669
 20
874.814778
 30
0.0
 10
1326.077667
 20
892.439778
 30
0.0
 10
1394.022665
 20
888.801778
 30
0.0
  0
SPLINE
  5
188
100
AcDbEntity
  8
printingsheet2
 62
1
100
AcDbSpline
 70
8
 71
3
 72
8
 73
4
 74
0
 40
0
 40
0
 40
0
 40
0
 40
1
 40
1
 40
1
 40
1
 10
1394.022665
 20
888.801778
 30
0.0
 10
1462.239663
 20
886.144778
 30
0.0
 10
1516.202662
 20
862.226778
 30
0.0
 10
1550.255661
 20
829.047779
 30
0.0
  0
SPLINE
  5
189
100
AcDbEntity
  8
printingsheet2
 62
1
100
AcDbSpline
 70
8
 71
3
 72
8
 73
4
 74
0
 40
0
 40
0
 40
0
 40
0
 40
1
 40
1
 40
1
 40
1
 10
1550.255661
 20
829.047779
 30
0.0
 10
1584.565660
 20
796.018780
 30
0.0
 10
1598.964660
 20
753.714781
 30
0.0
 10
1593.961660
 20
717.591782
 30
0.0
  0
SPLINE
  5
18a
100
AcDbEntity
  8
printingsheet2
 62
1
100
AcDbSpline
 70
8
 71
3
 72
8
 73
4
 74
0
 40
0
 40
0
 40
0
 40
0
 40
1
 40
1
 40
1
 40
1
 10
1593.961660
 20
717.591782
 30
0.0
 10
1589.200660
 20
680.777783
 30
0.0
 10
1565.035661
 20
650.142784
 30
0.0
 10
1527.781662
 20
624.506784
 30
0.0
  0
SPLINE
  5
18b
100
AcDbEntity
  8
printingsheet2
 62
1
100
AcDbSpline
 70
8
 71
3
 72
8
 73
4
 74
0
 40
0
 40
0
 40
0
 40
0
 40
1
 40
1
 40
1
 40
1
 10
1527.781662
 20
624.506784
 30
0.0
 10
1490.463663
 20
598.420785
 30
0.0
 10
1443.687664
 20
577.875786
 30
0.0
 10
1397.445665
 20
555.107786
 30
0.0
  0
SPLINE
  5
18c
100
AcDbEntity
  8
printingsheet2
 62
1
100
AcDbSpline
 70
8
 71
3
 72
8
 73
4
 74
0
 40
0
 40
0
 40
0
 40
0
 40
1
 40
1
 40
1
 40
1
 10
1397.445665
 20
555.107786
 30
0.0
 10
1350.960666
 20
533.023787
 30
0.0
 10
1305.011667
 20
508.715787
 30
0.0
 10
1263.763668
 20
490.942788
 30
0.0
  0
SPLINE
  5
18d
100
AcDbEntity
  8
printingsheet2
 62
1
100
AcDbSpline
 70
8
 71
3
 72
8
 73
4
 74
0
 40
0
 40
0
 40
0
 40
0
 40
1
 40
1
 40
1
 40
1
 10
1263.763668
 20
490.942788
 30
0.0
 10
1222.283669
 20
473.196788
 30
0.0
 10
1185.504670
 20
461.971788
 30
0.0
 10
1151.998671
 20
466.558788
 30
0.0
  0
SPLINE
  5
18e
100
AcDbEntity
  8
printingsheet2
 62
1
100
AcDbSpline
 70
8
 71
3
 72
8
 73
4
 74
0
 40
0
 40
0
 40
0
 40
0
 40
1
 40
1
 40
1
 40
1
 10
1151.998671
 20
466.558788
 30
0.0
 10
1118.269672
 20
470.506788
 30
0.0
 10
1087.812673
 20
490.267788
 30
0.0
 10
1053.804674
 20
519.759787
 30
0.0
  0
LWPOLYLINE
  5
18f
100
AcDbEntity
  8
printingsheet2
 62
1
100
AcDbPolyline
 90
1
 70
1
 10
111.574697
 20
778.537581
 30
0.0
  0
SPLINE
  5
190
100
AcDbEntity
  8
printingsheet2
 62
1
100
AcDbSpline
 70
8
 71
3
 72
8
 73
4
 74
0
 40
0
 40
0
 40
0
 40
0
 40
1
 40
1
 40
1
 40
1
 10
1578.859361
 20
713.114682
 30
0.0
 10
1578.281361
 20
709.242682
 30
0.0
 10
1574.676361
 20
706.572682
 30
0.0
 10
1570.804361
 20
707.152682
 30
0.0
  0
SPLINE
  5
191
100
AcDbEntity
  8
printingsheet2
 62
1
100
AcDbSpline
 70
8
 71
3
 72
8
 73
4
 74
0
 40
0
 40
0
 40
0
 40
0
 40
1
 40
1
 40
1
 40
1
 10
1570.804361
 20
707.152682
 30
0.0
 10
1566.932361
 20
707.729682
 30
0.0
 10
1564.263361
 20
711.335682
 30
0.0
 10
1564.841361
 20
715.204682
 30
0.0
  0
SPLINE
  5
192
100
AcDbEntity
  8
printingsheet2
 62
1
100
AcDbSpline
 70
8
 71
3
 72
8
 73
4
 74
0
 40
0
 40
0
 40
0
 40
0
 40
1
 40
1
 40
1
 40
1
 10
1564.841361
 20
715.204682
 30
0.0
 10
1565.419361
 20
719.075682
 30
0.0
 10
1569.025361
 20
721.746682
 30
0.0
 10
1572.895361
 20
721.169682
 30
0.0
  0
SPLINE
  5
193
100
AcDbEntity
  8
printingsheet2
 62
1
100
AcDbSpline
 70
8
 71
3
 72
8
 73
4
 74
0
 40
0
 40
0
 40
0
 40
0
 40
1
 40
1
 40
1
 40
1
 10
1572.895361
 20
721.169682
 30
0.0
 10
1576.767361
 20
720.591682
 30
0.0
 10
1579.436361
 20
716.986682
 30
0.0
 10
1578.859361
 20
713.114682
 30
0.0
  0
LWPOLYLINE
  5
194
100
AcDbEntity
  8
printingsheet2
 62
1
100
AcDbPolyline
 90
1
 70
1
 10
1053.804674
 20
519.759787
 30
0.0
  0
SPLINE
  5
195
100
AcDbEntity
  8
printingsheet2
 62
1
100
AcDbSpline
 70
8
 71
3
 72
8
 73
4
 74
0
 40
0
 40
0
 40
0
 40
0
 40
1
 40
1
 40
1
 40
1
 10
1515.777262
 20
722.525382
 30
0.0
 10
1515.199262
 20
718.653382
 30
0.0
 10
1511.594262
 20
715.984382
 30
0.0
 10
1507.722262
 20
716.562382
 30
0.0
  0
SPLINE
  5
196
100
AcDbEntity
  8
printingsheet2
 62
1
100
AcDbSpline
 70
8
 71
3
 72
8
 73
4
 74
0
 40
0
 40
0
 40
0
 40
0
 40
1
 40
1
 40
1
 40
1
 10
1507.722262
 20
716.562382
 30
0.0
 10
1503.851262
 20
717.140382
 30
0.0
 10
1501.182262
 20
720.747382
 30
0.0
 10
1501.759262
 20
724.617382
 30
0.0
  0
SPLINE
  5
197
100
AcDbEntity
  8
printingsheet2
 62
1
100
AcDbSpline
 70
8
 71
3
 72
8
 73
4
 74
0
 40
0
 40
0
 40
0
 40
0
 40
1
 40
1
 40
1
 40
1
 10
1501.759262
 20
724.617382
 30
0.0
 10
1502.339262
 20
728.488382
 30
0.0
 10
1505.943262
 20
731.157382
 30
0.0
 10
1509.813262
 20
730.580382
 30
0.0
  0
SPLINE
  5
198
100
AcDbEntity
  8
printingsheet2
 62
1
100
AcDbSpline
 70
8
 71
3
 72
8
 73
4
 74
0
 40
0
 40
0
 40
0
 40
0
 40
1
 40
1
 40
1
 40
1
 10
1509.813262
 20
730.580382
 30
0.0
 10
1513.687262
 20
730.002382
 30
0.0
 10
1516.355262
 20
726.396382
 30
0.0
 10
1515.777262
 20
722.525382
 30
0.0
  0
LWPOLYLINE
  5
199
100
AcDbEntity
  8
printingsheet2
 62
1
100
AcDbPolyline
 90
1
 70
1
 10
1578.859361
 20
713.114682
 30
0.0
  0
SPLINE
  5
19a
100
AcDbEntity
  8
printingsheet2
 62
1
100
AcDbSpline
 70
8
 71
3
 72
8
 73
4
 74
0
 40
0
 40
0
 40
0
 40
0
 40
1
 40
1
 40
1
 40
1
 10
939.603477
 20
742.705081
 30
0.0
 10
936.114477
 20
743.195081
 30
0.0
 10
933.684477
 20
746.420081
 30
0.0
 10
934.174477
 20
749.909081
 30
0.0
  0
SPLINE
  5
19b
100
AcDbEntity
  8
printingsheet2
 62
1
100
AcDbSpline
 70
8
 71
3
 72
8
 73
4
 74
0
 40
0
 40
0
 40
0
 40
0
 40
1
 40
1
 40
1
 40
1
 10
934.174477
 20
749.909081
 30
0.0
 10
934.665477
 20
753.398081
 30
0.0
 10
937.889477
 20
755.827081
 30
0.0
 10
941.378476
 20
755.337081
 30
0.0
  0
SPLINE
  5
19c
100
AcDbEntity
  8
printingsheet2
 62
1
100
AcDbSpline
 70
8
 71
3
 72
8
 73
4
 74
0
 40
0
 40
0
 40
0
 40
0
 40
1
 40
1
 40
1
 40
1
 10
941.378476
 20
755.337081
 30
0.0
 10
944.867476
 20
754.847081
 30
0.0
 10
947.296476
 20
751.623081
 30
0.0
 10
946.806476
 20
748.134081
 30
0.0
  0
SPLINE
  5
19d
100
AcDbEntity
  8
printingsheet2
 62
1
100
AcDbSpline
 70
8
 71
3
 72
8
 73
4
 74
0
 40
0
 40
0
 40
0
 40
0
 40
1
 40
1
 40
1
 40
1
 10
946.806476
 20
748.134081
 30
0.0
 10
946.316476
 20
744.645081
 30
0.0
 10
943.091476
 20
742.215081
 30
0.0
 10
939.603477
 20
742.705081
 30
0.0
  0
LWPOLYLINE
  5
19e
100
AcDbEntity
  8
printingsheet2
 62
1
100
AcDbPolyline
 90
1
 70
1
 10
1515.777262
 20
722.525382
 30
0.0
  0
SPLINE
  5
19f
100
AcDbEntity
  8
printingsheet2
 62
1
100
AcDbSpline
 70
8
 71
3
 72
8
 73
4
 74
0
 40
0
 40
0
 40
0
 40
0
 40
1
 40
1
 40
1
 40
1
 10
926.872077
 20
652.099084
 30
0.0
 10
923.383077
 20
652.589084
 30
0.0
 10
920.952077
 20
655.814084
 30
0.0
 10
921.443077
 20
659.304084
 30
0.0
  0
SPLINE
  5
1a0
100
AcDbEntity
  8
printingsheet2
 62
1
100
AcDbSpline
 70
8
 71
3
 72
8
 73
4
 74
0
 40
0
 40
0
 40
0
 40
0
 40
1
 40
1
 40
1
 40
1
 10
921.443077
 20
659.304084
 30
0.0
 10
921.934077
 20
662.792083
 30
0.0
 10
925.158077
 20
665.221083
 30
0.0
 10
928.647077
 20
664.731083
 30
0.0
  0
SPLINE
  5
1a1
100
AcDbEntity
  8
printingsheet2
 62
1
100
AcDbSpline
 70
8
 71
3
 72
8
 73
4
 74
0
 40
0
 40
0
 40
0
 40
0
 40
1
 40
1
 40
1
 40
1
 10
928.647077
 20
664.731083
 30
0.0
 10
932.135077
 20
664.241083
 30
0.0
 10
934.564077
 20
661.017083
 30
0.0
 10
934.074077
 20
657.528084
 30
0.0
  0
SPLINE
  5
1a2
100
AcDbEntity
  8
printingsheet2
 62
1
100
AcDbSpline
 70
8
 71
3
 72
8
 73
4
 74
0
 40
0
 40
0
 40
0
 40
0
 40
1
 40
1
 40
1
 40
1
 10
934.074077
 20
657.528084
 30
0.0
 10
933.584077
 20
654.039084
 30
0.0
 10
930.360077
 20
651.609084
 30
0.0
 10
926.872077
 20
652.099084
 30
0.0
  0
LWPOLYLINE
  5
1a3
100
AcDbEntity
  8
printingsheet2
 62
1
100
AcDbPolyline
 90
1
 70
1
 10
939.603477
 20
742.705081
 30
0.0
  0
SPLINE
  5
1a4
100
AcDbEntity
  8
printingsheet2
 62
1
100
AcDbSpline
 70
8
 71
3
 72
8
 73
4
 74
0
 40
0
 40
0
 40
0
 40
0
 40
1
 40
1
 40
1
 40
1
 10
1454.908164
 20
769.988281
 30
0.0
 10
1451.419164
 20
770.478281
 30
0.0
 10
1448.988164
 20
773.703281
 30
0.0
 10
1449.478164
 20
777.192281
 30
0.0
  0
SPLINE
  5
1a5
100
AcDbEntity
  8
printingsheet2
 62
1
100
AcDbSpline
 70
8
 71
3
 72
8
 73
4
 74
0
 40
0
 40
0
 40
0
 40
0
 40
1
 40
1
 40
1
 40
1
 10
1449.478164
 20
777.192281
 30
0.0
 10
1449.969164
 20
780.681280
 30
0.0
 10
1453.194164
 20
783.110280
 30
0.0
 10
1456.683164
 20
782.620280
 30
0.0
  0
SPLINE
  5
1a6
100
AcDbEntity
  8
printingsheet2
 62
1
100
AcDbSpline
 70
8
 71
3
 72
8
 73
4
 74
0
 40
0
 40
0
 40
0
 40
0
 40
1
 40
1
 40
1
 40
1
 10
1456.683164
 20
782.620280
 30
0.0
 10
1460.172163
 20
782.130280
 30
0.0
 10
1462.601163
 20
778.906281
 30
0.0
 10
1462.111163
 20
775.417281
 30
0.0
  0
SPLINE
  5
1a7
100
AcDbEntity
  8
printingsheet2
 62
1
100
AcDbSpline
 70
8
 71
3
 72
8
 73
4
 74
0
 40
0
 40
0
 40
0
 40
0
 40
1
 40
1
 40
1
 40
1
 10
1462.111163
 20
775.417281
 30
0.0
 10
1461.620163
 20
771.928281
 30
0.0
 10
1458.396164
 20
769.498281
 30
0.0
 10
1454.908164
 20
769.988281
 30
0.0
  0
LWPOLYLINE
  5
1a8
100
AcDbEntity
  8
printingsheet2
 62
1
100
AcDbPolyline
 90
1
 70
1
 10
926.872077
 20
652.099084
 30
0.0
  0
SPLINE
  5
1a9
100
AcDbEntity
  8
printingsheet2
 62
1
100
AcDbSpline
 70
8
 71
3
 72
8
 73
4
 74
0
 40
0
 40
0
 40
0
 40
0
 40
1
 40
1
 40
1
 40
1
 10
1442.176764
 20
679.384283
 30
0.0
 10
1438.687764
 20
679.874283
 30
0.0
 10
1436.257764
 20
683.099283
 30
0.0
 10
1436.747764
 20
686.589283
 30
0.0
  0
SPLINE
  5
1aa
100
AcDbEntity
  8
printingsheet2
 62
1
100
AcDbSpline
 70
8
 71
3
 72
8
 73
4
 74
0
 40
0
 40
0
 40
0
 40
0
 40
1
 40
1
 40
1
 40
1
 10
1436.747764
 20
686.589283
 30
0.0
 10
1437.238764
 20
690.077283
 30
0.0
 10
1440.462764
 20
692.506283
 30
0.0
 10
1443.950764
 20
692.015283
 30
0.0
  0
SPLINE
  5
1ab
100
AcDbEntity
  8
printingsheet2
 62
1
100
AcDbSpline
 70
8
 71
3
 72
8
 73
4
 74
0
 40
0
 40
0
 40
0
 40
0
 40
1
 40
1
 40
1
 40
1
 10
1443.950764
 20
692.015283
 30
0.0
 10
1447.439764
 20
691.526283
 30
0.0
 10
1449.868764
 20
688.302283
 30
0.0
 10
1449.378764
 20
684.813283
 30
0.0
  0
SPLINE
  5
1ac
100
AcDbEntity
  8
printingsheet2
 62
1
100
AcDbSpline
 70
8
 71
3
 72
8
 73
4
 74
0
 40
0
 40
0
 40
0
 40
0
 40
1
 40
1
 40
1
 40
1
 10
1449.378764
 20
684.813283
 30
0.0
 10
1448.888764
 20
681.324283
 30
0.0
 10
1445.664764
 20
678.894283
 30
0.0
 10
1442.176764
 20
679.384283
 30
0.0
  0
LWPOLYLINE
  5
1ad
100
AcDbEntity
  8
printingsheet2
 62
1
100
AcDbPolyline
 90
1
 70
1
 10
1454.908164
 20
769.988281
 30
0.0
  0
SPLINE
  5
1ae
100
AcDbEntity
  8
printingsheet2
 62
1
100
AcDbSpline
 70
8
 71
3
 72
8
 73
4
 74
0
 40
0
 40
0
 40
0
 40
0
 40
1
 40
1
 40
1
 40
1
 10
792.449180
 20
718.905282
 30
0.0
 10
788.961180
 20
719.395282
 30
0.0
 10
786.531180
 20
722.620282
 30
0.0
 10
787.021180
 20
726.109282
 30
0.0
  0
SPLINE
  5
1af
100
AcDbEntity
  8
printingsheet2
 62
1
100
AcDbSpline
 70
8
 71
3
 72
8
 73
4
 74
0
 40
0
 40
0
 40
0
 40
0
 40
1
 40
1
 40
1
 40
1
 10
787.021180
 20
726.109282
 30
0.0
 10
787.511180
 20
729.598282
 30
0.0
 10
790.736180
 20
732.027282
 30
0.0
 10
794.224180
 20
731.537282
 30
0.0
  0
SPLINE
  5
1b0
100
AcDbEntity
  8
printingsheet2
 62
1
100
AcDbSpline
 70
8
 71
3
 72
8
 73
4
 74
0
 40
0
 40
0
 40
0
 40
0
 40
1
 40
1
 40
1
 40
1
 10
794.224180
 20
731.537282
 30
0.0
 10
797.712180
 20
731.047282
 30
0.0
 10
800.143180
 20
727.823282
 30
0.0
 10
799.653180
 20
724.334282
 30
0.0
  0
SPLINE
  5
1b1
100
AcDbEntity
  8
printingsheet2
 62
1
100
AcDbSpline
 70
8
 71
3
 72
8
 73
4
 74
0
 40
0
 40
0
 40
0
 40
0
 40
1
 40
1
 40
1
 40
1
 10
799.653180
 20
724.334282
 30
0.0
 10
799.162180
 20
720.845282
 30
0.0
 10
795.937180
 20
718.415282
 30
0.0
 10
792.449180
 20
718.905282
 30
0.0
  0
LWPOLYLINE
  5
1b2
100
AcDbEntity
  8
printingsheet2
 62
1
100
AcDbPolyline
 90
1
 70
1
 10
1442.176764
 20
679.384283
 30
0.0
  0
SPLINE
  5
1b3
100
AcDbEntity
  8
printingsheet2
 62
1
100
AcDbSpline
 70
8
 71
3
 72
8
 73
4
 74
0
 40
0
 40
0
 40
0
 40
0
 40
1
 40
1
 40
1
 40
1
 10
1268.298768
 20
24.518599
 30
0.0
 10
1225.499769
 20
36.805599
 30
0.0
 10
1179.849771
 20
52.648599
 30
0.0
 10
1135.330772
 20
60.738598
 30
0.0
  0
SPLINE
  5
1b4
100
AcDbEntity
  8
printingsheet2
 62
1
100
AcDbSpline
 70
8
 71
3
 72
8
 73
4
 74
0
 40
0
 40
0
 40
0
 40
0
 40
1
 40
1
 40
1
 40
1
 10
1135.330772
 20
60.738598
 30
0.0
 10
1090.757773
 20
69.497598
 30
0.0
 10
1047.317774
 20
70.505598
 30
0.0
 10
1007.649775
 20
68.652598
 30
0.0
  0
SPLINE
  5
1b5
100
AcDbEntity
  8
printingsheet2
 62
1
100
AcDbSpline
 70
8
 71
3
 72
8
 73
4
 74
0
 40
0
 40
0
 40
0
 40
0
 40
1
 40
1
 40
1
 40
1
 10
1007.649775
 20
68.652598
 30
0.0
 10
967.990776
 20
66.910598
 30
0.0
 10
932.107777
 20
62.295598
 30
0.0
 10
902.906777
 20
62.276598
 30
0.0
  0
SPLINE
  5
1b6
100
AcDbEntity
  8
printingsheet2
 62
1
100
AcDbSpline
 70
8
 71
3
 72
8
 73
4
 74
0
 40
0
 40
0
 40
0
 40
0
 40
1
 40
1
 40
1
 40
1
 10
902.906777
 20
62.276598
 30
0.0
 10
873.783778
 20
61.800598
 30
0.0
 10
851.343779
 20
65.918598
 30
0.0
 10
840.370779
 20
71.127598
 30
0.0
  0
SPLINE
  5
1b7
100
AcDbEntity
  8
printingsheet2
 62
1
100
AcDbSpline
 70
8
 71
3
 72
8
 73
4
 74
0
 40
0
 40
0
 40
0
 40
0
 40
1
 40
1
 40
1
 40
1
 10
840.370779
 20
71.127598
 30
0.0
 10
829.264779
 20
76.770598
 30
0.0
 10
831.581779
 20
81.305598
 30
0.0
 10
845.993779
 20
85.612598
 30
0.0
  0
SPLINE
  5
1b8
100
AcDbEntity
  8
printingsheet2
 62
1
100
AcDbSpline
 70
8
 71
3
 72
8
 73
4
 74
0
 40
0
 40
0
 40
0
 40
0
 40
1
 40
1
 40
1
 40
1
 10
845.993779
 20
85.612598
 30
0.0
 10
860.326778
 20
90.379598
 30
0.0
 10
886.756778
 20
94.921598
 30
0.0
 10
922.027777
 20
111.274597
 30
0.0
  0
SPLINE
  5
1b9
100
AcDbEntity
  8
printingsheet2
 62
1
100
AcDbSpline
 70
8
 71
3
 72
8
 73
4
 74
0
 40
0
 40
0
 40
0
 40
0
 40
1
 40
1
 40
1
 40
1
 10
922.027777
 20
111.274597
 30
0.0
 10
957.336776
 20
127.362597
 30
0.0
 10
1001.489775
 20
155.247596
 30
0.0
 10
1052.165774
 20
200.447595
 30
0.0
  0
SPLINE
  5
1ba
100
AcDbEntity
  8
printingsheet2
 62
1
100
AcDbSpline
 70
8
 71
3
 72
8
 73
4
 74
0
 40
0
 40
0
 40
0
 40
0
 40
1
 40
1
 40
1
 40
1
 10
1052.165774
 20
200.447595
 30
0.0
 10
1102.998772
 20
244.644594
 30
0.0
 10
1160.352771
 20
306.155592
 30
0.0
 10
1225.682769
 20
366.360591
 30
0.0
  0
SPLINE
  5
1bb
100
AcDbEntity
  8
printingsheet2
 62
1
100
AcDbSpline
 70
8
 71
3
 72
8
 73
4
 74
0
 40
0
 40
0
 40
0
 40
0
 40
1
 40
1
 40
1
 40
1
 10
1225.682769
 20
366.360591
 30
0.0
 10
1290.525768
 20
426.635589
 30
0.0
 10
1357.575766
 20
477.346588
 30
0.0
 10
1420.692764
 20
502.761587
 30
0.0
  0
SPLINE
  5
1bc
100
AcDbEntity
  8
printingsheet2
 62
1
100
AcDbSpline
 70
8
 71
3
 72
8
 73
4
 74
0
 40
0
 40
0
 40
0
 40
0
 40
1
 40
1
 40
1
 40
1
 10
1420.692764
 20
502.761587
 30
0.0
 10
1483.640763
 20
529.182587
 30
0.0
 10
1542.656761
 20
530.308587
 30
0.0
 10
1587.540760
 20
514.628587
 30
0.0
  0
SPLINE
  5
1bd
100
AcDbEntity
  8
printingsheet2
 62
1
100
AcDbSpline
 70
8
 71
3
 72
8
 73
4
 74
0
 40
0
 40
0
 40
0
 40
0
 40
1
 40
1
 40
1
 40
1
 10
1587.540760
 20
514.628587
 30
0.0
 10
1632.593759
 20
499.193588
 30
0.0
 10
1663.521758
 20
466.937588
 30
0.0
 10
1674.252758
 20
432.082589
 30
0.0
  0
SPLINE
  5
1be
100
AcDbEntity
  8
printingsheet2
 62
1
100
AcDbSpline
 70
8
 71
3
 72
8
 73
4
 74
0
 40
0
 40
0
 40
0
 40
0
 40
1
 40
1
 40
1
 40
1
 10
1674.252758
 20
432.082589
 30
0.0
 10
1685.493758
 20
396.705590
 30
0.0
 10
1676.539758
 20
358.728591
 30
0.0
 10
1653.608759
 20
319.750592
 30
0.0
  0
SPLINE
  5
1bf
100
AcDbEntity
  8
printingsheet2
 62
1
100
AcDbSpline
 70
8
 71
3
 72
8
 73
4
 74
0
 40
0
 40
0
 40
0
 40
0
 40
1
 40
1
 40
1
 40
1
 10
1653.608759
 20
319.750592
 30
0.0
 10
1630.810759
 20
280.338593
 30
0.0
 10
1597.098760
 20
241.951594
 30
0.0
 10
1564.809761
 20
201.773595
 30
0.0
  0
SPLINE
  5
1c0
100
AcDbEntity
  8
printingsheet2
 62
1
100
AcDbSpline
 70
8
 71
3
 72
8
 73
4
 74
0
 40
0
 40
0
 40
0
 40
0
 40
1
 40
1
 40
1
 40
1
 10
1564.809761
 20
201.773595
 30
0.0
 10
1532.012762
 20
162.115596
 30
0.0
 10
1500.639762
 20
120.666597
 30
0.0
 10
1470.766763
 20
87.127598
 30
0.0
  0
SPLINE
  5
1c1
100
AcDbEntity
  8
printingsheet2
 62
1
100
AcDbSpline
 70
8
 71
3
 72
8
 73
4
 74
0
 40
0
 40
0
 40
0
 40
0
 40
1
 40
1
 40
1
 40
1
 10
1470.766763
 20
87.127598
 30
0.0
 10
1440.671764
 20
53.514599
 30
0.0
 10
1412.081765
 20
27.798599
 30
0.0
 10
1379.776766
 20
17.798600
 30
0.0
  0
SPLINE
  5
1c2
100
AcDbEntity
  8
printingsheet2
 62
1
100
AcDbSpline
 70
8
 71
3
 72
8
 73
4
 74
0
 40
0
 40
0
 40
0
 40
0
 40
1
 40
1
 40
1
 40
1
 10
1379.776766
 20
17.798600
 30
0.0
 10
1347.537766
 20
7.122600
 30
0.0
 10
1311.583767
 20
12.161600
 30
0.0
 10
1268.298768
 20
24.518599
 30
0.0
  0
LWPOLYLINE
  5
1c3
100
AcDbEntity
  8
printingsheet2
 62
1
100
AcDbPolyline
 90
1
 70
1
 10
792.449180
 20
718.905282
 30
0.0
  0
SPLINE
  5
1c4
100
AcDbEntity
  8
printingsheet2
 62
1
100
AcDbSpline
 70
8
 71
3
 72
8
 73
4
 74
0
 40
0
 40
0
 40
0
 40
0
 40
1
 40
1
 40
1
 40
1
 10
1662.456958
 20
421.643589
 30
0.0
 10
1663.568958
 20
417.890590
 30
0.0
 10
1661.430958
 20
413.946590
 30
0.0
 10
1657.676959
 20
412.834590
 30
0.0
  0
SPLINE
  5
1c5
100
AcDbEntity
  8
printingsheet2
 62
1
100
AcDbSpline
 70
8
 71
3
 72
8
 73
4
 74
0
 40
0
 40
0
 40
0
 40
0
 40
1
 40
1
 40
1
 40
1
 10
1657.676959
 20
412.834590
 30
0.0
 10
1653.923959
 20
411.722590
 30
0.0
 10
1649.979959
 20
413.862590
 30
0.0
 10
1648.868959
 20
417.613590
 30
0.0
  0
SPLINE
  5
1c6
100
AcDbEntity
  8
printingsheet2
 62
1
100
AcDbSpline
 70
8
 71
3
 72
8
 73
4
 74
0
 40
0
 40
0
 40
0
 40
0
 40
1
 40
1
 40
1
 40
1
 10
1648.868959
 20
417.613590
 30
0.0
 10
1647.756959
 20
421.366589
 30
0.0
 10
1649.895959
 20
425.310589
 30
0.0
 10
1653.647959
 20
426.422589
 30
0.0
  0
SPLINE
  5
1c7
100
AcDbEntity
  8
printingsheet2
 62
1
100
AcDbSpline
 70
8
 71
3
 72
8
 73
4
 74
0
 40
0
 40
0
 40
0
 40
0
 40
1
 40
1
 40
1
 40
1
 10
1653.647959
 20
426.422589
 30
0.0
 10
1657.401959
 20
427.536589
 30
0.0
 10
1661.343958
 20
425.395589
 30
0.0
 10
1662.456958
 20
421.643589
 30
0.0
  0
LWPOLYLINE
  5
1c8
100
AcDbEntity
  8
printingsheet2
 62
1
100
AcDbPolyline
 90
1
 70
1
 10
1268.298768
 20
24.518599
 30
0.0
  0
SPLINE
  5
1c9
100
AcDbEntity
  8
printingsheet2
 62
1
100
AcDbSpline
 70
8
 71
3
 72
8
 73
4
 74
0
 40
0
 40
0
 40
0
 40
0
 40
1
 40
1
 40
1
 40
1
 10
1601.307560
 20
403.514590
 30
0.0
 10
1602.420560
 20
399.761590
 30
0.0
 10
1600.281560
 20
395.819590
 30
0.0
 10
1596.527560
 20
394.706590
 30
0.0
  0
SPLINE
  5
1ca
100
AcDbEntity
  8
printingsheet2
 62
1
100
AcDbSpline
 70
8
 71
3
 72
8
 73
4
 74
0
 40
0
 40
0
 40
0
 40
0
 40
1
 40
1
 40
1
 40
1
 10
1596.527560
 20
394.706590
 30
0.0
 10
1592.775560
 20
393.593590
 30
0.0
 10
1588.831560
 20
395.736590
 30
0.0
 10
1587.719560
 20
399.486590
 30
0.0
  0
SPLINE
  5
1cb
100
AcDbEntity
  8
printingsheet2
 62
1
100
AcDbSpline
 70
8
 71
3
 72
8
 73
4
 74
0
 40
0
 40
0
 40
0
 40
0
 40
1
 40
1
 40
1
 40
1
 10
1587.719560
 20
399.486590
 30
0.0
 10
1586.608560
 20
403.240590
 30
0.0
 10
1588.746560
 20
407.181590
 30
0.0
 10
1592.497560
 20
408.293590
 30
0.0
  0
SPLINE
  5
1cc
100
AcDbEntity
  8
printingsheet2
 62
1
100
AcDbSpline
 70
8
 71
3
 72
8
 73
4
 74
0
 40
0
 40
0
 40
0
 40
0
 40
1
 40
1
 40
1
 40
1
 10
1592.497560
 20
408.293590
 30
0.0
 10
1596.254560
 20
409.408590
 30
0.0
 10
1600.195560
 20
407.267590
 30
0.0
 10
1601.307560
 20
403.514590
 30
0.0
  0
LWPOLYLINE
  5
1cd
100
AcDbEntity
  8
printingsheet2
 62
1
100
AcDbPolyline
 90
1
 70
1
 10
1662.456958
 20
421.643589
 30
0.0
  0
SPLINE
  5
1ce
100
AcDbEntity
  8
printingsheet2
 62
1
100
AcDbSpline
 70
8
 71
3
 72
8
 73
4
 74
0
 40
0
 40
0
 40
0
 40
0
 40
1
 40
1
 40
1
 40
1
 10
1070.581973
 20
178.319296
 30
0.0
 10
1067.212973
 20
177.289296
 30
0.0
 10
1063.645973
 20
179.184296
 30
0.0
 10
1062.616973
 20
182.554295
 30
0.0
  0
SPLINE
  5
1cf
100
AcDbEntity
  8
printingsheet2
 62
1
100
AcDbSpline
 70
8
 71
3
 72
8
 73
4
 74
0
 40
0
 40
0
 40
0
 40
0
 40
1
 40
1
 40
1
 40
1
 10
1062.616973
 20
182.554295
 30
0.0
 10
1061.586973
 20
185.923295
 30
0.0
 10
1063.482973
 20
189.487295
 30
0.0
 10
1066.852973
 20
190.517295
 30
0.0
  0
SPLINE
  5
1d0
100
AcDbEntity
  8
printingsheet2
 62
1
100
AcDbSpline
 70
8
 71
3
 72
8
 73
4
 74
0
 40
0
 40
0
 40
0
 40
0
 40
1
 40
1
 40
1
 40
1
 10
1066.852973
 20
190.517295
 30
0.0
 10
1070.220973
 20
191.548295
 30
0.0
 10
1073.784973
 20
189.653295
 30
0.0
 10
1074.814973
 20
186.283295
 30
0.0
  0
SPLINE
  5
1d1
100
AcDbEntity
  8
printingsheet2
 62
1
100
AcDbSpline
 70
8
 71
3
 72
8
 73
4
 74
0
 40
0
 40
0
 40
0
 40
0
 40
1
 40
1
 40
1
 40
1
 10
1074.814973
 20
186.283295
 30
0.0
 10
1075.845973
 20
182.914295
 30
0.0
 10
1073.949973
 20
179.349296
 30
0.0
 10
1070.581973
 20
178.319296
 30
0.0
  0
LWPOLYLINE
  5
1d2
100
AcDbEntity
  8
printingsheet2
 62
1
100
AcDbPolyline
 90
1
 70
1
 10
1601.307560
 20
403.514590
 30
0.0
  0
SPLINE
  5
1d3
100
AcDbEntity
  8
printingsheet2
 62
1
100
AcDbSpline
 70
8
 71
3
 72
8
 73
4
 74
0
 40
0
 40
0
 40
0
 40
0
 40
1
 40
1
 40
1
 40
1
 10
1097.331973
 20
90.820298
 30
0.0
 10
1093.962973
 20
89.791298
 30
0.0
 10
1090.395973
 20
91.686298
 30
0.0
 10
1089.366973
 20
95.055298
 30
0.0
  0
SPLINE
  5
1d4
100
AcDbEntity
  8
printingsheet2
 62
1
100
AcDbSpline
 70
8
 71
3
 72
8
 73
4
 74
0
 40
0
 40
0
 40
0
 40
0
 40
1
 40
1
 40
1
 40
1
 10
1089.366973
 20
95.055298
 30
0.0
 10
1088.336973
 20
98.425298
 30
0.0
 10
1090.232973
 20
101.989297
 30
0.0
 10
1093.602973
 20
103.019297
 30
0.0
  0
SPLINE
  5
1d5
100
AcDbEntity
  8
printingsheet2
 62
1
100
AcDbSpline
 70
8
 71
3
 72
8
 73
4
 74
0
 40
0
 40
0
 40
0
 40
0
 40
1
 40
1
 40
1
 40
1
 10
1093.602973
 20
103.019297
 30
0.0
 10
1096.970973
 20
104.049297
 30
0.0
 10
1100.534972
 20
102.154297
 30
0.0
 10
1101.564972
 20
98.785298
 30
0.0
  0
SPLINE
  5
1d6
100
AcDbEntity
  8
printingsheet2
 62
1
100
AcDbSpline
 70
8
 71
3
 72
8
 73
4
 74
0
 40
0
 40
0
 40
0
 40
0
 40
1
 40
1
 40
1
 40
1
 10
1101.564972
 20
98.785298
 30
0.0
 10
1102.595972
 20
95.416298
 30
0.0
 10
1100.699972
 20
91.850298
 30
0.0
 10
1097.331973
 20
90.820298
 30
0.0
  0
LWPOLYLINE
  5
1d7
100
AcDbEntity
  8
printingsheet2
 62
1
100
AcDbPolyline
 90
1
 70
1
 10
1070.581973
 20
178.319296
 30
0.0
  0
SPLINE
  5
1d8
100
AcDbEntity
  8
printingsheet2
 62
1
100
AcDbSpline
 70
8
 71
3
 72
8
 73
4
 74
0
 40
0
 40
0
 40
0
 40
0
 40
1
 40
1
 40
1
 40
1
 10
1526.082962
 20
420.808589
 30
0.0
 10
1522.714962
 20
419.778590
 30
0.0
 10
1519.148962
 20
421.673589
 30
0.0
 10
1518.118962
 20
425.043589
 30
0.0
  0
SPLINE
  5
1d9
100
AcDbEntity
  8
printingsheet2
 62
1
100
AcDbSpline
 70
8
 71
3
 72
8
 73
4
 74
0
 40
0
 40
0
 40
0
 40
0
 40
1
 40
1
 40
1
 40
1
 10
1518.118962
 20
425.043589
 30
0.0
 10
1517.088962
 20
428.412589
 30
0.0
 10
1518.984962
 20
431.976589
 30
0.0
 10
1522.353962
 20
433.006589
 30
0.0
  0
SPLINE
  5
1da
100
AcDbEntity
  8
printingsheet2
 62
1
100
AcDbSpline
 70
8
 71
3
 72
8
 73
4
 74
0
 40
0
 40
0
 40
0
 40
0
 40
1
 40
1
 40
1
 40
1
 10
1522.353962
 20
433.006589
 30
0.0
 10
1525.723962
 20
434.037589
 30
0.0
 10
1529.285962
 20
432.142589
 30
0.0
 10
1530.315962
 20
428.773589
 30
0.0
  0
SPLINE
  5
1db
100
AcDbEntity
  8
printingsheet2
 62
1
100
AcDbSpline
 70
8
 71
3
 72
8
 73
4
 74
0
 40
0
 40
0
 40
0
 40
0
 40
1
 40
1
 40
1
 40
1
 10
1530.315962
 20
428.773589
 30
0.0
 10
1531.346962
 20
425.403589
 30
0.0
 10
1529.452962
 20
421.837589
 30
0.0
 10
1526.082962
 20
420.808589
 30
0.0
  0
LWPOLYLINE
  5
1dc
100
AcDbEntity
  8
printingsheet2
 62
1
100
AcDbPolyline
 90
1
 70
1
 10
1097.331973
 20
90.820298
 30
0.0
  0
SPLINE
  5
1dd
100
AcDbEntity
  8
printingsheet2
 62
1
100
AcDbSpline
 70
8
 71
3
 72
8
 73
4
 74
0
 40
0
 40
0
 40
0
 40
0
 40
1
 40
1
 40
1
 40
1
 10
1552.832961
 20
333.311492
 30
0.0
 10
1549.463961
 20
332.282492
 30
0.0
 10
1545.897961
 20
334.177492
 30
0.0
 10
1544.867961
 20
337.546492
 30
0.0
  0
SPLINE
  5
1de
100
AcDbEntity
  8
printingsheet2
 62
1
100
AcDbSpline
 70
8
 71
3
 72
8
 73
4
 74
0
 40
0
 40
0
 40
0
 40
0
 40
1
 40
1
 40
1
 40
1
 10
1544.867961
 20
337.546492
 30
0.0
 10
1543.837961
 20
340.916491
 30
0.0
 10
1545.733961
 20
344.480491
 30
0.0
 10
1549.103961
 20
345.510491
 30
0.0
  0
SPLINE
  5
1df
100
AcDbEntity
  8
printingsheet2
 62
1
100
AcDbSpline
 70
8
 71
3
 72
8
 73
4
 74
0
 40
0
 40
0
 40
0
 40
0
 40
1
 40
1
 40
1
 40
1
 10
1549.103961
 20
345.510491
 30
0.0
 10
1552.472961
 20
346.540491
 30
0.0
 10
1556.035961
 20
344.645491
 30
0.0
 10
1557.065961
 20
341.276491
 30
0.0
  0
SPLINE
  5
1e0
100
AcDbEntity
  8
printingsheet2
 62
1
100
AcDbSpline
 70
8
 71
3
 72
8
 73
4
 74
0
 40
0
 40
0
 40
0
 40
0
 40
1
 40
1
 40
1
 40
1
 10
1557.065961
 20
341.276491
 30
0.0
 10
1558.095961
 20
337.907492
 30
0.0
 10
1556.201961
 20
334.341492
 30
0.0
 10
1552.832961
 20
333.311492
 30
0.0
  0
LWPOLYLINE
  5
1e1
100
AcDbEntity
  8
printingsheet2
 62
1
100
AcDbPolyline
 90
1
 70
1
 10
1526.082962
 20
420.808589
 30
0.0
  0
SPLINE
  5
1e2
100
AcDbEntity
  8
printingsheet2
 62
1
100
AcDbSpline
 70
8
 71
3
 72
8
 73
4
 74
0
 40
0
 40
0
 40
0
 40
0
 40
1
 40
1
 40
1
 40
1
 10
947.269476
 20
94.562498
 30
0.0
 10
943.901476
 20
93.533498
 30
0.0
 10
940.335476
 20
95.428498
 30
0.0
 10
939.305477
 20
98.798498
 30
0.0
  0
SPLINE
  5
1e3
100
AcDbEntity
  8
printingsheet2
 62
1
100
AcDbSpline
 70
8
 71
3
 72
8
 73
4
 74
0
 40
0
 40
0
 40
0
 40
0
 40
1
 40
1
 40
1
 40
1
 10
939.305477
 20
98.798498
 30
0.0
 10
938.275477
 20
102.167497
 30
0.0
 10
940.171476
 20
105.731497
 30
0.0
 10
943.540476
 20
106.761497
 30
0.0
  0
SPLINE
  5
1e4
100
AcDbEntity
  8
printingsheet2
 62
1
100
AcDbSpline
 70
8
 71
3
 72
8
 73
4
 74
0
 40
0
 40
0
 40
0
 40
0
 40
1
 40
1
 40
1
 40
1
 10
943.540476
 20
106.761497
 30
0.0
 10
946.909476
 20
107.791497
 30
0.0
 10
950.474476
 20
105.897497
 30
0.0
 10
951.503476
 20
102.527497
 30
0.0
  0
SPLINE
  5
1e5
100
AcDbEntity
  8
printingsheet2
 62
1
100
AcDbSpline
 70
8
 71
3
 72
8
 73
4
 74
0
 40
0
 40
0
 40
0
 40
0
 40
1
 40
1
 40
1
 40
1
 10
951.503476
 20
102.527497
 30
0.0
 10
952.534476
 20
99.158498
 30
0.0
 10
950.638476
 20
95.592498
 30
0.0
 10
947.269476
 20
94.562498
 30
0.0
  0
LWPOLYLINE
  5
1e6
100
AcDbEntity
  8
printingsheet2
 62
1
100
AcDbPolyline
 90
1
 70
1
 10
1552.832961
 20
333.311492
 30
0.0
  0
LWPOLYLINE
  5
1e7
100
AcDbEntity
  8
printingsheet2
 62
1
100
AcDbPolyline
 90
1
 70
1
 10
947.269476
 20
94.562498
 30
0.0
  0
SPLINE
  5
1e8
100
AcDbEntity
  8
printingsheet2
 62
1
100
AcDbSpline
 70
8
 71
3
 72
8
 73
4
 74
0
 40
0
 40
0
 40
0
 40
0
 40
1
 40
1
 40
1
 40
1
 10
370.153291
 20
1207.432070
 30
0.0
 10
370.153291
 20
1203.518070
 30
0.0
 10
366.980291
 20
1200.345070
 30
0.0
 10
363.066291
 20
1200.345070
 30
0.0
  0
SPLINE
  5
1e9
100
AcDbEntity
  8
printingsheet2
 62
1
100
AcDbSpline
 70
8
 71
3
 72
8
 73
4
 74
0
 40
0
 40
0
 40
0
 40
0
 40
1
 40
1
 40
1
 40
1
 10
363.066291
 20
1200.345070
 30
0.0
 10
359.151291
 20
1200.345070
 30
0.0
 10
355.979291
 20
1203.518070
 30
0.0
 10
355.979291
 20
1207.432070
 30
0.0
  0
SPLINE
  5
1ea
100
AcDbEntity
  8
printingsheet2
 62
1
100
AcDbSpline
 70
8
 71
3
 72
8
 73
4
 74
0
 40
0
 40
0
 40
0
 40
0
 40
1
 40
1
 40
1
 40
1
 10
355.979291
 20
1207.432070
 30
0.0
 10
355.979291
 20
1211.346070
 30
0.0
 10
359.151291
 20
1214.519070
 30
0.0
 10
363.066291
 20
1214.519070
 30
0.0
  0
SPLINE
  5
1eb
100
AcDbEntity
  8
printingsheet2
 62
1
100
AcDbSpline
 70
8
 71
3
 72
8
 73
4
 74
0
 40
0
 40
0
 40
0
 40
0
 40
1
 40
1
 40
1
 40
1
 10
363.066291
 20
1214.519070
 30
0.0
 10
366.980291
 20
1214.519070
 30
0.0
 10
370.153291
 20
1211.346070
 30
0.0
 10
370.153291
 20
1207.432070
 30
0.0
  0
LWPOLYLINE
  5
1ec
100
AcDbEntity
  8
printingsheet2
 62
1
100
AcDbPolyline
 90
12
 70
1
 10
384.326190
 20
1266.673268
 30
0.0
 10
370.153191
 20
1266.673268
 30
0.0
 10
370.153191
 20
1252.500269
 30
0.0
 10
355.979191
 20
1252.500269
 30
0.0
 10
355.979191
 20
1266.673268
 30
0.0
 10
341.808191
 20
1266.673268
 30
0.0
 10
341.808191
 20
1252.500269
 30
0.0
 10
327.635192
 20
1252.500269
 30
0.0
 10
327.635192
 20
1183.338270
 30
0.0
 10
398.500190
 20
1183.338270
 30
0.0
 10
398.500190
 20
1252.500269
 30
0.0
 10
384.326190
 20
1252.500269
 30
0.0
  0
LWPOLYLINE
  5
1ed
100
AcDbEntity
  8
printingsheet2
 62
1
100
AcDbPolyline
 90
1
 70
1
 10
370.153291
 20
1207.432070
 30
0.0
  0
SPLINE
  5
1ee
100
AcDbEntity
  8
printingsheet2
 62
1
100
AcDbSpline
 70
8
 71
3
 72
8
 73
4
 74
0
 40
0
 40
0
 40
0
 40
0
 40
1
 40
1
 40
1
 40
1
 10
444.657189
 20
1207.432070
 30
0.0
 10
444.657189
 20
1203.518070
 30
0.0
 10
441.484189
 20
1200.345070
 30
0.0
 10
437.570189
 20
1200.345070
 30
0.0
  0
SPLINE
  5
1ef
100
AcDbEntity
  8
printingsheet2
 62
1
100
AcDbSpline
 70
8
 71
3
 72
8
 73
4
 74
0
 40
0
 40
0
 40
0
 40
0
 40
1
 40
1
 40
1
 40
1
 10
437.570189
 20
1200.345070
 30
0.0
 10
433.655189
 20
1200.345070
 30
0.0
 10
430.483189
 20
1203.518070
 30
0.0
 10
430.483189
 20
1207.432070
 30
0.0
  0
SPLINE
  5
1f0
100
AcDbEntity
  8
printingsheet2
 62
1
100
AcDbSpline
 70
8
 71
3
 72
8
 73
4
 74
0
 40
0
 40
0
 40
0
 40
0
 40
1
 40
1
 40
1
 40
1
 10
430.483189
 20
1207.432070
 30
0.0
 10
430.483189
 20
1211.346070
 30
0.0
 10
433.655189
 20
1214.519070
 30
0.0
 10
437.570189
 20
1214.519070
 30
0.0
  0
SPLINE
  5
1f1
100
AcDbEntity
  8
printingsheet2
 62
1
100
AcDbSpline
 70
8
 71
3
 72
8
 73
4
 74
0
 40
0
 40
0
 40
0
 40
0
 40
1
 40
1
 40
1
 40
1
 10
437.570189
 20
1214.519070
 30
0.0
 10
441.484189
 20
1214.519070
 30
0.0
 10
444.657189
 20
1211.346070
 30
0.0
 10
444.657189
 20
1207.432070
 30
0.0
  0
LWPOLYLINE
  5
1f2
100
AcDbEntity
  8
printingsheet2
 62
1
100
AcDbPolyline
 90
12
 70
1
 10
458.830089
 20
1266.673268
 30
0.0
 10
444.657089
 20
1266.673268
 30
0.0
 10
444.657089
 20
1252.500269
 30
0.0
 10
430.483089
 20
1252.500269
 30
0.0
 10
430.483089
 20
1266.673268
 30
0.0
 10
416.312090
 20
1266.673268
 30
0.0
 10
416.312090
 20
1252.500269
 30
0.0
 10
402.139090
 20
1252.500269
 30
0.0
 10
402.139090
 20
1183.338270
 30
0.0
 10
473.004088
 20
1183.338270
 30
0.0
 10
473.004088
 20
1252.500269
 30
0.0
 10
458.830089
 20
1252.500269
 30
0.0
  0
LWPOLYLINE
  5
1f3
100
AcDbEntity
  8
printingsheet2
 62
1
100
AcDbPolyline
 90
1
 70
1
 10
444.657189
 20
1207.432070
 30
0.0
  0
LWPOLYLINE
  5
1f4
100
AcDbEntity
  8
printingsheet2
 62
1
100
AcDbPolyline
 90
4
 70
1
 10
217.192995
 20
1034.704974
 30
0.0
 10
183.176995
 20
1034.704974
 30
0.0
 10
183.176995
 20
1042.357974
 30
0.0
 10
217.192995
 20
1042.357974
 30
0.0
  0
LWPOLYLINE
  5
1f5
100
AcDbEntity
  8
printingsheet2
 62
1
100
AcDbPolyline
 90
20
 70
1
 10
221.019994
 20
1081.050973
 30
0.0
 10
221.019994
 20
1066.876973
 30
0.0
 10
208.547995
 20
1066.876973
 30
0.0
 10
208.547995
 20
1081.050973
 30
0.0
 10
192.673995
 20
1081.050973
 30
0.0
 10
192.673995
 20
1066.876973
 30
0.0
 10
180.201995
 20
1066.876973
 30
0.0
 10
180.201995
 20
1081.050973
 30
0.0
 10
164.752996
 20
1081.050973
 30
0.0
 10
164.752996
 20
996.010975
 30
0.0
 10
180.201995
 20
996.010975
 30
0.0
 10
180.201995
 20
1010.184975
 30
0.0
 10
192.673995
 20
1010.184975
 30
0.0
 10
192.673995
 20
996.010975
 30
0.0
 10
208.547995
 20
996.010975
 30
0.0
 10
208.547995
 20
1010.184975
 30
0.0
 10
221.019994
 20
1010.184975
 30
0.0
 10
221.019994
 20
996.010975
 30
0.0
 10
235.617994
 20
996.010975
 30
0.0
 10
235.617994
 20
1081.050973
 30
0.0
  0
SPLINE
  5
1f6
100
AcDbEntity
  8
printingsheet2
 62
1
100
AcDbSpline
 70
8
 71
3
 72
8
 73
4
 74
0
 40
0
 40
0
 40
0
 40
0
 40
1
 40
1
 40
1
 40
1
 10
337.707992
 20
1024.562474
 30
0.0
 10
337.707992
 20
1021.039474
 30
0.0
 10
334.852992
 20
1018.183475
 30
0.0
 10
331.328992
 20
1018.183475
 30
0.0
  0
SPLINE
  5
1f7
100
AcDbEntity
  8
printingsheet2
 62
1
100
AcDbSpline
 70
8
 71
3
 72
8
 73
4
 74
0
 40
0
 40
0
 40
0
 40
0
 40
1
 40
1
 40
1
 40
1
 10
331.328992
 20
1018.183475
 30
0.0
 10
327.805992
 20
1018.183475
 30
0.0
 10
324.951992
 20
1021.039474
 30
0.0
 10
324.951992
 20
1024.562474
 30
0.0
  0
SPLINE
  5
1f8
100
AcDbEntity
  8
printingsheet2
 62
1
100
AcDbSpline
 70
8
 71
3
 72
8
 73
4
 74
0
 40
0
 40
0
 40
0
 40
0
 40
1
 40
1
 40
1
 40
1
 10
324.951992
 20
1024.562474
 30
0.0
 10
324.951992
 20
1028.085474
 30
0.0
 10
327.805992
 20
1030.939474
 30
0.0
 10
331.328992
 20
1030.939474
 30
0.0
  0
SPLINE
  5
1f9
100
AcDbEntity
  8
printingsheet2
 62
1
100
AcDbSpline
 70
8
 71
3
 72
8
 73
4
 74
0
 40
0
 40
0
 40
0
 40
0
 40
1
 40
1
 40
1
 40
1
 10
331.328992
 20
1030.939474
 30
0.0
 10
334.852992
 20
1030.939474
 30
0.0
 10
337.707992
 20
1028.085474
 30
0.0
 10
337.707992
 20
1024.562474
 30
0.0
  0
LWPOLYLINE
  5
1fa
100
AcDbEntity
  8
printingsheet2
 62
1
100
AcDbPolyline
 90
6
 70
1
 10
337.563492
 20
1010.388675
 30
0.0
 10
323.390492
 20
1011.480675
 30
0.0
 10
317.157492
 20
1025.654674
 30
0.0
 10
325.095492
 20
1038.734674
 30
0.0
 10
339.269492
 20
1037.642674
 30
0.0
 10
345.503491
 20
1023.470674
 30
0.0
  0
LWPOLYLINE
  5
1fb
100
AcDbEntity
  8
printingsheet2
 62
1
100
AcDbPolyline
 90
1
 70
1
 10
337.707992
 20
1024.562474
 30
0.0
  0
SPLINE
  5
1fc
100
AcDbEntity
  8
printingsheet2
 62
1
100
AcDbSpline
 70
8
 71
3
 72
8
 73
4
 74
0
 40
0
 40
0
 40
0
 40
0
 40
1
 40
1
 40
1
 40
1
 10
431.455589
 20
1054.072774
 30
0.0
 10
431.455589
 20
1050.549774
 30
0.0
 10
428.600589
 20
1047.693774
 30
0.0
 10
425.076589
 20
1047.693774
 30
0.0
  0
SPLINE
  5
1fd
100
AcDbEntity
  8
printingsheet2
 62
1
100
AcDbSpline
 70
8
 71
3
 72
8
 73
4
 74
0
 40
0
 40
0
 40
0
 40
0
 40
1
 40
1
 40
1
 40
1
 10
425.076589
 20
1047.693774
 30
0.0
 10
421.553589
 20
1047.693774
 30
0.0
 10
418.699590
 20
1050.549774
 30
0.0
 10
418.699590
 20
1054.072774
 30
0.0
  0
SPLINE
  5
1fe
100
AcDbEntity
  8
printingsheet2
 62
1
100
AcDbSpline
 70
8
 71
3
 72
8
 73
4
 74
0
 40
0
 40
0
 40
0
 40
0
 40
1
 40
1
 40
1
 40
1
 10
418.699590
 20
1054.072774
 30
0.0
 10
418.699590
 20
1057.593774
 30
0.0
 10
421.553589
 20
1060.449773
 30
0.0
 10
425.076589
 20
1060.449773
 30
0.0
  0
SPLINE
  5
1ff
100
AcDbEntity
  8
printingsheet2
 62
1
100
AcDbSpline
 70
8
 71
3
 72
8
 73
4
 74
0
 40
0
 40
0
 40
0
 40
0
 40
1
 40
1
 40
1
 40
1
 10
425.076589
 20
1060.449773
 30
0.0
 10
428.600589
 20
1060.449773
 30
0.0
 10
431.455589
 20
1057.593774
 30
0.0
 10
431.455589
 20
1054.072774
 30
0.0
  0
LWPOLYLINE
  5
200
100
AcDbEntity
  8
printingsheet2
 62
1
100
AcDbPolyline
 90
6
 70
1
 10
431.310989
 20
1039.898874
 30
0.0
 10
417.137990
 20
1040.990874
 30
0.0
 10
410.904990
 20
1055.164874
 30
0.0
 10
418.842990
 20
1068.244873
 30
0.0
 10
433.015989
 20
1067.152873
 30
0.0
 10
439.249989
 20
1052.980874
 30
0.0
  0
SPLINE
  5
201
100
AcDbEntity
  8
printingsheet2
 62
1
100
AcDbSpline
 70
8
 71
3
 72
8
 73
4
 74
0
 40
0
 40
0
 40
0
 40
0
 40
1
 40
1
 40
1
 40
1
 10
431.455589
 20
1054.072774
 30
0.0
 10
431.455589
 20
1050.549774
 30
0.0
 10
428.600589
 20
1047.693774
 30
0.0
 10
425.076589
 20
1047.693774
 30
0.0
  0
SPLINE
  5
202
100
AcDbEntity
  8
printingsheet2
 62
1
100
AcDbSpline
 70
8
 71
3
 72
8
 73
4
 74
0
 40
0
 40
0
 40
0
 40
0
 40
1
 40
1
 40
1
 40
1
 10
425.076589
 20
1047.693774
 30
0.0
 10
421.553589
 20
1047.693774
 30
0.0
 10
418.699590
 20
1050.549774
 30
0.0
 10
418.699590
 20
1054.072774
 30
0.0
  0
SPLINE
  5
203
100
AcDbEntity
  8
printingsheet2
 62
1
100
AcDbSpline
 70
8
 71
3
 72
8
 73
4
 74
0
 40
0
 40
0
 40
0
 40
0
 40
1
 40
1
 40
1
 40
1
 10
418.699590
 20
1054.072774
 30
0.0
 10
418.699590
 20
1057.595774
 30
0.0
 10
421.553589
 20
1060.449773
 30
0.0
 10
425.076589
 20
1060.449773
 30
0.0
  0
SPLINE
  5
204
100
AcDbEntity
  8
printingsheet2
 62
1
100
AcDbSpline
 70
8
 71
3
 72
8
 73
4
 74
0
 40
0
 40
0
 40
0
 40
0
 40
1
 40
1
 40
1
 40
1
 10
425.076589
 20
1060.449773
 30
0.0
 10
428.600589
 20
1060.449773
 30
0.0
 10
431.455589
 20
1057.595774
 30
0.0
 10
431.455589
 20
1054.072774
 30
0.0
  0
LWPOLYLINE
  5
205
100
AcDbEntity
  8
printingsheet2
 62
1
100
AcDbPolyline
 90
2
 70
1
 10
431.455589
 20
1054.072774
 30
0.0
 10
431.455589
 20
1054.072774
 30
0.0
  0
SPLINE
  5
206
100
AcDbEntity
  8
printingsheet2
 62
1
100
AcDbSpline
 70
8
 71
3
 72
8
 73
4
 74
0
 40
0
 40
0
 40
0
 40
0
 40
1
 40
1
 40
1
 40
1
 10
267.131793
 20
1025.181174
 30
0.0
 10
267.131793
 20
1021.660174
 30
0.0
 10
264.276793
 20
1018.804175
 30
0.0
 10
260.752793
 20
1018.804175
 30
0.0
  0
SPLINE
  5
207
100
AcDbEntity
  8
printingsheet2
 62
1
100
AcDbSpline
 70
8
 71
3
 72
8
 73
4
 74
0
 40
0
 40
0
 40
0
 40
0
 40
1
 40
1
 40
1
 40
1
 10
260.752793
 20
1018.804175
 30
0.0
 10
257.229794
 20
1018.804175
 30
0.0
 10
254.375794
 20
1021.660174
 30
0.0
 10
254.375794
 20
1025.181174
 30
0.0
  0
SPLINE
  5
208
100
AcDbEntity
  8
printingsheet2
 62
1
100
AcDbSpline
 70
8
 71
3
 72
8
 73
4
 74
0
 40
0
 40
0
 40
0
 40
0
 40
1
 40
1
 40
1
 40
1
 10
254.375794
 20
1025.181174
 30
0.0
 10
254.375794
 20
1028.704174
 30
0.0
 10
257.229794
 20
1031.560174
 30
0.0
 10
260.752793
 20
1031.560174
 30
0.0
  0
SPLINE
  5
209
100
AcDbEntity
  8
printingsheet2
 62
1
100
AcDbSpline
 70
8
 71
3
 72
8
 73
4
 74
0
 40
0
 40
0
 40
0
 40
0
 40
1
 40
1
 40
1
 40
1
 10
260.752793
 20
1031.560174
 30
0.0
 10
264.276793
 20
1031.560174
 30
0.0
 10
267.131793
 20
1028.704174
 30
0.0
 10
267.131793
 20
1025.181174
 30
0.0
  0
LWPOLYLINE
  5
20a
100
AcDbEntity
  8
printingsheet2
 62
1
100
AcDbPolyline
 90
6
 70
1
 10
266.987293
 20
1011.009275
 30
0.0
 10
252.814294
 20
1012.101275
 30
0.0
 10
246.581294
 20
1026.273274
 30
0.0
 10
254.519294
 20
1039.355274
 30
0.0
 10
268.693293
 20
1038.263274
 30
0.0
 10
274.927293
 20
1024.089274
 30
0.0
  0
SPLINE
  5
20b
100
AcDbEntity
  8
printingsheet2
 62
1
100
AcDbSpline
 70
8
 71
3
 72
8
 73
4
 74
0
 40
0
 40
0
 40
0
 40
0
 40
1
 40
1
 40
1
 40
1
 10
267.131793
 20
1025.183074
 30
0.0
 10
267.131793
 20
1021.660074
 30
0.0
 10
264.276793
 20
1018.804075
 30
0.0
 10
260.752793
 20
1018.804075
 30
0.0
  0
SPLINE
  5
20c
100
AcDbEntity
  8
printingsheet2
 62
1
100
AcDbSpline
 70
8
 71
3
 72
8
 73
4
 74
0
 40
0
 40
0
 40
0
 40
0
 40
1
 40
1
 40
1
 40
1
 10
260.752793
 20
1018.804075
 30
0.0
 10
257.229794
 20
1018.804075
 30
0.0
 10
254.375794
 20
1021.660074
 30
0.0
 10
254.375794
 20
1025.183074
 30
0.0
  0
SPLINE
  5
20d
100
AcDbEntity
  8
printingsheet2
 62
1
100
AcDbSpline
 70
8
 71
3
 72
8
 73
4
 74
0
 40
0
 40
0
 40
0
 40
0
 40
1
 40
1
 40
1
 40
1
 10
254.375794
 20
1025.183074
 30
0.0
 10
254.375794
 20
1028.704074
 30
0.0
 10
257.229794
 20
1031.560074
 30
0.0
 10
260.752793
 20
1031.560074
 30
0.0
  0
SPLINE
  5
20e
100
AcDbEntity
  8
printingsheet2
 62
1
100
AcDbSpline
 70
8
 71
3
 72
8
 73
4
 74
0
 40
0
 40
0
 40
0
 40
0
 40
1
 40
1
 40
1
 40
1
 10
260.752793
 20
1031.560074
 30
0.0
 10
264.276793
 20
1031.560074
 30
0.0
 10
267.131793
 20
1028.704074
 30
0.0
 10
267.131793
 20
1025.183074
 30
0.0
  0
LWPOLYLINE
  5
20f
100
AcDbEntity
  8
printingsheet2
 62
1
100
AcDbPolyline
 90
1
 70
1
 10
267.131793
 20
1025.181174
 30
0.0
  0
LWPOLYLINE
  5
210
100
AcDbEntity
  8
printingsheet2
 62
1
100
AcDbPolyline
 90
1
 70
1
 10
267.131793
 20
1025.183074
 30
0.0
  0
SPLINE
  5
211
100
AcDbEntity
  8
printingsheet2
 62
1
100
AcDbSpline
 70
8
 71
3
 72
8
 73
4
 74
0
 40
0
 40
0
 40
0
 40
0
 40
1
 40
1
 40
1
 40
1
 10
308.118692
 20
1021.756274
 30
0.0
 10
308.118692
 20
1018.235275
 30
0.0
 10
305.263692
 20
1015.379275
 30
0.0
 10
301.739692
 20
1015.379275
 30
0.0
  0
SPLINE
  5
212
100
AcDbEntity
  8
printingsheet2
 62
1
100
AcDbSpline
 70
8
 71
3
 72
8
 73
4
 74
0
 40
0
 40
0
 40
0
 40
0
 40
1
 40
1
 40
1
 40
1
 10
301.739692
 20
1015.379275
 30
0.0
 10
298.216693
 20
1015.379275
 30
0.0
 10
295.362693
 20
1018.235275
 30
0.0
 10
295.362693
 20
1021.756274
 30
0.0
  0
SPLINE
  5
213
100
AcDbEntity
  8
printingsheet2
 62
1
100
AcDbSpline
 70
8
 71
3
 72
8
 73
4
 74
0
 40
0
 40
0
 40
0
 40
0
 40
1
 40
1
 40
1
 40
1
 10
295.362693
 20
1021.756274
 30
0.0
 10
295.362693
 20
1025.279274
 30
0.0
 10
298.216693
 20
1028.135274
 30
0.0
 10
301.739692
 20
1028.135274
 30
0.0
  0
SPLINE
  5
214
100
AcDbEntity
  8
printingsheet2
 62
1
100
AcDbSpline
 70
8
 71
3
 72
8
 73
4
 74
0
 40
0
 40
0
 40
0
 40
0
 40
1
 40
1
 40
1
 40
1
 10
301.739692
 20
1028.135274
 30
0.0
 10
305.263692
 20
1028.135274
 30
0.0
 10
308.118692
 20
1025.279274
 30
0.0
 10
308.118692
 20
1021.756274
 30
0.0
  0
LWPOLYLINE
  5
215
100
AcDbEntity
  8
printingsheet2
 62
1
100
AcDbPolyline
 90
6
 70
1
 10
307.974092
 20
1007.584475
 30
0.0
 10
293.801093
 20
1008.676475
 30
0.0
 10
287.568093
 20
1022.848474
 30
0.0
 10
295.506093
 20
1035.930474
 30
0.0
 10
309.679092
 20
1034.838474
 30
0.0
 10
315.913092
 20
1020.664474
 30
0.0
  0
SPLINE
  5
216
100
AcDbEntity
  8
printingsheet2
 62
1
100
AcDbSpline
 70
8
 71
3
 72
8
 73
4
 74
0
 40
0
 40
0
 40
0
 40
0
 40
1
 40
1
 40
1
 40
1
 10
308.118692
 20
1021.758274
 30
0.0
 10
308.118692
 20
1018.235275
 30
0.0
 10
305.263692
 20
1015.379275
 30
0.0
 10
301.739692
 20
1015.379275
 30
0.0
  0
SPLINE
  5
217
100
AcDbEntity
  8
printingsheet2
 62
1
100
AcDbSpline
 70
8
 71
3
 72
8
 73
4
 74
0
 40
0
 40
0
 40
0
 40
0
 40
1
 40
1
 40
1
 40
1
 10
301.739692
 20
1015.379275
 30
0.0
 10
298.216693
 20
1015.379275
 30
0.0
 10
295.362693
 20
1018.235275
 30
0.0
 10
295.362693
 20
1021.758274
 30
0.0
  0
SPLINE
  5
218
100
AcDbEntity
  8
printingsheet2
 62
1
100
AcDbSpline
 70
8
 71
3
 72
8
 73
4
 74
0
 40
0
 40
0
 40
0
 40
0
 40
1
 40
1
 40
1
 40
1
 10
295.362693
 20
1021.758274
 30
0.0
 10
295.362693
 20
1025.279274
 30
0.0
 10
298.216693
 20
1028.135274
 30
0.0
 10
301.739692
 20
1028.135274
 30
0.0
  0
SPLINE
  5
219
100
AcDbEntity
  8
printingsheet2
 62
1
100
AcDbSpline
 70
8
 71
3
 72
8
 73
4
 74
0
 40
0
 40
0
 40
0
 40
0
 40
1
 40
1
 40
1
 40
1
 10
301.739692
 20
1028.135274
 30
0.0
 10
305.263692
 20
1028.135274
 30
0.0
 10
308.118692
 20
1025.279274
 30
0.0
 10
308.118692
 20
1021.758274
 30
0.0
  0
LWPOLYLINE
  5
21a
100
AcDbEntity
  8
printingsheet2
 62
1
100
AcDbPolyline
 90
1
 70
1
 10
308.118692
 20
1021.756274
 30
0.0
  0
LWPOLYLINE
  5
21b
100
AcDbEntity
  8
printingsheet2
 62
1
100
AcDbPolyline
 90
1
 70
1
 10
308.118692
 20
1021.758274
 30
0.0
  0
LWPOLYLINE
  5
21c
100
AcDbEntity
  8
printingsheet2
 62
1
100
AcDbPolyline
 90
1
 70
1
 10
356.747591
 20
1039.199174
 30
0.0
  0
LWPOLYLINE
  5
21d
100
AcDbEntity
  8
printingsheet2
 62
1
100
AcDbPolyline
 90
1
 70
1
 10
397.733890
 20
1035.774374
 30
0.0
  0
SPLINE
  5
21e
100
AcDbEntity
  8
printingsheet2
 62
1
100
AcDbSpline
 70
8
 71
3
 72
8
 73
4
 74
0
 40
0
 40
0
 40
0
 40
0
 40
1
 40
1
 40
1
 40
1
 10
348.952091
 20
1058.195274
 30
0.0
 10
348.952091
 20
1054.674274
 30
0.0
 10
346.097091
 20
1051.818274
 30
0.0
 10
342.573091
 20
1051.818274
 30
0.0
  0
SPLINE
  5
21f
100
AcDbEntity
  8
printingsheet2
 62
1
100
AcDbSpline
 70
8
 71
3
 72
8
 73
4
 74
0
 40
0
 40
0
 40
0
 40
0
 40
1
 40
1
 40
1
 40
1
 10
342.573091
 20
1051.818274
 30
0.0
 10
339.050092
 20
1051.818274
 30
0.0
 10
336.196092
 20
1054.674274
 30
0.0
 10
336.196092
 20
1058.195274
 30
0.0
  0
SPLINE
  5
220
100
AcDbEntity
  8
printingsheet2
 62
1
100
AcDbSpline
 70
8
 71
3
 72
8
 73
4
 74
0
 40
0
 40
0
 40
0
 40
0
 40
1
 40
1
 40
1
 40
1
 10
336.196092
 20
1058.195274
 30
0.0
 10
336.196092
 20
1061.718273
 30
0.0
 10
339.050092
 20
1064.574273
 30
0.0
 10
342.573091
 20
1064.574273
 30
0.0
  0
SPLINE
  5
221
100
AcDbEntity
  8
printingsheet2
 62
1
100
AcDbSpline
 70
8
 71
3
 72
8
 73
4
 74
0
 40
0
 40
0
 40
0
 40
0
 40
1
 40
1
 40
1
 40
1
 10
342.573091
 20
1064.574273
 30
0.0
 10
346.097091
 20
1064.574273
 30
0.0
 10
348.952091
 20
1061.718273
 30
0.0
 10
348.952091
 20
1058.195274
 30
0.0
  0
LWPOLYLINE
  5
222
100
AcDbEntity
  8
printingsheet2
 62
1
100
AcDbPolyline
 90
6
 70
1
 10
348.807591
 20
1044.023374
 30
0.0
 10
334.634592
 20
1045.115374
 30
0.0
 10
328.401592
 20
1059.287374
 30
0.0
 10
336.339592
 20
1072.369373
 30
0.0
 10
350.513591
 20
1071.277373
 30
0.0
 10
356.747591
 20
1057.103374
 30
0.0
  0
SPLINE
  5
223
100
AcDbEntity
  8
printingsheet2
 62
1
100
AcDbSpline
 70
8
 71
3
 72
8
 73
4
 74
0
 40
0
 40
0
 40
0
 40
0
 40
1
 40
1
 40
1
 40
1
 10
348.952091
 20
1058.197274
 30
0.0
 10
348.952091
 20
1054.674274
 30
0.0
 10
346.097091
 20
1051.818274
 30
0.0
 10
342.573091
 20
1051.818274
 30
0.0
  0
SPLINE
  5
224
100
AcDbEntity
  8
printingsheet2
 62
1
100
AcDbSpline
 70
8
 71
3
 72
8
 73
4
 74
0
 40
0
 40
0
 40
0
 40
0
 40
1
 40
1
 40
1
 40
1
 10
342.573091
 20
1051.818274
 30
0.0
 10
339.050092
 20
1051.818274
 30
0.0
 10
336.196092
 20
1054.674274
 30
0.0
 10
336.196092
 20
1058.197274
 30
0.0
  0
SPLINE
  5
225
100
AcDbEntity
  8
printingsheet2
 62
1
100
AcDbSpline
 70
8
 71
3
 72
8
 73
4
 74
0
 40
0
 40
0
 40
0
 40
0
 40
1
 40
1
 40
1
 40
1
 10
336.196092
 20
1058.197274
 30
0.0
 10
336.196092
 20
1061.718273
 30
0.0
 10
339.050092
 20
1064.574273
 30
0.0
 10
342.573091
 20
1064.574273
 30
0.0
  0
SPLINE
  5
226
100
AcDbEntity
  8
printingsheet2
 62
1
100
AcDbSpline
 70
8
 71
3
 72
8
 73
4
 74
0
 40
0
 40
0
 40
0
 40
0
 40
1
 40
1
 40
1
 40
1
 10
342.573091
 20
1064.574273
 30
0.0
 10
346.097091
 20
1064.574273
 30
0.0
 10
348.952091
 20
1061.718273
 30
0.0
 10
348.952091
 20
1058.197274
 30
0.0
  0
LWPOLYLINE
  5
227
100
AcDbEntity
  8
printingsheet2
 62
1
100
AcDbPolyline
 90
1
 70
1
 10
348.952091
 20
1058.195274
 30
0.0
  0
LWPOLYLINE
  5
228
100
AcDbEntity
  8
printingsheet2
 62
1
100
AcDbPolyline
 90
1
 70
1
 10
348.952091
 20
1058.197274
 30
0.0
  0
SPLINE
  5
229
100
AcDbEntity
  8
printingsheet2
 62
1
100
AcDbSpline
 70
8
 71
3
 72
8
 73
4
 74
0
 40
0
 40
0
 40
0
 40
0
 40
1
 40
1
 40
1
 40
1
 10
389.938990
 20
1054.770474
 30
0.0
 10
389.938990
 20
1051.249474
 30
0.0
 10
387.083990
 20
1048.393474
 30
0.0
 10
383.559990
 20
1048.393474
 30
0.0
  0
SPLINE
  5
22a
100
AcDbEntity
  8
printingsheet2
 62
1
100
AcDbSpline
 70
8
 71
3
 72
8
 73
4
 74
0
 40
0
 40
0
 40
0
 40
0
 40
1
 40
1
 40
1
 40
1
 10
383.559990
 20
1048.393474
 30
0.0
 10
380.036990
 20
1048.393474
 30
0.0
 10
377.182991
 20
1051.249474
 30
0.0
 10
377.182991
 20
1054.770474
 30
0.0
  0
SPLINE
  5
22b
100
AcDbEntity
  8
printingsheet2
 62
1
100
AcDbSpline
 70
8
 71
3
 72
8
 73
4
 74
0
 40
0
 40
0
 40
0
 40
0
 40
1
 40
1
 40
1
 40
1
 10
377.182991
 20
1054.770474
 30
0.0
 10
377.182991
 20
1058.293474
 30
0.0
 10
380.036990
 20
1061.149473
 30
0.0
 10
383.559990
 20
1061.149473
 30
0.0
  0
SPLINE
  5
22c
100
AcDbEntity
  8
printingsheet2
 62
1
100
AcDbSpline
 70
8
 71
3
 72
8
 73
4
 74
0
 40
0
 40
0
 40
0
 40
0
 40
1
 40
1
 40
1
 40
1
 10
383.559990
 20
1061.149473
 30
0.0
 10
387.083990
 20
1061.149473
 30
0.0
 10
389.938990
 20
1058.293474
 30
0.0
 10
389.938990
 20
1054.770474
 30
0.0
  0
LWPOLYLINE
  5
22d
100
AcDbEntity
  8
printingsheet2
 62
1
100
AcDbPolyline
 90
6
 70
1
 10
389.794390
 20
1040.598574
 30
0.0
 10
375.621391
 20
1041.690574
 30
0.0
 10
369.388391
 20
1055.862574
 30
0.0
 10
377.326391
 20
1068.944573
 30
0.0
 10
391.499390
 20
1067.852573
 30
0.0
 10
397.733390
 20
1053.678574
 30
0.0
  0
SPLINE
  5
22e
100
AcDbEntity
  8
printingsheet2
 62
1
100
AcDbSpline
 70
8
 71
3
 72
8
 73
4
 74
0
 40
0
 40
0
 40
0
 40
0
 40
1
 40
1
 40
1
 40
1
 10
389.938990
 20
1054.772474
 30
0.0
 10
389.938990
 20
1051.249474
 30
0.0
 10
387.083990
 20
1048.393474
 30
0.0
 10
383.559990
 20
1048.393474
 30
0.0
  0
SPLINE
  5
22f
100
AcDbEntity
  8
printingsheet2
 62
1
100
AcDbSpline
 70
8
 71
3
 72
8
 73
4
 74
0
 40
0
 40
0
 40
0
 40
0
 40
1
 40
1
 40
1
 40
1
 10
383.559990
 20
1048.393474
 30
0.0
 10
380.036990
 20
1048.393474
 30
0.0
 10
377.182991
 20
1051.249474
 30
0.0
 10
377.182991
 20
1054.772474
 30
0.0
  0
SPLINE
  5
230
100
AcDbEntity
  8
printingsheet2
 62
1
100
AcDbSpline
 70
8
 71
3
 72
8
 73
4
 74
0
 40
0
 40
0
 40
0
 40
0
 40
1
 40
1
 40
1
 40
1
 10
377.182991
 20
1054.772474
 30
0.0
 10
377.182991
 20
1058.293474
 30
0.0
 10
380.036990
 20
1061.149473
 30
0.0
 10
383.559990
 20
1061.149473
 30
0.0
  0
SPLINE
  5
231
100
AcDbEntity
  8
printingsheet2
 62
1
100
AcDbSpline
 70
8
 71
3
 72
8
 73
4
 74
0
 40
0
 40
0
 40
0
 40
0
 40
1
 40
1
 40
1
 40
1
 10
383.559990
 20
1061.149473
 30
0.0
 10
387.083990
 20
1061.149473
 30
0.0
 10
389.938990
 20
1058.293474
 30
0.0
 10
389.938990
 20
1054.772474
 30
0.0
  0
LWPOLYLINE
  5
232
100
AcDbEntity
  8
printingsheet2
 62
1
100
AcDbPolyline
 90
1
 70
1
 10
389.938990
 20
1054.770474
 30
0.0
  0
LWPOLYLINE
  5
233
100
AcDbEntity
  8
printingsheet2
 62
1
100
AcDbPolyline
 90
1
 70
1
 10
389.938990
 20
1054.772474
 30
0.0
  0
SPLINE
  5
234
100
AcDbEntity
  8
printingsheet2
 62
1
100
AcDbSpline
 70
8
 71
3
 72
8
 73
4
 74
0
 40
0
 40
0
 40
0
 40
0
 40
1
 40
1
 40
1
 40
1
 10
267.131793
 20
1057.497574
 30
0.0
 10
267.131793
 20
1053.974574
 30
0.0
 10
264.276793
 20
1051.118574
 30
0.0
 10
260.752793
 20
1051.118574
 30
0.0
  0
SPLINE
  5
235
100
AcDbEntity
  8
printingsheet2
 62
1
100
AcDbSpline
 70
8
 71
3
 72
8
 73
4
 74
0
 40
0
 40
0
 40
0
 40
0
 40
1
 40
1
 40
1
 40
1
 10
260.752793
 20
1051.118574
 30
0.0
 10
257.229794
 20
1051.118574
 30
0.0
 10
254.375794
 20
1053.974574
 30
0.0
 10
254.375794
 20
1057.497574
 30
0.0
  0
SPLINE
  5
236
100
AcDbEntity
  8
printingsheet2
 62
1
100
AcDbSpline
 70
8
 71
3
 72
8
 73
4
 74
0
 40
0
 40
0
 40
0
 40
0
 40
1
 40
1
 40
1
 40
1
 10
254.375794
 20
1057.497574
 30
0.0
 10
254.375794
 20
1061.018573
 30
0.0
 10
257.229794
 20
1063.874573
 30
0.0
 10
260.752793
 20
1063.874573
 30
0.0
  0
SPLINE
  5
237
100
AcDbEntity
  8
printingsheet2
 62
1
100
AcDbSpline
 70
8
 71
3
 72
8
 73
4
 74
0
 40
0
 40
0
 40
0
 40
0
 40
1
 40
1
 40
1
 40
1
 10
260.752793
 20
1063.874573
 30
0.0
 10
264.276793
 20
1063.874573
 30
0.0
 10
267.131793
 20
1061.018573
 30
0.0
 10
267.131793
 20
1057.497574
 30
0.0
  0
LWPOLYLINE
  5
238
100
AcDbEntity
  8
printingsheet2
 62
1
100
AcDbPolyline
 90
6
 70
1
 10
266.987293
 20
1043.323674
 30
0.0
 10
252.814294
 20
1044.415674
 30
0.0
 10
246.581294
 20
1058.589674
 30
0.0
 10
254.519294
 20
1071.669673
 30
0.0
 10
268.693293
 20
1070.577673
 30
0.0
 10
274.927293
 20
1056.405674
 30
0.0
  0
SPLINE
  5
239
100
AcDbEntity
  8
printingsheet2
 62
1
100
AcDbSpline
 70
8
 71
3
 72
8
 73
4
 74
0
 40
0
 40
0
 40
0
 40
0
 40
1
 40
1
 40
1
 40
1
 10
267.131793
 20
1057.497574
 30
0.0
 10
267.131793
 20
1053.974574
 30
0.0
 10
264.276793
 20
1051.118574
 30
0.0
 10
260.752793
 20
1051.118574
 30
0.0
  0
SPLINE
  5
23a
100
AcDbEntity
  8
printingsheet2
 62
1
100
AcDbSpline
 70
8
 71
3
 72
8
 73
4
 74
0
 40
0
 40
0
 40
0
 40
0
 40
1
 40
1
 40
1
 40
1
 10
260.752793
 20
1051.118574
 30
0.0
 10
257.229794
 20
1051.118574
 30
0.0
 10
254.375794
 20
1053.974574
 30
0.0
 10
254.375794
 20
1057.497574
 30
0.0
  0
SPLINE
  5
23b
100
AcDbEntity
  8
printingsheet2
 62
1
100
AcDbSpline
 70
8
 71
3
 72
8
 73
4
 74
0
 40
0
 40
0
 40
0
 40
0
 40
1
 40
1
 40
1
 40
1
 10
254.375794
 20
1057.497574
 30
0.0
 10
254.375794
 20
1061.020573
 30
0.0
 10
257.229794
 20
1063.874573
 30
0.0
 10
260.752793
 20
1063.874573
 30
0.0
  0
SPLINE
  5
23c
100
AcDbEntity
  8
printingsheet2
 62
1
100
AcDbSpline
 70
8
 71
3
 72
8
 73
4
 74
0
 40
0
 40
0
 40
0
 40
0
 40
1
 40
1
 40
1
 40
1
 10
260.752793
 20
1063.874573
 30
0.0
 10
264.276793
 20
1063.874573
 30
0.0
 10
267.131793
 20
1061.020573
 30
0.0
 10
267.131793
 20
1057.497574
 30
0.0
  0
LWPOLYLINE
  5
23d
100
AcDbEntity
  8
printingsheet2
 62
1
100
AcDbPolyline
 90
2
 70
1
 10
267.131793
 20
1057.497574
 30
0.0
 10
267.131793
 20
1057.497574
 30
0.0
  0
SPLINE
  5
23e
100
AcDbEntity
  8
printingsheet2
 62
1
100
AcDbSpline
 70
8
 71
3
 72
8
 73
4
 74
0
 40
0
 40
0
 40
0
 40
0
 40
1
 40
1
 40
1
 40
1
 10
308.118692
 20
1054.072774
 30
0.0
 10
308.118692
 20
1050.549774
 30
0.0
 10
305.263692
 20
1047.693774
 30
0.0
 10
301.739692
 20
1047.693774
 30
0.0
  0
SPLINE
  5
23f
100
AcDbEntity
  8
printingsheet2
 62
1
100
AcDbSpline
 70
8
 71
3
 72
8
 73
4
 74
0
 40
0
 40
0
 40
0
 40
0
 40
1
 40
1
 40
1
 40
1
 10
301.739692
 20
1047.693774
 30
0.0
 10
298.216693
 20
1047.693774
 30
0.0
 10
295.362693
 20
1050.549774
 30
0.0
 10
295.362693
 20
1054.072774
 30
0.0
  0
SPLINE
  5
240
100
AcDbEntity
  8
printingsheet2
 62
1
100
AcDbSpline
 70
8
 71
3
 72
8
 73
4
 74
0
 40
0
 40
0
 40
0
 40
0
 40
1
 40
1
 40
1
 40
1
 10
295.362693
 20
1054.072774
 30
0.0
 10
295.362693
 20
1057.593774
 30
0.0
 10
298.216693
 20
1060.449773
 30
0.0
 10
301.739692
 20
1060.449773
 30
0.0
  0
SPLINE
  5
241
100
AcDbEntity
  8
printingsheet2
 62
1
100
AcDbSpline
 70
8
 71
3
 72
8
 73
4
 74
0
 40
0
 40
0
 40
0
 40
0
 40
1
 40
1
 40
1
 40
1
 10
301.739692
 20
1060.449773
 30
0.0
 10
305.263692
 20
1060.449773
 30
0.0
 10
308.118692
 20
1057.593774
 30
0.0
 10
308.118692
 20
1054.072774
 30
0.0
  0
LWPOLYLINE
  5
242
100
AcDbEntity
  8
printingsheet2
 62
1
100
AcDbPolyline
 90
6
 70
1
 10
307.974092
 20
1039.898874
 30
0.0
 10
293.801093
 20
1040.990874
 30
0.0
 10
287.568093
 20
1055.164874
 30
0.0
 10
295.506093
 20
1068.244873
 30
0.0
 10
309.679092
 20
1067.152873
 30
0.0
 10
315.913092
 20
1052.980874
 30
0.0
  0
SPLINE
  5
243
100
AcDbEntity
  8
printingsheet2
 62
1
100
AcDbSpline
 70
8
 71
3
 72
8
 73
4
 74
0
 40
0
 40
0
 40
0
 40
0
 40
1
 40
1
 40
1
 40
1
 10
308.118692
 20
1054.072774
 30
0.0
 10
308.118692
 20
1050.549774
 30
0.0
 10
305.263692
 20
1047.693774
 30
0.0
 10
301.739692
 20
1047.693774
 30
0.0
  0
SPLINE
  5
244
100
AcDbEntity
  8
printingsheet2
 62
1
100
AcDbSpline
 70
8
 71
3
 72
8
 73
4
 74
0
 40
0
 40
0
 40
0
 40
0
 40
1
 40
1
 40
1
 40
1
 10
301.739692
 20
1047.693774
 30
0.0
 10
298.216693
 20
1047.693774
 30
0.0
 10
295.362693
 20
1050.549774
 30
0.0
 10
295.362693
 20
1054.072774
 30
0.0
  0
SPLINE
  5
245
100
AcDbEntity
  8
printingsheet2
 62
1
100
AcDbSpline
 70
8
 71
3
 72
8
 73
4
 74
0
 40
0
 40
0
 40
0
 40
0
 40
1
 40
1
 40
1
 40
1
 10
295.362693
 20
1054.072774
 30
0.0
 10
295.362693
 20
1057.595774
 30
0.0
 10
298.216693
 20
1060.449773
 30
0.0
 10
301.739692
 20
1060.449773
 30
0.0
  0
SPLINE
  5
246
100
AcDbEntity
  8
printingsheet2
 62
1
100
AcDbSpline
 70
8
 71
3
 72
8
 73
4
 74
0
 40
0
 40
0
 40
0
 40
0
 40
1
 40
1
 40
1
 40
1
 10
301.739692
 20
1060.449773
 30
0.0
 10
305.263692
 20
1060.449773
 30
0.0
 10
308.118692
 20
1057.595774
 30
0.0
 10
308.118692
 20
1054.072774
 30
0.0
  0
SPLINE
  5
247
100
AcDbEntity
  8
printingsheet2
 62
1
100
AcDbSpline
 70
8
 71
3
 72
8
 73
4
 74
0
 40
0
 40
0
 40
0
 40
0
 40
1
 40
1
 40
1
 40
1
 10
612.810085
 20
1243.271969
 30
0.0
 10
612.810085
 20
1239.356969
 30
0.0
 10
609.639085
 20
1236.183969
 30
0.0
 10
605.724085
 20
1236.183969
 30
0.0
  0
SPLINE
  5
248
100
AcDbEntity
  8
printingsheet2
 62
1
100
AcDbSpline
 70
8
 71
3
 72
8
 73
4
 74
0
 40
0
 40
0
 40
0
 40
0
 40
1
 40
1
 40
1
 40
1
 10
605.724085
 20
1236.183969
 30
0.0
 10
601.809085
 20
1236.183969
 30
0.0
 10
598.637085
 20
1239.356969
 30
0.0
 10
598.637085
 20
1243.271969
 30
0.0
  0
SPLINE
  5
249
100
AcDbEntity
  8
printingsheet2
 62
1
100
AcDbSpline
 70
8
 71
3
 72
8
 73
4
 74
0
 40
0
 40
0
 40
0
 40
0
 40
1
 40
1
 40
1
 40
1
 10
598.637085
 20
1243.271969
 30
0.0
 10
598.637085
 20
1247.185969
 30
0.0
 10
601.809085
 20
1250.357969
 30
0.0
 10
605.724085
 20
1250.357969
 30
0.0
  0
SPLINE
  5
24a
100
AcDbEntity
  8
printingsheet2
 62
1
100
AcDbSpline
 70
8
 71
3
 72
8
 73
4
 74
0
 40
0
 40
0
 40
0
 40
0
 40
1
 40
1
 40
1
 40
1
 10
605.724085
 20
1250.357969
 30
0.0
 10
609.639085
 20
1250.357969
 30
0.0
 10
612.810085
 20
1247.185969
 30
0.0
 10
612.810085
 20
1243.271969
 30
0.0
  0
LWPOLYLINE
  5
24b
100
AcDbEntity
  8
printingsheet2
 62
1
100
AcDbPolyline
 90
2
 70
1
 10
308.118692
 20
1054.072774
 30
0.0
 10
308.118692
 20
1054.072774
 30
0.0
  0
SPLINE
  5
24c
100
AcDbEntity
  8
printingsheet2
 62
1
100
AcDbSpline
 70
8
 71
3
 72
8
 73
4
 74
0
 40
0
 40
0
 40
0
 40
0
 40
1
 40
1
 40
1
 40
1
 10
514.060087
 20
1120.616672
 30
0.0
 10
514.060087
 20
1116.701672
 30
0.0
 10
510.889087
 20
1113.528672
 30
0.0
 10
506.974087
 20
1113.528672
 30
0.0
  0
SPLINE
  5
24d
100
AcDbEntity
  8
printingsheet2
 62
1
100
AcDbSpline
 70
8
 71
3
 72
8
 73
4
 74
0
 40
0
 40
0
 40
0
 40
0
 40
1
 40
1
 40
1
 40
1
 10
506.974087
 20
1113.528672
 30
0.0
 10
503.059087
 20
1113.528672
 30
0.0
 10
499.887088
 20
1116.701672
 30
0.0
 10
499.887088
 20
1120.616672
 30
0.0
  0
SPLINE
  5
24e
100
AcDbEntity
  8
printingsheet2
 62
1
100
AcDbSpline
 70
8
 71
3
 72
8
 73
4
 74
0
 40
0
 40
0
 40
0
 40
0
 40
1
 40
1
 40
1
 40
1
 10
499.887088
 20
1120.616672
 30
0.0
 10
499.887088
 20
1124.530672
 30
0.0
 10
503.059087
 20
1127.702672
 30
0.0
 10
506.974087
 20
1127.702672
 30
0.0
  0
SPLINE
  5
24f
100
AcDbEntity
  8
printingsheet2
 62
1
100
AcDbSpline
 70
8
 71
3
 72
8
 73
4
 74
0
 40
0
 40
0
 40
0
 40
0
 40
1
 40
1
 40
1
 40
1
 10
506.974087
 20
1127.702672
 30
0.0
 10
510.889087
 20
1127.702672
 30
0.0
 10
514.060087
 20
1124.530672
 30
0.0
 10
514.060087
 20
1120.616672
 30
0.0
  0
LWPOLYLINE
  5
250
100
AcDbEntity
  8
printingsheet2
 62
1
100
AcDbPolyline
 90
1
 70
1
 10
612.810085
 20
1243.271969
 30
0.0
  0
SPLINE
  5
251
100
AcDbEntity
  8
printingsheet2
 62
1
100
AcDbSpline
 70
8
 71
3
 72
8
 73
4
 74
0
 40
0
 40
0
 40
0
 40
0
 40
1
 40
1
 40
1
 40
1
 10
556.659186
 20
1211.189870
 30
0.0
 10
540.612186
 20
1211.189870
 30
0.0
 10
527.603187
 20
1198.181870
 30
0.0
 10
527.603187
 20
1182.134870
 30
0.0
  0
SPLINE
  5
252
100
AcDbEntity
  8
printingsheet2
 62
1
100
AcDbSpline
 70
8
 71
3
 72
8
 73
4
 74
0
 40
0
 40
0
 40
0
 40
0
 40
1
 40
1
 40
1
 40
1
 10
527.603187
 20
1182.134870
 30
0.0
 10
527.603187
 20
1166.087871
 30
0.0
 10
540.612186
 20
1153.078871
 30
0.0
 10
556.659186
 20
1153.078871
 30
0.0
  0
SPLINE
  5
253
100
AcDbEntity
  8
printingsheet2
 62
1
100
AcDbSpline
 70
8
 71
3
 72
8
 73
4
 74
0
 40
0
 40
0
 40
0
 40
0
 40
1
 40
1
 40
1
 40
1
 10
556.659186
 20
1153.078871
 30
0.0
 10
572.706186
 20
1153.078871
 30
0.0
 10
585.715185
 20
1166.087871
 30
0.0
 10
585.715185
 20
1182.134870
 30
0.0
  0
SPLINE
  5
254
100
AcDbEntity
  8
printingsheet2
 62
1
100
AcDbSpline
 70
8
 71
3
 72
8
 73
4
 74
0
 40
0
 40
0
 40
0
 40
0
 40
1
 40
1
 40
1
 40
1
 10
585.715185
 20
1182.134870
 30
0.0
 10
585.715185
 20
1198.181870
 30
0.0
 10
572.706186
 20
1211.189870
 30
0.0
 10
556.659186
 20
1211.189870
 30
0.0
  0
LWPOLYLINE
  5
255
100
AcDbEntity
  8
printingsheet2
 62
1
100
AcDbPolyline
 90
1
 70
1
 10
514.060087
 20
1120.616672
 30
0.0
  0
LWPOLYLINE
  5
256
100
AcDbEntity
  8
printingsheet2
 62
1
100
AcDbPolyline
 90
1
 70
1
 10
556.659186
 20
1211.189870
 30
0.0
  0
SPLINE
  5
257
100
AcDbEntity
  8
printingsheet2
 62
1
100
AcDbSpline
 70
8
 71
3
 72
8
 73
4
 74
0
 40
0
 40
0
 40
0
 40
0
 40
1
 40
1
 40
1
 40
1
 10
279.264593
 20
1261.013168
 30
0.0
 10
279.264593
 20
1258.664169
 30
0.0
 10
277.361593
 20
1256.761169
 30
0.0
 10
275.012593
 20
1256.761169
 30
0.0
  0
SPLINE
  5
258
100
AcDbEntity
  8
printingsheet2
 62
1
100
AcDbSpline
 70
8
 71
3
 72
8
 73
4
 74
0
 40
0
 40
0
 40
0
 40
0
 40
1
 40
1
 40
1
 40
1
 10
275.012593
 20
1256.761169
 30
0.0
 10
272.663593
 20
1256.761169
 30
0.0
 10
270.760593
 20
1258.664169
 30
0.0
 10
270.760593
 20
1261.013168
 30
0.0
  0
SPLINE
  5
259
100
AcDbEntity
  8
printingsheet2
 62
1
100
AcDbSpline
 70
8
 71
3
 72
8
 73
4
 74
0
 40
0
 40
0
 40
0
 40
0
 40
1
 40
1
 40
1
 40
1
 10
270.760593
 20
1261.013168
 30
0.0
 10
270.760593
 20
1263.362168
 30
0.0
 10
272.663593
 20
1265.265168
 30
0.0
 10
275.012593
 20
1265.265168
 30
0.0
  0
SPLINE
  5
25a
100
AcDbEntity
  8
printingsheet2
 62
1
100
AcDbSpline
 70
8
 71
3
 72
8
 73
4
 74
0
 40
0
 40
0
 40
0
 40
0
 40
1
 40
1
 40
1
 40
1
 10
275.012593
 20
1265.265168
 30
0.0
 10
277.361593
 20
1265.265168
 30
0.0
 10
279.264593
 20
1263.362168
 30
0.0
 10
279.264593
 20
1261.013168
 30
0.0
  0
LWPOLYLINE
  5
25b
100
AcDbEntity
  8
printingsheet2
 62
1
100
AcDbPolyline
 90
4
 70
1
 10
627.024984
 20
1097.594973
 30
0.0
 10
486.292988
 20
1097.594973
 30
0.0
 10
486.292988
 20
1266.672968
 30
0.0
 10
627.024984
 20
1266.672968
 30
0.0
  0
SPLINE
  5
25c
100
AcDbEntity
  8
printingsheet2
 62
1
100
AcDbSpline
 70
8
 71
3
 72
8
 73
4
 74
0
 40
0
 40
0
 40
0
 40
0
 40
1
 40
1
 40
1
 40
1
 10
297.921893
 20
1270.935068
 30
0.0
 10
297.921893
 20
1266.234068
 30
0.0
 10
293.629893
 20
1262.422068
 30
0.0
 10
288.334893
 20
1262.422068
 30
0.0
  0
SPLINE
  5
25d
100
AcDbEntity
  8
printingsheet2
 62
1
100
AcDbSpline
 70
8
 71
3
 72
8
 73
4
 74
0
 40
0
 40
0
 40
0
 40
0
 40
1
 40
1
 40
1
 40
1
 10
288.334893
 20
1262.422068
 30
0.0
 10
283.038893
 20
1262.422068
 30
0.0
 10
278.747893
 20
1266.234068
 30
0.0
 10
278.747893
 20
1270.935068
 30
0.0
  0
LWPOLYLINE
  5
25e
100
AcDbEntity
  8
printingsheet2
 62
1
100
AcDbPolyline
 90
1
 70
1
 10
279.264593
 20
1261.013168
 30
0.0
  0
SPLINE
  5
25f
100
AcDbEntity
  8
printingsheet2
 62
1
100
AcDbSpline
 70
8
 71
3
 72
8
 73
4
 74
0
 40
0
 40
0
 40
0
 40
0
 40
1
 40
1
 40
1
 40
1
 10
312.997092
 20
1185.053170
 30
0.0
 10
312.997092
 20
1181.139170
 30
0.0
 10
309.824092
 20
1177.966171
 30
0.0
 10
305.910092
 20
1177.966171
 30
0.0
  0
SPLINE
  5
260
100
AcDbEntity
  8
printingsheet2
 62
1
100
AcDbSpline
 70
8
 71
3
 72
8
 73
4
 74
0
 40
0
 40
0
 40
0
 40
0
 40
1
 40
1
 40
1
 40
1
 10
305.910092
 20
1177.966171
 30
0.0
 10
301.995092
 20
1177.966171
 30
0.0
 10
298.823093
 20
1181.139170
 30
0.0
 10
298.823093
 20
1185.053170
 30
0.0
  0
SPLINE
  5
261
100
AcDbEntity
  8
printingsheet2
 62
1
100
AcDbSpline
 70
8
 71
3
 72
8
 73
4
 74
0
 40
0
 40
0
 40
0
 40
0
 40
1
 40
1
 40
1
 40
1
 10
298.823093
 20
1185.053170
 30
0.0
 10
298.823093
 20
1188.967170
 30
0.0
 10
301.995092
 20
1192.140170
 30
0.0
 10
305.910092
 20
1192.140170
 30
0.0
  0
SPLINE
  5
262
100
AcDbEntity
  8
printingsheet2
 62
1
100
AcDbSpline
 70
8
 71
3
 72
8
 73
4
 74
0
 40
0
 40
0
 40
0
 40
0
 40
1
 40
1
 40
1
 40
1
 10
305.910092
 20
1192.140170
 30
0.0
 10
309.824092
 20
1192.140170
 30
0.0
 10
312.997092
 20
1188.967170
 30
0.0
 10
312.997092
 20
1185.053170
 30
0.0
  0
LWPOLYLINE
  5
263
100
AcDbEntity
  8
printingsheet2
 62
1
100
AcDbPolyline
 90
6
 70
0
 10
278.747893
 20
1270.935068
 30
0.0
 10
252.901894
 20
1270.935068
 30
0.0
 10
252.901894
 20
1166.053071
 30
0.0
 10
323.767892
 20
1166.053071
 30
0.0
 10
323.767892
 20
1270.935068
 30
0.0
 10
297.921893
 20
1270.935068
 30
0.0
  0
SPLINE
  5
264
100
AcDbEntity
  8
printingsheet2
 62
1
100
AcDbSpline
 70
8
 71
3
 72
8
 73
4
 74
0
 40
0
 40
0
 40
0
 40
0
 40
1
 40
1
 40
1
 40
1
 10
277.847693
 20
1185.895970
 30
0.0
 10
277.847693
 20
1181.981970
 30
0.0
 10
274.674693
 20
1178.808971
 30
0.0
 10
270.760693
 20
1178.808971
 30
0.0
  0
SPLINE
  5
265
100
AcDbEntity
  8
printingsheet2
 62
1
100
AcDbSpline
 70
8
 71
3
 72
8
 73
4
 74
0
 40
0
 40
0
 40
0
 40
0
 40
1
 40
1
 40
1
 40
1
 10
270.760693
 20
1178.808971
 30
0.0
 10
266.845693
 20
1178.808971
 30
0.0
 10
263.673693
 20
1181.981970
 30
0.0
 10
263.673693
 20
1185.895970
 30
0.0
  0
SPLINE
  5
266
100
AcDbEntity
  8
printingsheet2
 62
1
100
AcDbSpline
 70
8
 71
3
 72
8
 73
4
 74
0
 40
0
 40
0
 40
0
 40
0
 40
1
 40
1
 40
1
 40
1
 10
263.673693
 20
1185.895970
 30
0.0
 10
263.673693
 20
1189.809970
 30
0.0
 10
266.845693
 20
1192.982970
 30
0.0
 10
270.760693
 20
1192.982970
 30
0.0
  0
SPLINE
  5
267
100
AcDbEntity
  8
printingsheet2
 62
1
100
AcDbSpline
 70
8
 71
3
 72
8
 73
4
 74
0
 40
0
 40
0
 40
0
 40
0
 40
1
 40
1
 40
1
 40
1
 10
270.760693
 20
1192.982970
 30
0.0
 10
274.674693
 20
1192.982970
 30
0.0
 10
277.847693
 20
1189.809970
 30
0.0
 10
277.847693
 20
1185.895970
 30
0.0
  0
LWPOLYLINE
  5
268
100
AcDbEntity
  8
printingsheet2
 62
1
100
AcDbPolyline
 90
1
 70
1
 10
312.997092
 20
1185.053170
 30
0.0
  0
SPLINE
  5
269
100
AcDbEntity
  8
printingsheet2
 62
1
100
AcDbSpline
 70
8
 71
3
 72
8
 73
4
 74
0
 40
0
 40
0
 40
0
 40
0
 40
1
 40
1
 40
1
 40
1
 10
305.910192
 20
1261.013168
 30
0.0
 10
305.910192
 20
1258.664169
 30
0.0
 10
304.007192
 20
1256.761169
 30
0.0
 10
301.658192
 20
1256.761169
 30
0.0
  0
SPLINE
  5
26a
100
AcDbEntity
  8
printingsheet2
 62
1
100
AcDbSpline
 70
8
 71
3
 72
8
 73
4
 74
0
 40
0
 40
0
 40
0
 40
0
 40
1
 40
1
 40
1
 40
1
 10
301.658192
 20
1256.761169
 30
0.0
 10
299.309193
 20
1256.761169
 30
0.0
 10
297.406193
 20
1258.664169
 30
0.0
 10
297.406193
 20
1261.013168
 30
0.0
  0
SPLINE
  5
26b
100
AcDbEntity
  8
printingsheet2
 62
1
100
AcDbSpline
 70
8
 71
3
 72
8
 73
4
 74
0
 40
0
 40
0
 40
0
 40
0
 40
1
 40
1
 40
1
 40
1
 10
297.406193
 20
1261.013168
 30
0.0
 10
297.406193
 20
1263.362168
 30
0.0
 10
299.309193
 20
1265.265168
 30
0.0
 10
301.658192
 20
1265.265168
 30
0.0
  0
SPLINE
  5
26c
100
AcDbEntity
  8
printingsheet2
 62
1
100
AcDbSpline
 70
8
 71
3
 72
8
 73
4
 74
0
 40
0
 40
0
 40
0
 40
0
 40
1
 40
1
 40
1
 40
1
 10
301.658192
 20
1265.265168
 30
0.0
 10
304.007192
 20
1265.265168
 30
0.0
 10
305.910192
 20
1263.362168
 30
0.0
 10
305.910192
 20
1261.013168
 30
0.0
  0
LWPOLYLINE
  5
26d
100
AcDbEntity
  8
printingsheet2
 62
1
100
AcDbPolyline
 90
1
 70
1
 10
277.847693
 20
1185.895970
 30
0.0
  0
SPLINE
  5
26e
100
AcDbEntity
  8
printingsheet2
 62
1
100
AcDbSpline
 70
8
 71
3
 72
8
 73
4
 74
0
 40
0
 40
0
 40
0
 40
0
 40
1
 40
1
 40
1
 40
1
 10
886.741178
 20
398.488290
 30
0.0
 10
795.544180
 20
412.077290
 30
0.0
 10
672.812183
 20
396.010290
 30
0.0
 10
540.557186
 20
365.930291
 30
0.0
  0
SPLINE
  5
26f
100
AcDbEntity
  8
printingsheet2
 62
1
100
AcDbSpline
 70
8
 71
3
 72
8
 73
4
 74
0
 40
0
 40
0
 40
0
 40
0
 40
1
 40
1
 40
1
 40
1
 10
540.557186
 20
365.930291
 30
0.0
 10
439.089189
 20
343.576291
 30
0.0
 10
342.740191
 20
318.168292
 30
0.0
 10
262.517193
 20
302.487292
 30
0.0
  0
SPLINE
  5
270
100
AcDbEntity
  8
printingsheet2
 62
1
100
AcDbSpline
 70
8
 71
3
 72
8
 73
4
 74
0
 40
0
 40
0
 40
0
 40
0
 40
1
 40
1
 40
1
 40
1
 10
262.517193
 20
302.487292
 30
0.0
 10
182.060195
 20
286.022293
 30
0.0
 10
117.730197
 20
279.285293
 30
0.0
 10
74.890198
 20
276.140293
 30
0.0
  0
SPLINE
  5
271
100
AcDbEntity
  8
printingsheet2
 62
1
100
AcDbSpline
 70
8
 71
3
 72
8
 73
4
 74
0
 40
0
 40
0
 40
0
 40
0
 40
1
 40
1
 40
1
 40
1
 10
74.890198
 20
276.140293
 30
0.0
 10
31.816199
 20
272.768293
 30
0.0
 10
10.231200
 20
272.999293
 30
0.0
 10
9.865200
 20
265.330293
 30
0.0
  0
SPLINE
  5
272
100
AcDbEntity
  8
printingsheet2
 62
1
100
AcDbSpline
 70
8
 71
3
 72
8
 73
4
 74
0
 40
0
 40
0
 40
0
 40
0
 40
1
 40
1
 40
1
 40
1
 10
9.865200
 20
265.330293
 30
0.0
 10
9.264200
 20
257.999294
 30
0.0
 10
29.881199
 20
242.768294
 30
0.0
 10
65.800198
 20
216.231295
 30
0.0
  0
SPLINE
  5
273
100
AcDbEntity
  8
printingsheet2
 62
1
100
AcDbSpline
 70
8
 71
3
 72
8
 73
4
 74
0
 40
0
 40
0
 40
0
 40
0
 40
1
 40
1
 40
1
 40
1
 10
65.800198
 20
216.231295
 30
0.0
 10
139.125197
 20
162.174296
 30
0.0
 10
250.615194
 20
90.056298
 30
0.0
 10
334.651192
 20
55.526299
 30
0.0
  0
SPLINE
  5
274
100
AcDbEntity
  8
printingsheet2
 62
1
100
AcDbSpline
 70
8
 71
3
 72
8
 73
4
 74
0
 40
0
 40
0
 40
0
 40
0
 40
1
 40
1
 40
1
 40
1
 10
334.651192
 20
55.526299
 30
0.0
 10
422.444189
 20
17.813300
 30
0.0
 10
482.784188
 20
17.687300
 30
0.0
 10
540.558186
 20
34.083299
 30
0.0
  0
LWPOLYLINE
  5
275
100
AcDbEntity
  8
printingsheet2
 62
1
100
AcDbPolyline
 90
1
 70
1
 10
305.910192
 20
1261.013168
 30
0.0
  0
SPLINE
  5
276
100
AcDbEntity
  8
printingsheet2
 62
1
100
AcDbSpline
 70
8
 71
3
 72
8
 73
4
 74
0
 40
0
 40
0
 40
0
 40
0
 40
1
 40
1
 40
1
 40
1
 10
540.558186
 20
30.055299
 30
0.0
 10
540.778186
 20
17.362300
 30
0.0
 10
545.314186
 20
8.520300
 30
0.0
 10
550.690186
 20
10.280300
 30
0.0
  0
SPLINE
  5
277
100
AcDbEntity
  8
printingsheet2
 62
1
100
AcDbSpline
 70
8
 71
3
 72
8
 73
4
 74
0
 40
0
 40
0
 40
0
 40
0
 40
1
 40
1
 40
1
 40
1
 10
550.690186
 20
10.280300
 30
0.0
 10
560.877186
 20
13.557300
 30
0.0
 10
571.064186
 20
16.747300
 30
0.0
 10
581.252185
 20
19.587300
 30
0.0
  0
SPLINE
  5
278
100
AcDbEntity
  8
printingsheet2
 62
1
100
AcDbSpline
 70
8
 71
3
 72
8
 73
4
 74
0
 40
0
 40
0
 40
0
 40
0
 40
1
 40
1
 40
1
 40
1
 10
581.252185
 20
19.587300
 30
0.0
 10
586.628185
 20
21.123299
 30
0.0
 10
595.932185
 20
33.372299
 30
0.0
 10
602.036185
 20
47.111299
 30
0.0
  0
SPLINE
  5
279
100
AcDbEntity
  8
printingsheet2
 62
1
100
AcDbSpline
 70
8
 71
3
 72
8
 73
4
 74
0
 40
0
 40
0
 40
0
 40
0
 40
1
 40
1
 40
1
 40
1
 10
602.036185
 20
47.111299
 30
0.0
 10
603.786185
 20
51.190299
 30
0.0
 10
605.536185
 20
55.269299
 30
0.0
 10
607.287185
 20
59.348299
 30
0.0
  0
SPLINE
  5
27a
100
AcDbEntity
  8
printingsheet2
 62
1
100
AcDbSpline
 70
8
 71
3
 72
8
 73
4
 74
0
 40
0
 40
0
 40
0
 40
0
 40
1
 40
1
 40
1
 40
1
 10
607.287185
 20
59.348299
 30
0.0
 10
657.517184
 20
80.931298
 30
0.0
 10
720.472182
 20
105.995297
 30
0.0
 10
795.983180
 20
122.827297
 30
0.0
  0
SPLINE
  5
27b
100
AcDbEntity
  8
printingsheet2
 62
1
100
AcDbSpline
 70
8
 71
3
 72
8
 73
4
 74
0
 40
0
 40
0
 40
0
 40
0
 40
1
 40
1
 40
1
 40
1
 10
795.983180
 20
122.827297
 30
0.0
 10
869.845178
 20
141.389296
 30
0.0
 10
956.262176
 20
151.720296
 30
0.0
 10
1015.317175
 20
183.782295
 30
0.0
  0
SPLINE
  5
27c
100
AcDbEntity
  8
printingsheet2
 62
1
100
AcDbSpline
 70
8
 71
3
 72
8
 73
4
 74
0
 40
0
 40
0
 40
0
 40
0
 40
1
 40
1
 40
1
 40
1
 10
1015.317175
 20
183.782295
 30
0.0
 10
1059.864174
 20
207.295295
 30
0.0
 10
1080.477173
 20
245.954294
 30
0.0
 10
1067.406173
 20
287.017293
 30
0.0
  0
SPLINE
  5
27d
100
AcDbEntity
  8
printingsheet2
 62
1
100
AcDbSpline
 70
8
 71
3
 72
8
 73
4
 74
0
 40
0
 40
0
 40
0
 40
0
 40
1
 40
1
 40
1
 40
1
 10
1067.406173
 20
287.017293
 30
0.0
 10
1054.869174
 20
327.524292
 30
0.0
 10
1008.646175
 20
370.435291
 30
0.0
 10
931.833177
 20
389.622290
 30
0.0
  0
SPLINE
  5
27e
100
AcDbEntity
  8
printingsheet2
 62
1
100
AcDbSpline
 70
8
 71
3
 72
8
 73
4
 74
0
 40
0
 40
0
 40
0
 40
0
 40
1
 40
1
 40
1
 40
1
 10
886.740178
 20
398.488290
 30
0.0
 10
886.740178
 20
431.669289
 30
0.0
 10
930.334177
 20
458.518289
 30
0.0
 10
984.207175
 20
458.518289
 30
0.0
  0
SPLINE
  5
27f
100
AcDbEntity
  8
printingsheet2
 62
1
100
AcDbSpline
 70
8
 71
3
 72
8
 73
4
 74
0
 40
0
 40
0
 40
0
 40
0
 40
1
 40
1
 40
1
 40
1
 10
932.328077
 20
389.518590
 30
0.0
 10
932.328077
 20
406.653590
 30
0.0
 10
959.957076
 20
420.518589
 30
0.0
 10
994.101075
 20
420.518589
 30
0.0
  0
LWPOLYLINE
  5
280
100
AcDbEntity
  8
printingsheet2
 62
1
100
AcDbPolyline
 90
2
 70
0
 10
540.558186
 20
34.083299
 30
0.0
 10
540.558186
 20
30.055299
 30
0.0
  0
SPLINE
  5
281
100
AcDbEntity
  8
printingsheet2
 62
1
100
AcDbSpline
 70
8
 71
3
 72
8
 73
4
 74
0
 40
0
 40
0
 40
0
 40
0
 40
1
 40
1
 40
1
 40
1
 10
505.725087
 20
137.588897
 30
0.0
 10
505.416087
 20
134.471897
 30
0.0
 10
502.639087
 20
132.198897
 30
0.0
 10
499.522088
 20
132.509897
 30
0.0
  0
SPLINE
  5
282
100
AcDbEntity
  8
printingsheet2
 62
1
100
AcDbSpline
 70
8
 71
3
 72
8
 73
4
 74
0
 40
0
 40
0
 40
0
 40
0
 40
1
 40
1
 40
1
 40
1
 10
499.522088
 20
132.509897
 30
0.0
 10
496.407088
 20
132.820897
 30
0.0
 10
494.134088
 20
135.596897
 30
0.0
 10
494.444088
 20
138.713897
 30
0.0
  0
SPLINE
  5
283
100
AcDbEntity
  8
printingsheet2
 62
1
100
AcDbSpline
 70
8
 71
3
 72
8
 73
4
 74
0
 40
0
 40
0
 40
0
 40
0
 40
1
 40
1
 40
1
 40
1
 10
494.444088
 20
138.713897
 30
0.0
 10
494.755088
 20
141.830896
 30
0.0
 10
497.532088
 20
144.103896
 30
0.0
 10
500.648087
 20
143.791896
 30
0.0
  0
SPLINE
  5
284
100
AcDbEntity
  8
printingsheet2
 62
1
100
AcDbSpline
 70
8
 71
3
 72
8
 73
4
 74
0
 40
0
 40
0
 40
0
 40
0
 40
1
 40
1
 40
1
 40
1
 10
500.648087
 20
143.791896
 30
0.0
 10
503.764087
 20
143.480896
 30
0.0
 10
506.038087
 20
140.705896
 30
0.0
 10
505.725087
 20
137.588897
 30
0.0
  0
LWPOLYLINE
  5
285
100
AcDbEntity
  8
printingsheet2
 62
1
100
AcDbPolyline
 90
2
 70
0
 10
984.206975
 20
458.518589
 30
0.0
 10
994.101975
 20
420.518589
 30
0.0
  0
SPLINE
  5
286
100
AcDbEntity
  8
printingsheet2
 62
1
100
AcDbSpline
 70
8
 71
3
 72
8
 73
4
 74
0
 40
0
 40
0
 40
0
 40
0
 40
1
 40
1
 40
1
 40
1
 10
740.535581
 20
228.994094
 30
0.0
 10
740.535581
 20
225.471094
 30
0.0
 10
737.680582
 20
222.615094
 30
0.0
 10
734.156582
 20
222.615094
 30
0.0
  0
SPLINE
  5
287
100
AcDbEntity
  8
printingsheet2
 62
1
100
AcDbSpline
 70
8
 71
3
 72
8
 73
4
 74
0
 40
0
 40
0
 40
0
 40
0
 40
1
 40
1
 40
1
 40
1
 10
734.156582
 20
222.615094
 30
0.0
 10
730.633582
 20
222.615094
 30
0.0
 10
727.779582
 20
225.471094
 30
0.0
 10
727.779582
 20
228.994094
 30
0.0
  0
SPLINE
  5
288
100
AcDbEntity
  8
printingsheet2
 62
1
100
AcDbSpline
 70
8
 71
3
 72
8
 73
4
 74
0
 40
0
 40
0
 40
0
 40
0
 40
1
 40
1
 40
1
 40
1
 10
727.779582
 20
228.994094
 30
0.0
 10
727.779582
 20
232.516094
 30
0.0
 10
730.633582
 20
235.371094
 30
0.0
 10
734.156582
 20
235.371094
 30
0.0
  0
SPLINE
  5
289
100
AcDbEntity
  8
printingsheet2
 62
1
100
AcDbSpline
 70
8
 71
3
 72
8
 73
4
 74
0
 40
0
 40
0
 40
0
 40
0
 40
1
 40
1
 40
1
 40
1
 10
734.156582
 20
235.371094
 30
0.0
 10
737.680582
 20
235.371094
 30
0.0
 10
740.535581
 20
232.516094
 30
0.0
 10
740.535581
 20
228.994094
 30
0.0
  0
LWPOLYLINE
  5
28a
100
AcDbEntity
  8
printingsheet2
 62
1
100
AcDbPolyline
 90
1
 70
1
 10
505.725087
 20
137.588897
 30
0.0
  0
SPLINE
  5
28b
100
AcDbEntity
  8
printingsheet2
 62
1
100
AcDbSpline
 70
8
 71
3
 72
8
 73
4
 74
0
 40
0
 40
0
 40
0
 40
0
 40
1
 40
1
 40
1
 40
1
 10
506.463387
 20
301.126992
 30
0.0
 10
506.463387
 20
297.603993
 30
0.0
 10
503.608387
 20
294.747993
 30
0.0
 10
500.084387
 20
294.747993
 30
0.0
  0
SPLINE
  5
28c
100
AcDbEntity
  8
printingsheet2
 62
1
100
AcDbSpline
 70
8
 71
3
 72
8
 73
4
 74
0
 40
0
 40
0
 40
0
 40
0
 40
1
 40
1
 40
1
 40
1
 10
500.084387
 20
294.747993
 30
0.0
 10
496.561388
 20
294.747993
 30
0.0
 10
493.707388
 20
297.603993
 30
0.0
 10
493.707388
 20
301.126992
 30
0.0
  0
SPLINE
  5
28d
100
AcDbEntity
  8
printingsheet2
 62
1
100
AcDbSpline
 70
8
 71
3
 72
8
 73
4
 74
0
 40
0
 40
0
 40
0
 40
0
 40
1
 40
1
 40
1
 40
1
 10
493.707388
 20
301.126992
 30
0.0
 10
493.707388
 20
304.648992
 30
0.0
 10
496.561388
 20
307.503992
 30
0.0
 10
500.084387
 20
307.503992
 30
0.0
  0
SPLINE
  5
28e
100
AcDbEntity
  8
printingsheet2
 62
1
100
AcDbSpline
 70
8
 71
3
 72
8
 73
4
 74
0
 40
0
 40
0
 40
0
 40
0
 40
1
 40
1
 40
1
 40
1
 10
500.084387
 20
307.503992
 30
0.0
 10
503.608387
 20
307.503992
 30
0.0
 10
506.463387
 20
304.648992
 30
0.0
 10
506.463387
 20
301.126992
 30
0.0
  0
LWPOLYLINE
  5
28f
100
AcDbEntity
  8
printingsheet2
 62
1
100
AcDbPolyline
 90
1
 70
1
 10
740.535581
 20
228.994094
 30
0.0
  0
SPLINE
  5
290
100
AcDbEntity
  8
printingsheet2
 62
1
100
AcDbSpline
 70
8
 71
3
 72
8
 73
4
 74
0
 40
0
 40
0
 40
0
 40
0
 40
1
 40
1
 40
1
 40
1
 10
568.436986
 20
28.019499
 30
0.0
 10
568.436986
 20
24.496499
 30
0.0
 10
565.581986
 20
21.640499
 30
0.0
 10
562.057986
 20
21.640499
 30
0.0
  0
SPLINE
  5
291
100
AcDbEntity
  8
printingsheet2
 62
1
100
AcDbSpline
 70
8
 71
3
 72
8
 73
4
 74
0
 40
0
 40
0
 40
0
 40
0
 40
1
 40
1
 40
1
 40
1
 10
562.057986
 20
21.640499
 30
0.0
 10
558.534986
 20
21.640499
 30
0.0
 10
555.680986
 20
24.496499
 30
0.0
 10
555.680986
 20
28.019499
 30
0.0
  0
SPLINE
  5
292
100
AcDbEntity
  8
printingsheet2
 62
1
100
AcDbSpline
 70
8
 71
3
 72
8
 73
4
 74
0
 40
0
 40
0
 40
0
 40
0
 40
1
 40
1
 40
1
 40
1
 10
555.680986
 20
28.019499
 30
0.0
 10
555.680986
 20
31.541499
 30
0.0
 10
558.534986
 20
34.396499
 30
0.0
 10
562.057986
 20
34.396499
 30
0.0
  0
SPLINE
  5
293
100
AcDbEntity
  8
printingsheet2
 62
1
100
AcDbSpline
 70
8
 71
3
 72
8
 73
4
 74
0
 40
0
 40
0
 40
0
 40
0
 40
1
 40
1
 40
1
 40
1
 10
562.057986
 20
34.396499
 30
0.0
 10
565.581986
 20
34.396499
 30
0.0
 10
568.436986
 20
31.541499
 30
0.0
 10
568.436986
 20
28.019499
 30
0.0
  0
LWPOLYLINE
  5
294
100
AcDbEntity
  8
printingsheet2
 62
1
100
AcDbPolyline
 90
1
 70
1
 10
506.463387
 20
301.126992
 30
0.0
  0
SPLINE
  5
295
100
AcDbEntity
  8
printingsheet2
 62
1
100
AcDbSpline
 70
8
 71
3
 72
8
 73
4
 74
0
 40
0
 40
0
 40
0
 40
0
 40
1
 40
1
 40
1
 40
1
 10
976.412076
 20
437.957989
 30
0.0
 10
976.412076
 20
434.434989
 30
0.0
 10
973.557076
 20
431.578989
 30
0.0
 10
970.033076
 20
431.578989
 30
0.0
  0
SPLINE
  5
296
100
AcDbEntity
  8
printingsheet2
 62
1
100
AcDbSpline
 70
8
 71
3
 72
8
 73
4
 74
0
 40
0
 40
0
 40
0
 40
0
 40
1
 40
1
 40
1
 40
1
 10
970.033076
 20
431.578989
 30
0.0
 10
966.510076
 20
431.578989
 30
0.0
 10
963.656076
 20
434.434989
 30
0.0
 10
963.656076
 20
437.957989
 30
0.0
  0
SPLINE
  5
297
100
AcDbEntity
  8
printingsheet2
 62
1
100
AcDbSpline
 70
8
 71
3
 72
8
 73
4
 74
0
 40
0
 40
0
 40
0
 40
0
 40
1
 40
1
 40
1
 40
1
 10
963.656076
 20
437.957989
 30
0.0
 10
963.656076
 20
441.479989
 30
0.0
 10
966.510076
 20
444.334989
 30
0.0
 10
970.033076
 20
444.334989
 30
0.0
  0
SPLINE
  5
298
100
AcDbEntity
  8
printingsheet2
 62
1
100
AcDbSpline
 70
8
 71
3
 72
8
 73
4
 74
0
 40
0
 40
0
 40
0
 40
0
 40
1
 40
1
 40
1
 40
1
 10
970.033076
 20
444.334989
 30
0.0
 10
973.557076
 20
444.334989
 30
0.0
 10
976.412076
 20
441.479989
 30
0.0
 10
976.412076
 20
437.957989
 30
0.0
  0
LWPOLYLINE
  5
299
100
AcDbEntity
  8
printingsheet2
 62
1
100
AcDbPolyline
 90
1
 70
1
 10
568.436986
 20
28.019499
 30
0.0
  0
SPLINE
  5
29a
100
AcDbEntity
  8
printingsheet2
 62
1
100
AcDbSpline
 70
8
 71
3
 72
8
 73
4
 74
0
 40
0
 40
0
 40
0
 40
0
 40
1
 40
1
 40
1
 40
1
 10
1020.456974
 20
295.546893
 30
0.0
 10
1020.456974
 20
292.024893
 30
0.0
 10
1017.601975
 20
289.168893
 30
0.0
 10
1014.077975
 20
289.168893
 30
0.0
  0
SPLINE
  5
29b
100
AcDbEntity
  8
printingsheet2
 62
1
100
AcDbSpline
 70
8
 71
3
 72
8
 73
4
 74
0
 40
0
 40
0
 40
0
 40
0
 40
1
 40
1
 40
1
 40
1
 10
1014.077975
 20
289.168893
 30
0.0
 10
1010.554975
 20
289.168893
 30
0.0
 10
1007.700975
 20
292.024893
 30
0.0
 10
1007.700975
 20
295.546893
 30
0.0
  0
SPLINE
  5
29c
100
AcDbEntity
  8
printingsheet2
 62
1
100
AcDbSpline
 70
8
 71
3
 72
8
 73
4
 74
0
 40
0
 40
0
 40
0
 40
0
 40
1
 40
1
 40
1
 40
1
 10
1007.700975
 20
295.546893
 30
0.0
 10
1007.700975
 20
299.068893
 30
0.0
 10
1010.554975
 20
301.924892
 30
0.0
 10
1014.077975
 20
301.924892
 30
0.0
  0
SPLINE
  5
29d
100
AcDbEntity
  8
printingsheet2
 62
1
100
AcDbSpline
 70
8
 71
3
 72
8
 73
4
 74
0
 40
0
 40
0
 40
0
 40
0
 40
1
 40
1
 40
1
 40
1
 10
1014.077975
 20
301.924892
 30
0.0
 10
1017.601975
 20
301.924892
 30
0.0
 10
1020.456974
 20
299.068893
 30
0.0
 10
1020.456974
 20
295.546893
 30
0.0
  0
LWPOLYLINE
  5
29e
100
AcDbEntity
  8
printingsheet2
 62
1
100
AcDbPolyline
 90
1
 70
1
 10
976.412076
 20
437.957989
 30
0.0
  0
SPLINE
  5
29f
100
AcDbEntity
  8
printingsheet2
 62
1
100
AcDbSpline
 70
8
 71
3
 72
8
 73
4
 74
0
 40
0
 40
0
 40
0
 40
0
 40
1
 40
1
 40
1
 40
1
 10
199.207495
 20
214.873995
 30
0.0
 10
199.207495
 20
211.350995
 30
0.0
 10
196.353495
 20
208.494995
 30
0.0
 10
192.829495
 20
208.494995
 30
0.0
  0
SPLINE
  5
2a0
100
AcDbEntity
  8
printingsheet2
 62
1
100
AcDbSpline
 70
8
 71
3
 72
8
 73
4
 74
0
 40
0
 40
0
 40
0
 40
0
 40
1
 40
1
 40
1
 40
1
 10
192.829495
 20
208.494995
 30
0.0
 10
189.306495
 20
208.494995
 30
0.0
 10
186.451495
 20
211.350995
 30
0.0
 10
186.451495
 20
214.873995
 30
0.0
  0
SPLINE
  5
2a1
100
AcDbEntity
  8
printingsheet2
 62
1
100
AcDbSpline
 70
8
 71
3
 72
8
 73
4
 74
0
 40
0
 40
0
 40
0
 40
0
 40
1
 40
1
 40
1
 40
1
 10
186.451495
 20
214.873995
 30
0.0
 10
186.451495
 20
218.395995
 30
0.0
 10
189.306495
 20
221.250994
 30
0.0
 10
192.829495
 20
221.250994
 30
0.0
  0
SPLINE
  5
2a2
100
AcDbEntity
  8
printingsheet2
 62
1
100
AcDbSpline
 70
8
 71
3
 72
8
 73
4
 74
0
 40
0
 40
0
 40
0
 40
0
 40
1
 40
1
 40
1
 40
1
 10
192.829495
 20
221.250994
 30
0.0
 10
196.353495
 20
221.250994
 30
0.0
 10
199.207495
 20
218.395995
 30
0.0
 10
199.207495
 20
214.873995
 30
0.0
  0
LWPOLYLINE
  5
2a3
100
AcDbEntity
  8
printingsheet2
 62
1
100
AcDbPolyline
 90
1
 70
1
 10
1020.456974
 20
295.546893
 30
0.0
  0
SPLINE
  5
2a4
100
AcDbEntity
  8
printingsheet2
 62
1
100
AcDbSpline
 70
8
 71
3
 72
8
 73
4
 74
0
 40
0
 40
0
 40
0
 40
0
 40
1
 40
1
 40
1
 40
1
 10
848.877879
 20
260.063493
 30
0.0
 10
844.963879
 20
260.048493
 30
0.0
 10
841.777879
 20
263.210493
 30
0.0
 10
841.764879
 20
267.125493
 30
0.0
  0
SPLINE
  5
2a5
100
AcDbEntity
  8
printingsheet2
 62
1
100
AcDbSpline
 70
8
 71
3
 72
8
 73
4
 74
0
 40
0
 40
0
 40
0
 40
0
 40
1
 40
1
 40
1
 40
1
 10
841.764879
 20
267.125493
 30
0.0
 10
841.750879
 20
271.039493
 30
0.0
 10
844.912879
 20
274.221493
 30
0.0
 10
848.826879
 20
274.236493
 30
0.0
  0
SPLINE
  5
2a6
100
AcDbEntity
  8
printingsheet2
 62
1
100
AcDbSpline
 70
8
 71
3
 72
8
 73
4
 74
0
 40
0
 40
0
 40
0
 40
0
 40
1
 40
1
 40
1
 40
1
 10
848.826879
 20
274.236493
 30
0.0
 10
852.742879
 20
274.250493
 30
0.0
 10
855.924879
 20
271.088493
 30
0.0
 10
855.940879
 20
267.174493
 30
0.0
  0
SPLINE
  5
2a7
100
AcDbEntity
  8
printingsheet2
 62
1
100
AcDbSpline
 70
8
 71
3
 72
8
 73
4
 74
0
 40
0
 40
0
 40
0
 40
0
 40
1
 40
1
 40
1
 40
1
 10
855.940879
 20
267.174493
 30
0.0
 10
855.953879
 20
263.259493
 30
0.0
 10
852.793879
 20
260.077493
 30
0.0
 10
848.877879
 20
260.063493
 30
0.0
  0
LWPOLYLINE
  5
2a8
100
AcDbEntity
  8
printingsheet2
 62
1
100
AcDbPolyline
 90
1
 70
1
 10
199.207495
 20
214.873995
 30
0.0
  0
SPLINE
  5
2a9
100
AcDbEntity
  8
printingsheet2
 62
1
100
AcDbSpline
 70
8
 71
3
 72
8
 73
4
 74
0
 40
0
 40
0
 40
0
 40
0
 40
1
 40
1
 40
1
 40
1
 10
848.651379
 20
323.841792
 30
0.0
 10
844.739379
 20
323.827792
 30
0.0
 10
841.555379
 20
326.988792
 30
0.0
 10
841.542379
 20
330.904792
 30
0.0
  0
SPLINE
  5
2aa
100
AcDbEntity
  8
printingsheet2
 62
1
100
AcDbSpline
 70
8
 71
3
 72
8
 73
4
 74
0
 40
0
 40
0
 40
0
 40
0
 40
1
 40
1
 40
1
 40
1
 10
841.542379
 20
330.904792
 30
0.0
 10
841.528379
 20
334.818792
 30
0.0
 10
844.688379
 20
338.001792
 30
0.0
 10
848.604379
 20
338.015792
 30
0.0
  0
SPLINE
  5
2ab
100
AcDbEntity
  8
printingsheet2
 62
1
100
AcDbSpline
 70
8
 71
3
 72
8
 73
4
 74
0
 40
0
 40
0
 40
0
 40
0
 40
1
 40
1
 40
1
 40
1
 10
848.604379
 20
338.015792
 30
0.0
 10
852.518379
 20
338.029792
 30
0.0
 10
855.700379
 20
334.866792
 30
0.0
 10
855.714379
 20
330.952792
 30
0.0
  0
SPLINE
  5
2ac
100
AcDbEntity
  8
printingsheet2
 62
1
100
AcDbSpline
 70
8
 71
3
 72
8
 73
4
 74
0
 40
0
 40
0
 40
0
 40
0
 40
1
 40
1
 40
1
 40
1
 10
855.714379
 20
330.952792
 30
0.0
 10
855.729379
 20
327.037792
 30
0.0
 10
852.569379
 20
323.855792
 30
0.0
 10
848.651379
 20
323.841792
 30
0.0
  0
LWPOLYLINE
  5
2ad
100
AcDbEntity
  8
printingsheet2
 62
1
100
AcDbPolyline
 90
1
 70
1
 10
848.877879
 20
260.063493
 30
0.0
  0
SPLINE
  5
2ae
100
AcDbEntity
  8
printingsheet2
 62
1
100
AcDbSpline
 70
8
 71
3
 72
8
 73
4
 74
0
 40
0
 40
0
 40
0
 40
0
 40
1
 40
1
 40
1
 40
1
 10
193.431595
 20
342.987291
 30
0.0
 10
284.628593
 20
329.399292
 30
0.0
 10
407.361590
 20
345.466291
 30
0.0
 10
539.614587
 20
375.548291
 30
0.0
  0
SPLINE
  5
2af
100
AcDbEntity
  8
printingsheet2
 62
1
100
AcDbSpline
 70
8
 71
3
 72
8
 73
4
 74
0
 40
0
 40
0
 40
0
 40
0
 40
1
 40
1
 40
1
 40
1
 10
539.614587
 20
375.548291
 30
0.0
 10
641.083584
 20
397.902290
 30
0.0
 10
737.432582
 20
423.311289
 30
0.0
 10
817.654580
 20
438.993289
 30
0.0
  0
SPLINE
  5
2b0
100
AcDbEntity
  8
printingsheet2
 62
1
100
AcDbSpline
 70
8
 71
3
 72
8
 73
4
 74
0
 40
0
 40
0
 40
0
 40
0
 40
1
 40
1
 40
1
 40
1
 10
817.654580
 20
438.993289
 30
0.0
 10
898.111578
 20
455.458289
 30
0.0
 10
962.441576
 20
462.196288
 30
0.0
 10
1005.281575
 20
465.341288
 30
0.0
  0
SPLINE
  5
2b1
100
AcDbEntity
  8
printingsheet2
 62
1
100
AcDbSpline
 70
8
 71
3
 72
8
 73
4
 74
0
 40
0
 40
0
 40
0
 40
0
 40
1
 40
1
 40
1
 40
1
 10
1005.281575
 20
465.341288
 30
0.0
 10
1048.355574
 20
468.714288
 30
0.0
 10
1069.940573
 20
468.483288
 30
0.0
 10
1070.306573
 20
476.151288
 30
0.0
  0
SPLINE
  5
2b2
100
AcDbEntity
  8
printingsheet2
 62
1
100
AcDbSpline
 70
8
 71
3
 72
8
 73
4
 74
0
 40
0
 40
0
 40
0
 40
0
 40
1
 40
1
 40
1
 40
1
 10
1070.306573
 20
476.151288
 30
0.0
 10
1070.907573
 20
483.482288
 30
0.0
 10
1050.289574
 20
498.713288
 30
0.0
 10
1014.370575
 20
525.250287
 30
0.0
  0
SPLINE
  5
2b3
100
AcDbEntity
  8
printingsheet2
 62
1
100
AcDbSpline
 70
8
 71
3
 72
8
 73
4
 74
0
 40
0
 40
0
 40
0
 40
0
 40
1
 40
1
 40
1
 40
1
 10
1014.370575
 20
525.250287
 30
0.0
 10
941.045576
 20
579.306286
 30
0.0
 10
829.555579
 20
651.423284
 30
0.0
 10
745.518581
 20
685.952283
 30
0.0
  0
SPLINE
  5
2b4
100
AcDbEntity
  8
printingsheet2
 62
1
100
AcDbSpline
 70
8
 71
3
 72
8
 73
4
 74
0
 40
0
 40
0
 40
0
 40
0
 40
1
 40
1
 40
1
 40
1
 10
745.518581
 20
685.952283
 30
0.0
 10
657.724584
 20
723.665282
 30
0.0
 10
597.384585
 20
723.792282
 30
0.0
 10
539.611587
 20
707.395282
 30
0.0
  0
LWPOLYLINE
  5
2b5
100
AcDbEntity
  8
printingsheet2
 62
1
100
AcDbPolyline
 90
1
 70
1
 10
848.651379
 20
323.841792
 30
0.0
  0
SPLINE
  5
2b6
100
AcDbEntity
  8
printingsheet2
 62
1
100
AcDbSpline
 70
8
 71
3
 72
8
 73
4
 74
0
 40
0
 40
0
 40
0
 40
0
 40
1
 40
1
 40
1
 40
1
 10
539.611587
 20
711.422282
 30
0.0
 10
539.391587
 20
724.115282
 30
0.0
 10
534.855587
 20
732.957282
 30
0.0
 10
529.479587
 20
731.197282
 30
0.0
  0
SPLINE
  5
2b7
100
AcDbEntity
  8
printingsheet2
 62
1
100
AcDbSpline
 70
8
 71
3
 72
8
 73
4
 74
0
 40
0
 40
0
 40
0
 40
0
 40
1
 40
1
 40
1
 40
1
 10
529.479587
 20
731.197282
 30
0.0
 10
519.292587
 20
727.920282
 30
0.0
 10
509.104587
 20
724.730282
 30
0.0
 10
498.917588
 20
721.890282
 30
0.0
  0
SPLINE
  5
2b8
100
AcDbEntity
  8
printingsheet2
 62
1
100
AcDbSpline
 70
8
 71
3
 72
8
 73
4
 74
0
 40
0
 40
0
 40
0
 40
0
 40
1
 40
1
 40
1
 40
1
 10
498.917588
 20
721.890282
 30
0.0
 10
493.541588
 20
720.353282
 30
0.0
 10
484.236588
 20
708.104282
 30
0.0
 10
478.133588
 20
694.366283
 30
0.0
  0
SPLINE
  5
2b9
100
AcDbEntity
  8
printingsheet2
 62
1
100
AcDbSpline
 70
8
 71
3
 72
8
 73
4
 74
0
 40
0
 40
0
 40
0
 40
0
 40
1
 40
1
 40
1
 40
1
 10
478.133588
 20
694.366283
 30
0.0
 10
476.383588
 20
690.287283
 30
0.0
 10
474.632588
 20
686.208283
 30
0.0
 10
472.882588
 20
682.129283
 30
0.0
  0
SPLINE
  5
2ba
100
AcDbEntity
  8
printingsheet2
 62
1
100
AcDbSpline
 70
8
 71
3
 72
8
 73
4
 74
0
 40
0
 40
0
 40
0
 40
0
 40
1
 40
1
 40
1
 40
1
 10
472.882588
 20
682.129283
 30
0.0
 10
422.652589
 20
660.545283
 30
0.0
 10
359.697591
 20
635.481284
 30
0.0
 10
284.186593
 20
618.648285
 30
0.0
  0
SPLINE
  5
2bb
100
AcDbEntity
  8
printingsheet2
 62
1
100
AcDbSpline
 70
8
 71
3
 72
8
 73
4
 74
0
 40
0
 40
0
 40
0
 40
0
 40
1
 40
1
 40
1
 40
1
 10
284.186593
 20
618.648285
 30
0.0
 10
210.325595
 20
600.086285
 30
0.0
 10
123.907597
 20
589.754285
 30
0.0
 10
64.852598
 20
557.692286
 30
0.0
  0
SPLINE
  5
2bc
100
AcDbEntity
  8
printingsheet2
 62
1
100
AcDbSpline
 70
8
 71
3
 72
8
 73
4
 74
0
 40
0
 40
0
 40
0
 40
0
 40
1
 40
1
 40
1
 40
1
 10
64.852598
 20
557.692286
 30
0.0
 10
20.306599
 20
534.179287
 30
0.0
 10
-0.307400
 20
495.519288
 30
0.0
 10
12.764600
 20
454.457289
 30
0.0
  0
SPLINE
  5
2bd
100
AcDbEntity
  8
printingsheet2
 62
1
100
AcDbSpline
 70
8
 71
3
 72
8
 73
4
 74
0
 40
0
 40
0
 40
0
 40
0
 40
1
 40
1
 40
1
 40
1
 10
12.764600
 20
454.457289
 30
0.0
 10
25.302599
 20
413.950290
 30
0.0
 10
71.524598
 20
371.039291
 30
0.0
 10
148.339596
 20
351.853291
 30
0.0
  0
SPLINE
  5
2be
100
AcDbEntity
  8
printingsheet2
 62
1
100
AcDbSpline
 70
8
 71
3
 72
8
 73
4
 74
0
 40
0
 40
0
 40
0
 40
0
 40
1
 40
1
 40
1
 40
1
 10
193.431595
 20
342.987291
 30
0.0
 10
193.431595
 20
309.806292
 30
0.0
 10
149.837596
 20
282.957293
 30
0.0
 10
95.964598
 20
282.956293
 30
0.0
  0
SPLINE
  5
2bf
100
AcDbEntity
  8
printingsheet2
 62
1
100
AcDbSpline
 70
8
 71
3
 72
8
 73
4
 74
0
 40
0
 40
0
 40
0
 40
0
 40
1
 40
1
 40
1
 40
1
 10
147.843296
 20
351.956991
 30
0.0
 10
147.843296
 20
334.821992
 30
0.0
 10
120.215297
 20
320.955992
 30
0.0
 10
86.070298
 20
320.955992
 30
0.0
  0
LWPOLYLINE
  5
2c0
100
AcDbEntity
  8
printingsheet2
 62
1
100
AcDbPolyline
 90
2
 70
0
 10
539.611587
 20
707.395282
 30
0.0
 10
539.611587
 20
711.422282
 30
0.0
  0
SPLINE
  5
2c1
100
AcDbEntity
  8
printingsheet2
 62
1
100
AcDbSpline
 70
8
 71
3
 72
8
 73
4
 74
0
 40
0
 40
0
 40
0
 40
0
 40
1
 40
1
 40
1
 40
1
 10
574.445286
 20
603.889585
 30
0.0
 10
574.755286
 20
607.006585
 30
0.0
 10
577.532286
 20
609.279585
 30
0.0
 10
580.648285
 20
608.968585
 30
0.0
  0
SPLINE
  5
2c2
100
AcDbEntity
  8
printingsheet2
 62
1
100
AcDbSpline
 70
8
 71
3
 72
8
 73
4
 74
0
 40
0
 40
0
 40
0
 40
0
 40
1
 40
1
 40
1
 40
1
 10
580.648285
 20
608.968585
 30
0.0
 10
583.763285
 20
608.657585
 30
0.0
 10
586.036285
 20
605.881585
 30
0.0
 10
585.727285
 20
602.764585
 30
0.0
  0
SPLINE
  5
2c3
100
AcDbEntity
  8
printingsheet2
 62
1
100
AcDbSpline
 70
8
 71
3
 72
8
 73
4
 74
0
 40
0
 40
0
 40
0
 40
0
 40
1
 40
1
 40
1
 40
1
 10
585.727285
 20
602.764585
 30
0.0
 10
585.415285
 20
599.647585
 30
0.0
 10
582.638285
 20
597.374585
 30
0.0
 10
579.523286
 20
597.686585
 30
0.0
  0
SPLINE
  5
2c4
100
AcDbEntity
  8
printingsheet2
 62
1
100
AcDbSpline
 70
8
 71
3
 72
8
 73
4
 74
0
 40
0
 40
0
 40
0
 40
0
 40
1
 40
1
 40
1
 40
1
 10
579.523286
 20
597.686585
 30
0.0
 10
576.407286
 20
597.997585
 30
0.0
 10
574.133286
 20
600.772585
 30
0.0
 10
574.445286
 20
603.889585
 30
0.0
  0
LWPOLYLINE
  5
2c5
100
AcDbEntity
  8
printingsheet2
 62
1
100
AcDbPolyline
 90
2
 70
0
 10
95.964798
 20
282.956093
 30
0.0
 10
86.069798
 20
320.956092
 30
0.0
  0
SPLINE
  5
2c6
100
AcDbEntity
  8
printingsheet2
 62
1
100
AcDbSpline
 70
8
 71
3
 72
8
 73
4
 74
0
 40
0
 40
0
 40
0
 40
0
 40
1
 40
1
 40
1
 40
1
 10
339.635692
 20
512.482387
 30
0.0
 10
339.635692
 20
516.005387
 30
0.0
 10
342.490691
 20
518.861387
 30
0.0
 10
346.014691
 20
518.861387
 30
0.0
  0
SPLINE
  5
2c7
100
AcDbEntity
  8
printingsheet2
 62
1
100
AcDbSpline
 70
8
 71
3
 72
8
 73
4
 74
0
 40
0
 40
0
 40
0
 40
0
 40
1
 40
1
 40
1
 40
1
 10
346.014691
 20
518.861387
 30
0.0
 10
349.537691
 20
518.861387
 30
0.0
 10
352.391691
 20
516.005387
 30
0.0
 10
352.391691
 20
512.482387
 30
0.0
  0
SPLINE
  5
2c8
100
AcDbEntity
  8
printingsheet2
 62
1
100
AcDbSpline
 70
8
 71
3
 72
8
 73
4
 74
0
 40
0
 40
0
 40
0
 40
0
 40
1
 40
1
 40
1
 40
1
 10
352.391691
 20
512.482387
 30
0.0
 10
352.391691
 20
508.960387
 30
0.0
 10
349.537691
 20
506.105387
 30
0.0
 10
346.014691
 20
506.105387
 30
0.0
  0
SPLINE
  5
2c9
100
AcDbEntity
  8
printingsheet2
 62
1
100
AcDbSpline
 70
8
 71
3
 72
8
 73
4
 74
0
 40
0
 40
0
 40
0
 40
0
 40
1
 40
1
 40
1
 40
1
 10
346.014691
 20
506.105387
 30
0.0
 10
342.490691
 20
506.105387
 30
0.0
 10
339.635692
 20
508.960387
 30
0.0
 10
339.635692
 20
512.482387
 30
0.0
  0
LWPOLYLINE
  5
2ca
100
AcDbEntity
  8
printingsheet2
 62
1
100
AcDbPolyline
 90
1
 70
1
 10
574.445286
 20
603.889585
 30
0.0
  0
SPLINE
  5
2cb
100
AcDbEntity
  8
printingsheet2
 62
1
100
AcDbSpline
 70
8
 71
3
 72
8
 73
4
 74
0
 40
0
 40
0
 40
0
 40
0
 40
1
 40
1
 40
1
 40
1
 10
573.708986
 20
440.351589
 30
0.0
 10
573.708986
 20
443.874589
 30
0.0
 10
576.563986
 20
446.730589
 30
0.0
 10
580.087985
 20
446.730589
 30
0.0
  0
SPLINE
  5
2cc
100
AcDbEntity
  8
printingsheet2
 62
1
100
AcDbSpline
 70
8
 71
3
 72
8
 73
4
 74
0
 40
0
 40
0
 40
0
 40
0
 40
1
 40
1
 40
1
 40
1
 10
580.087985
 20
446.730589
 30
0.0
 10
583.610985
 20
446.730589
 30
0.0
 10
586.464985
 20
443.874589
 30
0.0
 10
586.464985
 20
440.351589
 30
0.0
  0
SPLINE
  5
2cd
100
AcDbEntity
  8
printingsheet2
 62
1
100
AcDbSpline
 70
8
 71
3
 72
8
 73
4
 74
0
 40
0
 40
0
 40
0
 40
0
 40
1
 40
1
 40
1
 40
1
 10
586.464985
 20
440.351589
 30
0.0
 10
586.464985
 20
436.829589
 30
0.0
 10
583.610985
 20
433.974589
 30
0.0
 10
580.087985
 20
433.974589
 30
0.0
  0
SPLINE
  5
2ce
100
AcDbEntity
  8
printingsheet2
 62
1
100
AcDbSpline
 70
8
 71
3
 72
8
 73
4
 74
0
 40
0
 40
0
 40
0
 40
0
 40
1
 40
1
 40
1
 40
1
 10
580.087985
 20
433.974589
 30
0.0
 10
576.563986
 20
433.974589
 30
0.0
 10
573.708986
 20
436.829589
 30
0.0
 10
573.708986
 20
440.351589
 30
0.0
  0
LWPOLYLINE
  5
2cf
100
AcDbEntity
  8
printingsheet2
 62
1
100
AcDbPolyline
 90
1
 70
1
 10
339.635692
 20
512.482387
 30
0.0
  0
SPLINE
  5
2d0
100
AcDbEntity
  8
printingsheet2
 62
1
100
AcDbSpline
 70
8
 71
3
 72
8
 73
4
 74
0
 40
0
 40
0
 40
0
 40
0
 40
1
 40
1
 40
1
 40
1
 10
511.732887
 20
713.458482
 30
0.0
 10
511.732887
 20
716.981482
 30
0.0
 10
514.587887
 20
719.837482
 30
0.0
 10
518.111887
 20
719.837482
 30
0.0
  0
SPLINE
  5
2d1
100
AcDbEntity
  8
printingsheet2
 62
1
100
AcDbSpline
 70
8
 71
3
 72
8
 73
4
 74
0
 40
0
 40
0
 40
0
 40
0
 40
1
 40
1
 40
1
 40
1
 10
518.111887
 20
719.837482
 30
0.0
 10
521.634887
 20
719.837482
 30
0.0
 10
524.488887
 20
716.981482
 30
0.0
 10
524.488887
 20
713.458482
 30
0.0
  0
SPLINE
  5
2d2
100
AcDbEntity
  8
printingsheet2
 62
1
100
AcDbSpline
 70
8
 71
3
 72
8
 73
4
 74
0
 40
0
 40
0
 40
0
 40
0
 40
1
 40
1
 40
1
 40
1
 10
524.488887
 20
713.458482
 30
0.0
 10
524.488887
 20
709.936482
 30
0.0
 10
521.634887
 20
707.081482
 30
0.0
 10
518.111887
 20
707.081482
 30
0.0
  0
SPLINE
  5
2d3
100
AcDbEntity
  8
printingsheet2
 62
1
100
AcDbSpline
 70
8
 71
3
 72
8
 73
4
 74
0
 40
0
 40
0
 40
0
 40
0
 40
1
 40
1
 40
1
 40
1
 10
518.111887
 20
707.081482
 30
0.0
 10
514.587887
 20
707.081482
 30
0.0
 10
511.732887
 20
709.936482
 30
0.0
 10
511.732887
 20
713.458482
 30
0.0
  0
LWPOLYLINE
  5
2d4
100
AcDbEntity
  8
printingsheet2
 62
1
100
AcDbPolyline
 90
1
 70
1
 10
573.708986
 20
440.351589
 30
0.0
  0
SPLINE
  5
2d5
100
AcDbEntity
  8
printingsheet2
 62
1
100
AcDbSpline
 70
8
 71
3
 72
8
 73
4
 74
0
 40
0
 40
0
 40
0
 40
0
 40
1
 40
1
 40
1
 40
1
 10
103.759797
 20
303.516592
 30
0.0
 10
103.759797
 20
307.039592
 30
0.0
 10
106.614797
 20
309.895592
 30
0.0
 10
110.138797
 20
309.895592
 30
0.0
  0
SPLINE
  5
2d6
100
AcDbEntity
  8
printingsheet2
 62
1
100
AcDbSpline
 70
8
 71
3
 72
8
 73
4
 74
0
 40
0
 40
0
 40
0
 40
0
 40
1
 40
1
 40
1
 40
1
 10
110.138797
 20
309.895592
 30
0.0
 10
113.661797
 20
309.895592
 30
0.0
 10
116.515797
 20
307.039592
 30
0.0
 10
116.515797
 20
303.516592
 30
0.0
  0
SPLINE
  5
2d7
100
AcDbEntity
  8
printingsheet2
 62
1
100
AcDbSpline
 70
8
 71
3
 72
8
 73
4
 74
0
 40
0
 40
0
 40
0
 40
0
 40
1
 40
1
 40
1
 40
1
 10
116.515797
 20
303.516592
 30
0.0
 10
116.515797
 20
299.994593
 30
0.0
 10
113.661797
 20
297.139593
 30
0.0
 10
110.138797
 20
297.139593
 30
0.0
  0
SPLINE
  5
2d8
100
AcDbEntity
  8
printingsheet2
 62
1
100
AcDbSpline
 70
8
 71
3
 72
8
 73
4
 74
0
 40
0
 40
0
 40
0
 40
0
 40
1
 40
1
 40
1
 40
1
 10
110.138797
 20
297.139593
 30
0.0
 10
106.614797
 20
297.139593
 30
0.0
 10
103.759797
 20
299.994593
 30
0.0
 10
103.759797
 20
303.516592
 30
0.0
  0
LWPOLYLINE
  5
2d9
100
AcDbEntity
  8
printingsheet2
 62
1
100
AcDbPolyline
 90
1
 70
1
 10
511.732887
 20
713.458482
 30
0.0
  0
SPLINE
  5
2da
100
AcDbEntity
  8
printingsheet2
 62
1
100
AcDbSpline
 70
8
 71
3
 72
8
 73
4
 74
0
 40
0
 40
0
 40
0
 40
0
 40
1
 40
1
 40
1
 40
1
 10
59.713899
 20
445.927689
 30
0.0
 10
59.713899
 20
449.449689
 30
0.0
 10
62.568898
 20
452.305689
 30
0.0
 10
66.092898
 20
452.305689
 30
0.0
  0
SPLINE
  5
2db
100
AcDbEntity
  8
printingsheet2
 62
1
100
AcDbSpline
 70
8
 71
3
 72
8
 73
4
 74
0
 40
0
 40
0
 40
0
 40
0
 40
1
 40
1
 40
1
 40
1
 10
66.092898
 20
452.305689
 30
0.0
 10
69.615898
 20
452.305689
 30
0.0
 10
72.469898
 20
449.449689
 30
0.0
 10
72.469898
 20
445.927689
 30
0.0
  0
SPLINE
  5
2dc
100
AcDbEntity
  8
printingsheet2
 62
1
100
AcDbSpline
 70
8
 71
3
 72
8
 73
4
 74
0
 40
0
 40
0
 40
0
 40
0
 40
1
 40
1
 40
1
 40
1
 10
72.469898
 20
445.927689
 30
0.0
 10
72.469898
 20
442.405689
 30
0.0
 10
69.615898
 20
439.549689
 30
0.0
 10
66.092898
 20
439.549689
 30
0.0
  0
SPLINE
  5
2dd
100
AcDbEntity
  8
printingsheet2
 62
1
100
AcDbSpline
 70
8
 71
3
 72
8
 73
4
 74
0
 40
0
 40
0
 40
0
 40
0
 40
1
 40
1
 40
1
 40
1
 10
66.092898
 20
439.549689
 30
0.0
 10
62.568898
 20
439.549689
 30
0.0
 10
59.713899
 20
442.405689
 30
0.0
 10
59.713899
 20
445.927689
 30
0.0
  0
LWPOLYLINE
  5
2de
100
AcDbEntity
  8
printingsheet2
 62
1
100
AcDbPolyline
 90
1
 70
1
 10
103.759797
 20
303.516592
 30
0.0
  0
SPLINE
  5
2df
100
AcDbEntity
  8
printingsheet2
 62
1
100
AcDbSpline
 70
8
 71
3
 72
8
 73
4
 74
0
 40
0
 40
0
 40
0
 40
0
 40
1
 40
1
 40
1
 40
1
 10
880.963878
 20
526.606387
 30
0.0
 10
880.963878
 20
530.129387
 30
0.0
 10
883.817878
 20
532.985387
 30
0.0
 10
887.341878
 20
532.985387
 30
0.0
  0
SPLINE
  5
2e0
100
AcDbEntity
  8
printingsheet2
 62
1
100
AcDbSpline
 70
8
 71
3
 72
8
 73
4
 74
0
 40
0
 40
0
 40
0
 40
0
 40
1
 40
1
 40
1
 40
1
 10
887.341878
 20
532.985387
 30
0.0
 10
890.864878
 20
532.985387
 30
0.0
 10
893.719878
 20
530.129387
 30
0.0
 10
893.719878
 20
526.606387
 30
0.0
  0
SPLINE
  5
2e1
100
AcDbEntity
  8
printingsheet2
 62
1
100
AcDbSpline
 70
8
 71
3
 72
8
 73
4
 74
0
 40
0
 40
0
 40
0
 40
0
 40
1
 40
1
 40
1
 40
1
 10
893.719878
 20
526.606387
 30
0.0
 10
893.719878
 20
523.084387
 30
0.0
 10
890.864878
 20
520.229387
 30
0.0
 10
887.341878
 20
520.229387
 30
0.0
  0
SPLINE
  5
2e2
100
AcDbEntity
  8
printingsheet2
 62
1
100
AcDbSpline
 70
8
 71
3
 72
8
 73
4
 74
0
 40
0
 40
0
 40
0
 40
0
 40
1
 40
1
 40
1
 40
1
 10
887.341878
 20
520.229387
 30
0.0
 10
883.817878
 20
520.229387
 30
0.0
 10
880.963878
 20
523.084387
 30
0.0
 10
880.963878
 20
526.606387
 30
0.0
  0
LWPOLYLINE
  5
2e3
100
AcDbEntity
  8
printingsheet2
 62
1
100
AcDbPolyline
 90
1
 70
1
 10
59.713899
 20
445.927689
 30
0.0
  0
SPLINE
  5
2e4
100
AcDbEntity
  8
printingsheet2
 62
1
100
AcDbSpline
 70
8
 71
3
 72
8
 73
4
 74
0
 40
0
 40
0
 40
0
 40
0
 40
1
 40
1
 40
1
 40
1
 10
109.405297
 20
480.983388
 30
0.0
 10
113.319297
 20
480.997388
 30
0.0
 10
116.503297
 20
477.836388
 30
0.0
 10
116.516297
 20
473.921388
 30
0.0
  0
SPLINE
  5
2e5
100
AcDbEntity
  8
printingsheet2
 62
1
100
AcDbSpline
 70
8
 71
3
 72
8
 73
4
 74
0
 40
0
 40
0
 40
0
 40
0
 40
1
 40
1
 40
1
 40
1
 10
116.516297
 20
473.921388
 30
0.0
 10
116.530297
 20
470.006388
 30
0.0
 10
113.368297
 20
466.824388
 30
0.0
 10
109.456297
 20
466.810388
 30
0.0
  0
SPLINE
  5
2e6
100
AcDbEntity
  8
printingsheet2
 62
1
100
AcDbSpline
 70
8
 71
3
 72
8
 73
4
 74
0
 40
0
 40
0
 40
0
 40
0
 40
1
 40
1
 40
1
 40
1
 10
109.456297
 20
466.810388
 30
0.0
 10
105.542297
 20
466.796388
 30
0.0
 10
102.356297
 20
469.958388
 30
0.0
 10
102.342297
 20
473.871388
 30
0.0
  0
SPLINE
  5
2e7
100
AcDbEntity
  8
printingsheet2
 62
1
100
AcDbSpline
 70
8
 71
3
 72
8
 73
4
 74
0
 40
0
 40
0
 40
0
 40
0
 40
1
 40
1
 40
1
 40
1
 10
102.342297
 20
473.871388
 30
0.0
 10
102.329297
 20
477.787388
 30
0.0
 10
105.491297
 20
480.968388
 30
0.0
 10
109.405297
 20
480.983388
 30
0.0
  0
LWPOLYLINE
  5
2e8
100
AcDbEntity
  8
printingsheet2
 62
1
100
AcDbPolyline
 90
1
 70
1
 10
880.963878
 20
526.606387
 30
0.0
  0
SPLINE
  5
2e9
100
AcDbEntity
  8
printingsheet2
 62
1
100
AcDbSpline
 70
8
 71
3
 72
8
 73
4
 74
0
 40
0
 40
0
 40
0
 40
0
 40
1
 40
1
 40
1
 40
1
 10
109.629897
 20
417.204090
 30
0.0
 10
113.543897
 20
417.218090
 30
0.0
 10
116.727897
 20
414.058090
 30
0.0
 10
116.740897
 20
410.142090
 30
0.0
  0
SPLINE
  5
2ea
100
AcDbEntity
  8
printingsheet2
 62
1
100
AcDbSpline
 70
8
 71
3
 72
8
 73
4
 74
0
 40
0
 40
0
 40
0
 40
0
 40
1
 40
1
 40
1
 40
1
 10
116.740897
 20
410.142090
 30
0.0
 10
116.754897
 20
406.228090
 30
0.0
 10
113.592897
 20
403.045090
 30
0.0
 10
109.678897
 20
403.031090
 30
0.0
  0
SPLINE
  5
2eb
100
AcDbEntity
  8
printingsheet2
 62
1
100
AcDbSpline
 70
8
 71
3
 72
8
 73
4
 74
0
 40
0
 40
0
 40
0
 40
0
 40
1
 40
1
 40
1
 40
1
 10
109.678897
 20
403.031090
 30
0.0
 10
105.764897
 20
403.018090
 30
0.0
 10
102.583897
 20
406.179090
 30
0.0
 10
102.568897
 20
410.093090
 30
0.0
  0
SPLINE
  5
2ec
100
AcDbEntity
  8
printingsheet2
 62
1
100
AcDbSpline
 70
8
 71
3
 72
8
 73
4
 74
0
 40
0
 40
0
 40
0
 40
0
 40
1
 40
1
 40
1
 40
1
 10
102.568897
 20
410.093090
 30
0.0
 10
102.553897
 20
414.008090
 30
0.0
 10
105.715897
 20
417.190090
 30
0.0
 10
109.629897
 20
417.204090
 30
0.0
  0
LWPOLYLINE
  5
2ed
100
AcDbEntity
  8
printingsheet2
 62
1
100
AcDbPolyline
 90
1
 70
1
 10
109.405297
 20
480.983388
 30
0.0
  0
LWPOLYLINE
  5
2ee
100
AcDbEntity
  8
printingsheet2
 62
1
100
AcDbPolyline
 90
1
 70
1
 10
109.629897
 20
417.204090
 30
0.0
  0
LWPOLYLINE
  5
2ef
100
AcDbEntity
  8
printingsheet2
 62
1
100
AcDbPolyline
 90
20
 70
1
 10
467.596188
 20
1162.553171
 30
0.0
 10
467.596188
 20
1148.522171
 30
0.0
 10
453.423189
 20
1148.522171
 30
0.0
 10
453.423189
 20
1162.553171
 30
0.0
 10
439.249189
 20
1162.553171
 30
0.0
 10
439.249189
 20
1148.522171
 30
0.0
 10
425.076189
 20
1148.522171
 30
0.0
 10
425.076189
 20
1162.553171
 30
0.0
 10
410.905190
 20
1162.553171
 30
0.0
 10
410.905190
 20
1077.513173
 30
0.0
 10
425.076189
 20
1077.513173
 30
0.0
 10
425.076189
 20
1091.544173
 30
0.0
 10
439.249189
 20
1091.544173
 30
0.0
 10
439.249189
 20
1077.513173
 30
0.0
 10
453.423189
 20
1077.513173
 30
0.0
 10
453.423189
 20
1091.544173
 30
0.0
 10
467.596188
 20
1091.544173
 30
0.0
 10
467.596188
 20
1077.513173
 30
0.0
 10
481.770188
 20
1077.513173
 30
0.0
 10
481.770188
 20
1162.553171
 30
0.0
  0
LWPOLYLINE
  5
2f0
100
AcDbEntity
  8
printingsheet2
 62
1
100
AcDbPolyline
 90
4
 70
1
 10
463.344988
 20
1115.851972
 30
0.0
 10
429.328989
 20
1115.851972
 30
0.0
 10
429.328989
 20
1124.213972
 30
0.0
 10
463.344988
 20
1124.213972
 30
0.0
  0
SPLINE
  5
2f1
100
AcDbEntity
  8
printingsheet2
 62
1
100
AcDbSpline
 70
8
 71
3
 72
8
 73
4
 74
0
 40
0
 40
0
 40
0
 40
0
 40
1
 40
1
 40
1
 40
1
 10
295.420893
 20
1103.112772
 30
0.0
 10
295.420893
 20
1099.198773
 30
0.0
 10
292.247893
 20
1096.025773
 30
0.0
 10
288.333893
 20
1096.025773
 30
0.0
  0
SPLINE
  5
2f2
100
AcDbEntity
  8
printingsheet2
 62
1
100
AcDbSpline
 70
8
 71
3
 72
8
 73
4
 74
0
 40
0
 40
0
 40
0
 40
0
 40
1
 40
1
 40
1
 40
1
 10
288.333893
 20
1096.025773
 30
0.0
 10
284.418893
 20
1096.025773
 30
0.0
 10
281.246893
 20
1099.198773
 30
0.0
 10
281.246893
 20
1103.112772
 30
0.0
  0
SPLINE
  5
2f3
100
AcDbEntity
  8
printingsheet2
 62
1
100
AcDbSpline
 70
8
 71
3
 72
8
 73
4
 74
0
 40
0
 40
0
 40
0
 40
0
 40
1
 40
1
 40
1
 40
1
 10
281.246893
 20
1103.112772
 30
0.0
 10
281.246893
 20
1107.026772
 30
0.0
 10
284.418893
 20
1110.199772
 30
0.0
 10
288.333893
 20
1110.199772
 30
0.0
  0
SPLINE
  5
2f4
100
AcDbEntity
  8
printingsheet2
 62
1
100
AcDbSpline
 70
8
 71
3
 72
8
 73
4
 74
0
 40
0
 40
0
 40
0
 40
0
 40
1
 40
1
 40
1
 40
1
 10
288.333893
 20
1110.199772
 30
0.0
 10
292.247893
 20
1110.199772
 30
0.0
 10
295.420893
 20
1107.026772
 30
0.0
 10
295.420893
 20
1103.112772
 30
0.0
  0
LWPOLYLINE
  5
2f5
100
AcDbEntity
  8
printingsheet2
 62
1
100
AcDbPolyline
 90
12
 70
1
 10
309.593792
 20
1162.353971
 30
0.0
 10
295.420793
 20
1162.353971
 30
0.0
 10
295.420793
 20
1148.180971
 30
0.0
 10
281.246793
 20
1148.180971
 30
0.0
 10
281.246793
 20
1162.353971
 30
0.0
 10
267.075793
 20
1162.353971
 30
0.0
 10
267.075793
 20
1148.180971
 30
0.0
 10
252.902794
 20
1148.180971
 30
0.0
 10
252.902794
 20
1079.018973
 30
0.0
 10
323.767792
 20
1079.018973
 30
0.0
 10
323.767792
 20
1148.180971
 30
0.0
 10
309.593792
 20
1148.180971
 30
0.0
  0
LWPOLYLINE
  5
2f6
100
AcDbEntity
  8
printingsheet2
 62
1
100
AcDbPolyline
 90
1
 70
1
 10
295.420893
 20
1103.112772
 30
0.0
  0
SPLINE
  5
2f7
100
AcDbEntity
  8
printingsheet2
 62
1
100
AcDbSpline
 70
8
 71
3
 72
8
 73
4
 74
0
 40
0
 40
0
 40
0
 40
0
 40
1
 40
1
 40
1
 40
1
 10
373.791991
 20
1103.112772
 30
0.0
 10
373.791991
 20
1099.198773
 30
0.0
 10
370.618991
 20
1096.025773
 30
0.0
 10
366.704991
 20
1096.025773
 30
0.0
  0
SPLINE
  5
2f8
100
AcDbEntity
  8
printingsheet2
 62
1
100
AcDbSpline
 70
8
 71
3
 72
8
 73
4
 74
0
 40
0
 40
0
 40
0
 40
0
 40
1
 40
1
 40
1
 40
1
 10
366.704991
 20
1096.025773
 30
0.0
 10
362.789991
 20
1096.025773
 30
0.0
 10
359.617991
 20
1099.198773
 30
0.0
 10
359.617991
 20
1103.112772
 30
0.0
  0
SPLINE
  5
2f9
100
AcDbEntity
  8
printingsheet2
 62
1
100
AcDbSpline
 70
8
 71
3
 72
8
 73
4
 74
0
 40
0
 40
0
 40
0
 40
0
 40
1
 40
1
 40
1
 40
1
 10
359.617991
 20
1103.112772
 30
0.0
 10
359.617991
 20
1107.026772
 30
0.0
 10
362.789991
 20
1110.199772
 30
0.0
 10
366.704991
 20
1110.199772
 30
0.0
  0
SPLINE
  5
2fa
100
AcDbEntity
  8
printingsheet2
 62
1
100
AcDbSpline
 70
8
 71
3
 72
8
 73
4
 74
0
 40
0
 40
0
 40
0
 40
0
 40
1
 40
1
 40
1
 40
1
 10
366.704991
 20
1110.199772
 30
0.0
 10
370.618991
 20
1110.199772
 30
0.0
 10
373.791991
 20
1107.026772
 30
0.0
 10
373.791991
 20
1103.112772
 30
0.0
  0
LWPOLYLINE
  5
2fb
100
AcDbEntity
  8
printingsheet2
 62
1
100
AcDbPolyline
 90
12
 70
1
 10
387.964790
 20
1162.353971
 30
0.0
 10
373.791791
 20
1162.353971
 30
0.0
 10
373.791791
 20
1148.180971
 30
0.0
 10
359.617791
 20
1148.180971
 30
0.0
 10
359.617791
 20
1162.353971
 30
0.0
 10
345.446791
 20
1162.353971
 30
0.0
 10
345.446791
 20
1148.180971
 30
0.0
 10
331.273792
 20
1148.180971
 30
0.0
 10
331.273792
 20
1079.018973
 30
0.0
 10
402.138790
 20
1079.018973
 30
0.0
 10
402.138790
 20
1148.180971
 30
0.0
 10
387.964790
 20
1148.180971
 30
0.0
  0
SPLINE
  5
2fc
100
AcDbEntity
  8
printingsheet2
 62
1
100
AcDbSpline
 70
8
 71
3
 72
8
 73
4
 74
0
 40
0
 40
0
 40
0
 40
0
 40
1
 40
1
 40
1
 40
1
 10
41.545399
 20
1156.168471
 30
0.0
 10
41.545399
 20
1153.819471
 30
0.0
 10
39.642399
 20
1151.916471
 30
0.0
 10
37.293399
 20
1151.916471
 30
0.0
  0
SPLINE
  5
2fd
100
AcDbEntity
  8
printingsheet2
 62
1
100
AcDbSpline
 70
8
 71
3
 72
8
 73
4
 74
0
 40
0
 40
0
 40
0
 40
0
 40
1
 40
1
 40
1
 40
1
 10
37.293399
 20
1151.916471
 30
0.0
 10
34.944399
 20
1151.916471
 30
0.0
 10
33.041399
 20
1153.819471
 30
0.0
 10
33.041399
 20
1156.168471
 30
0.0
  0
SPLINE
  5
2fe
100
AcDbEntity
  8
printingsheet2
 62
1
100
AcDbSpline
 70
8
 71
3
 72
8
 73
4
 74
0
 40
0
 40
0
 40
0
 40
0
 40
1
 40
1
 40
1
 40
1
 10
33.041399
 20
1156.168471
 30
0.0
 10
33.041399
 20
1158.517471
 30
0.0
 10
34.944399
 20
1160.420471
 30
0.0
 10
37.293399
 20
1160.420471
 30
0.0
  0
SPLINE
  5
2ff
100
AcDbEntity
  8
printingsheet2
 62
1
100
AcDbSpline
 70
8
 71
3
 72
8
 73
4
 74
0
 40
0
 40
0
 40
0
 40
0
 40
1
 40
1
 40
1
 40
1
 10
37.293399
 20
1160.420471
 30
0.0
 10
39.642399
 20
1160.420471
 30
0.0
 10
41.545399
 20
1158.517471
 30
0.0
 10
41.545399
 20
1156.168471
 30
0.0
  0
LWPOLYLINE
  5
300
100
AcDbEntity
  8
printingsheet2
 62
1
100
AcDbPolyline
 90
1
 70
1
 10
373.791991
 20
1103.112772
 30
0.0
  0
SPLINE
  5
301
100
AcDbEntity
  8
printingsheet2
 62
1
100
AcDbSpline
 70
8
 71
3
 72
8
 73
4
 74
0
 40
0
 40
0
 40
0
 40
0
 40
1
 40
1
 40
1
 40
1
 10
60.202598
 20
1166.090271
 30
0.0
 10
60.202598
 20
1162.277271
 30
0.0
 10
55.910599
 20
1159.188271
 30
0.0
 10
50.615599
 20
1159.188271
 30
0.0
  0
SPLINE
  5
302
100
AcDbEntity
  8
printingsheet2
 62
1
100
AcDbSpline
 70
8
 71
3
 72
8
 73
4
 74
0
 40
0
 40
0
 40
0
 40
0
 40
1
 40
1
 40
1
 40
1
 10
50.615599
 20
1159.188271
 30
0.0
 10
45.319599
 20
1159.188271
 30
0.0
 10
41.028599
 20
1162.277271
 30
0.0
 10
41.028599
 20
1166.090271
 30
0.0
  0
LWPOLYLINE
  5
303
100
AcDbEntity
  8
printingsheet2
 62
1
100
AcDbPolyline
 90
1
 70
1
 10
41.545399
 20
1156.168471
 30
0.0
  0
SPLINE
  5
304
100
AcDbEntity
  8
printingsheet2
 62
1
100
AcDbSpline
 70
8
 71
3
 72
8
 73
4
 74
0
 40
0
 40
0
 40
0
 40
0
 40
1
 40
1
 40
1
 40
1
 10
57.702599
 20
1092.806173
 30
0.0
 10
57.702599
 20
1088.892173
 30
0.0
 10
54.529599
 20
1085.719173
 30
0.0
 10
50.615599
 20
1085.719173
 30
0.0
  0
SPLINE
  5
305
100
AcDbEntity
  8
printingsheet2
 62
1
100
AcDbSpline
 70
8
 71
3
 72
8
 73
4
 74
0
 40
0
 40
0
 40
0
 40
0
 40
1
 40
1
 40
1
 40
1
 10
50.615599
 20
1085.719173
 30
0.0
 10
46.700599
 20
1085.719173
 30
0.0
 10
43.528599
 20
1088.892173
 30
0.0
 10
43.528599
 20
1092.806173
 30
0.0
  0
SPLINE
  5
306
100
AcDbEntity
  8
printingsheet2
 62
1
100
AcDbSpline
 70
8
 71
3
 72
8
 73
4
 74
0
 40
0
 40
0
 40
0
 40
0
 40
1
 40
1
 40
1
 40
1
 10
43.528599
 20
1092.806173
 30
0.0
 10
43.528599
 20
1096.720173
 30
0.0
 10
46.700599
 20
1099.893173
 30
0.0
 10
50.615599
 20
1099.893173
 30
0.0
  0
SPLINE
  5
307
100
AcDbEntity
  8
printingsheet2
 62
1
100
AcDbSpline
 70
8
 71
3
 72
8
 73
4
 74
0
 40
0
 40
0
 40
0
 40
0
 40
1
 40
1
 40
1
 40
1
 10
50.615599
 20
1099.893173
 30
0.0
 10
54.529599
 20
1099.893173
 30
0.0
 10
57.702599
 20
1096.720173
 30
0.0
 10
57.702599
 20
1092.806173
 30
0.0
  0
LWPOLYLINE
  5
308
100
AcDbEntity
  8
printingsheet2
 62
1
100
AcDbPolyline
 90
6
 70
0
 10
41.028599
 20
1166.090271
 30
0.0
 10
15.182600
 20
1166.090271
 30
0.0
 10
15.182600
 20
1081.051273
 30
0.0
 10
86.048598
 20
1081.051273
 30
0.0
 10
86.048598
 20
1166.090271
 30
0.0
 10
60.202598
 20
1166.090271
 30
0.0
  0
SPLINE
  5
309
100
AcDbEntity
  8
printingsheet2
 62
1
100
AcDbSpline
 70
8
 71
3
 72
8
 73
4
 74
0
 40
0
 40
0
 40
0
 40
0
 40
1
 40
1
 40
1
 40
1
 10
68.190898
 20
1156.168471
 30
0.0
 10
68.190898
 20
1153.819471
 30
0.0
 10
66.287898
 20
1151.916471
 30
0.0
 10
63.938898
 20
1151.916471
 30
0.0
  0
SPLINE
  5
30a
100
AcDbEntity
  8
printingsheet2
 62
1
100
AcDbSpline
 70
8
 71
3
 72
8
 73
4
 74
0
 40
0
 40
0
 40
0
 40
0
 40
1
 40
1
 40
1
 40
1
 10
63.938898
 20
1151.916471
 30
0.0
 10
61.589898
 20
1151.916471
 30
0.0
 10
59.686899
 20
1153.819471
 30
0.0
 10
59.686899
 20
1156.168471
 30
0.0
  0
SPLINE
  5
30b
100
AcDbEntity
  8
printingsheet2
 62
1
100
AcDbSpline
 70
8
 71
3
 72
8
 73
4
 74
0
 40
0
 40
0
 40
0
 40
0
 40
1
 40
1
 40
1
 40
1
 10
59.686899
 20
1156.168471
 30
0.0
 10
59.686899
 20
1158.517471
 30
0.0
 10
61.589898
 20
1160.420471
 30
0.0
 10
63.938898
 20
1160.420471
 30
0.0
  0
SPLINE
  5
30c
100
AcDbEntity
  8
printingsheet2
 62
1
100
AcDbSpline
 70
8
 71
3
 72
8
 73
4
 74
0
 40
0
 40
0
 40
0
 40
0
 40
1
 40
1
 40
1
 40
1
 10
63.938898
 20
1160.420471
 30
0.0
 10
66.287898
 20
1160.420471
 30
0.0
 10
68.190898
 20
1158.517471
 30
0.0
 10
68.190898
 20
1156.168471
 30
0.0
  0
LWPOLYLINE
  5
30d
100
AcDbEntity
  8
printingsheet2
 62
1
100
AcDbPolyline
 90
1
 70
1
 10
57.702599
 20
1092.806173
 30
0.0
  0
SPLINE
  5
30e
100
AcDbEntity
  8
printingsheet2
 62
1
100
AcDbSpline
 70
8
 71
3
 72
8
 73
4
 74
0
 40
0
 40
0
 40
0
 40
0
 40
1
 40
1
 40
1
 40
1
 10
223.447294
 20
1237.692869
 30
0.0
 10
223.447294
 20
1233.777869
 30
0.0
 10
220.276294
 20
1230.604869
 30
0.0
 10
216.361295
 20
1230.604869
 30
0.0
  0
SPLINE
  5
30f
100
AcDbEntity
  8
printingsheet2
 62
1
100
AcDbSpline
 70
8
 71
3
 72
8
 73
4
 74
0
 40
0
 40
0
 40
0
 40
0
 40
1
 40
1
 40
1
 40
1
 10
216.361295
 20
1230.604869
 30
0.0
 10
212.446295
 20
1230.604869
 30
0.0
 10
209.274295
 20
1233.777869
 30
0.0
 10
209.274295
 20
1237.692869
 30
0.0
  0
SPLINE
  5
310
100
AcDbEntity
  8
printingsheet2
 62
1
100
AcDbSpline
 70
8
 71
3
 72
8
 73
4
 74
0
 40
0
 40
0
 40
0
 40
0
 40
1
 40
1
 40
1
 40
1
 10
209.274295
 20
1237.692869
 30
0.0
 10
209.274295
 20
1241.606869
 30
0.0
 10
212.446295
 20
1244.778869
 30
0.0
 10
216.361295
 20
1244.778869
 30
0.0
  0
SPLINE
  5
311
100
AcDbEntity
  8
printingsheet2
 62
1
100
AcDbSpline
 70
8
 71
3
 72
8
 73
4
 74
0
 40
0
 40
0
 40
0
 40
0
 40
1
 40
1
 40
1
 40
1
 10
216.361295
 20
1244.778869
 30
0.0
 10
220.276294
 20
1244.778869
 30
0.0
 10
223.447294
 20
1241.606869
 30
0.0
 10
223.447294
 20
1237.692869
 30
0.0
  0
LWPOLYLINE
  5
312
100
AcDbEntity
  8
printingsheet2
 62
1
100
AcDbPolyline
 90
1
 70
1
 10
68.190898
 20
1156.168471
 30
0.0
  0
SPLINE
  5
313
100
AcDbEntity
  8
printingsheet2
 62
1
100
AcDbSpline
 70
8
 71
3
 72
8
 73
4
 74
0
 40
0
 40
0
 40
0
 40
0
 40
1
 40
1
 40
1
 40
1
 10
124.697297
 20
1115.037572
 30
0.0
 10
124.697297
 20
1111.122572
 30
0.0
 10
121.526297
 20
1107.949572
 30
0.0
 10
117.611297
 20
1107.949572
 30
0.0
  0
SPLINE
  5
314
100
AcDbEntity
  8
printingsheet2
 62
1
100
AcDbSpline
 70
8
 71
3
 72
8
 73
4
 74
0
 40
0
 40
0
 40
0
 40
0
 40
1
 40
1
 40
1
 40
1
 10
117.611297
 20
1107.949572
 30
0.0
 10
113.696297
 20
1107.949572
 30
0.0
 10
110.524297
 20
1111.122572
 30
0.0
 10
110.524297
 20
1115.037572
 30
0.0
  0
SPLINE
  5
315
100
AcDbEntity
  8
printingsheet2
 62
1
100
AcDbSpline
 70
8
 71
3
 72
8
 73
4
 74
0
 40
0
 40
0
 40
0
 40
0
 40
1
 40
1
 40
1
 40
1
 10
110.524297
 20
1115.037572
 30
0.0
 10
110.524297
 20
1118.951572
 30
0.0
 10
113.696297
 20
1122.123572
 30
0.0
 10
117.611297
 20
1122.123572
 30
0.0
  0
SPLINE
  5
316
100
AcDbEntity
  8
printingsheet2
 62
1
100
AcDbSpline
 70
8
 71
3
 72
8
 73
4
 74
0
 40
0
 40
0
 40
0
 40
0
 40
1
 40
1
 40
1
 40
1
 10
117.611297
 20
1122.123572
 30
0.0
 10
121.526297
 20
1122.123572
 30
0.0
 10
124.697297
 20
1118.951572
 30
0.0
 10
124.697297
 20
1115.037572
 30
0.0
  0
LWPOLYLINE
  5
317
100
AcDbEntity
  8
printingsheet2
 62
1
100
AcDbPolyline
 90
1
 70
1
 10
223.447294
 20
1237.692869
 30
0.0
  0
SPLINE
  5
318
100
AcDbEntity
  8
printingsheet2
 62
1
100
AcDbSpline
 70
8
 71
3
 72
8
 73
4
 74
0
 40
0
 40
0
 40
0
 40
0
 40
1
 40
1
 40
1
 40
1
 10
167.296396
 20
1205.610770
 30
0.0
 10
151.249396
 20
1205.610770
 30
0.0
 10
138.240397
 20
1192.602770
 30
0.0
 10
138.240397
 20
1176.555771
 30
0.0
  0
SPLINE
  5
319
100
AcDbEntity
  8
printingsheet2
 62
1
100
AcDbSpline
 70
8
 71
3
 72
8
 73
4
 74
0
 40
0
 40
0
 40
0
 40
0
 40
1
 40
1
 40
1
 40
1
 10
138.240397
 20
1176.555771
 30
0.0
 10
138.240397
 20
1160.508771
 30
0.0
 10
151.249396
 20
1147.499771
 30
0.0
 10
167.296396
 20
1147.499771
 30
0.0
  0
SPLINE
  5
31a
100
AcDbEntity
  8
printingsheet2
 62
1
100
AcDbSpline
 70
8
 71
3
 72
8
 73
4
 74
0
 40
0
 40
0
 40
0
 40
0
 40
1
 40
1
 40
1
 40
1
 10
167.296396
 20
1147.499771
 30
0.0
 10
183.343395
 20
1147.499771
 30
0.0
 10
196.352395
 20
1160.508771
 30
0.0
 10
196.352395
 20
1176.555771
 30
0.0
  0
SPLINE
  5
31b
100
AcDbEntity
  8
printingsheet2
 62
1
100
AcDbSpline
 70
8
 71
3
 72
8
 73
4
 74
0
 40
0
 40
0
 40
0
 40
0
 40
1
 40
1
 40
1
 40
1
 10
196.352395
 20
1176.555771
 30
0.0
 10
196.352395
 20
1192.602770
 30
0.0
 10
183.343395
 20
1205.610770
 30
0.0
 10
167.296396
 20
1205.610770
 30
0.0
  0
LWPOLYLINE
  5
31c
100
AcDbEntity
  8
printingsheet2
 62
1
100
AcDbPolyline
 90
1
 70
1
 10
124.697297
 20
1115.037572
 30
0.0
  0
LWPOLYLINE
  5
31d
100
AcDbEntity
  8
printingsheet2
 62
1
100
AcDbPolyline
 90
1
 70
1
 10
167.296396
 20
1205.610770
 30
0.0
  0
LWPOLYLINE
  5
31e
100
AcDbEntity
  8
printingsheet2
 62
1
100
AcDbPolyline
 90
4
 70
1
 10
237.662994
 20
1092.015973
 30
0.0
 10
96.929998
 20
1092.015973
 30
0.0
 10
96.929998
 20
1261.093968
 30
0.0
 10
237.662994
 20
1261.093968
 30
0.0
  0
LWPOLYLINE
  5
31f
100
AcDbEntity
  8
printingsheet2
 62
1
100
AcDbPolyline
 90
20
 70
1
 10
70.267098
 20
1055.784174
 30
0.0
 10
70.267098
 20
1041.610174
 30
0.0
 10
56.945099
 20
1041.610174
 30
0.0
 10
56.945099
 20
1055.784174
 30
0.0
 10
41.921099
 20
1055.784174
 30
0.0
 10
41.921099
 20
1041.610174
 30
0.0
 10
28.599099
 20
1041.610174
 30
0.0
 10
28.599099
 20
1055.784174
 30
0.0
 10
13.575100
 20
1055.784174
 30
0.0
 10
13.575100
 20
970.744176
 30
0.0
 10
28.599099
 20
970.744176
 30
0.0
 10
28.599099
 20
984.918175
 30
0.0
 10
41.921099
 20
984.918175
 30
0.0
 10
41.921099
 20
970.744176
 30
0.0
 10
56.945099
 20
970.744176
 30
0.0
 10
56.945099
 20
984.918175
 30
0.0
 10
70.267098
 20
984.918175
 30
0.0
 10
70.267098
 20
970.744176
 30
0.0
 10
84.441098
 20
970.744176
 30
0.0
 10
84.441098
 20
1055.784174
 30
0.0
  0
SPLINE
  5
320
100
AcDbEntity
  8
printingsheet2
 62
1
100
AcDbSpline
 70
8
 71
3
 72
8
 73
4
 74
0
 40
0
 40
0
 40
0
 40
0
 40
1
 40
1
 40
1
 40
1
 10
337.707992
 20
1024.562474
 30
0.0
 10
337.707992
 20
1021.039474
 30
0.0
 10
334.852992
 20
1018.183475
 30
0.0
 10
331.328992
 20
1018.183475
 30
0.0
  0
SPLINE
  5
321
100
AcDbEntity
  8
printingsheet2
 62
1
100
AcDbSpline
 70
8
 71
3
 72
8
 73
4
 74
0
 40
0
 40
0
 40
0
 40
0
 40
1
 40
1
 40
1
 40
1
 10
331.328992
 20
1018.183475
 30
0.0
 10
327.805992
 20
1018.183475
 30
0.0
 10
324.951992
 20
1021.039474
 30
0.0
 10
324.951992
 20
1024.562474
 30
0.0
  0
SPLINE
  5
322
100
AcDbEntity
  8
printingsheet2
 62
1
100
AcDbSpline
 70
8
 71
3
 72
8
 73
4
 74
0
 40
0
 40
0
 40
0
 40
0
 40
1
 40
1
 40
1
 40
1
 10
324.951992
 20
1024.562474
 30
0.0
 10
324.951992
 20
1028.083474
 30
0.0
 10
327.805992
 20
1030.939474
 30
0.0
 10
331.328992
 20
1030.939474
 30
0.0
  0
SPLINE
  5
323
100
AcDbEntity
  8
printingsheet2
 62
1
100
AcDbSpline
 70
8
 71
3
 72
8
 73
4
 74
0
 40
0
 40
0
 40
0
 40
0
 40
1
 40
1
 40
1
 40
1
 10
331.328992
 20
1030.939474
 30
0.0
 10
334.852992
 20
1030.939474
 30
0.0
 10
337.707992
 20
1028.083474
 30
0.0
 10
337.707992
 20
1024.562474
 30
0.0
  0
LWPOLYLINE
  5
324
100
AcDbEntity
  8
printingsheet2
 62
1
100
AcDbPolyline
 90
4
 70
1
 10
66.014998
 20
1023.469974
 30
0.0
 10
31.999999
 20
1023.469974
 30
0.0
 10
31.999999
 20
1031.406974
 30
0.0
 10
66.014998
 20
1031.406974
 30
0.0
  0
LWPOLYLINE
  5
325
100
AcDbEntity
  8
printingsheet2
 62
1
100
AcDbPolyline
 90
1
 70
1
 10
337.707992
 20
1024.562474
 30
0.0
  0
LWPOLYLINE
  5
326
100
AcDbEntity
  8
printingsheet2
 62
1
100
AcDbPolyline
 90
4
 70
1
 10
141.703996
 20
1035.426974
 30
0.0
 10
107.688997
 20
1035.426974
 30
0.0
 10
107.688997
 20
1043.079974
 30
0.0
 10
141.703996
 20
1043.079974
 30
0.0
  0
LWPOLYLINE
  5
327
100
AcDbEntity
  8
printingsheet2
 62
1
100
AcDbPolyline
 90
20
 70
1
 10
145.530996
 20
1081.772973
 30
0.0
 10
145.530996
 20
1067.599973
 30
0.0
 10
133.058997
 20
1067.599973
 30
0.0
 10
133.058997
 20
1081.772973
 30
0.0
 10
117.185997
 20
1081.772973
 30
0.0
 10
117.185997
 20
1067.599973
 30
0.0
 10
104.712997
 20
1067.599973
 30
0.0
 10
104.712997
 20
1081.772973
 30
0.0
 10
89.263998
 20
1081.772973
 30
0.0
 10
89.263998
 20
996.732975
 30
0.0
 10
104.712997
 20
996.732975
 30
0.0
 10
104.712997
 20
1010.906975
 30
0.0
 10
117.185997
 20
1010.906975
 30
0.0
 10
117.185997
 20
996.732975
 30
0.0
 10
133.058997
 20
996.732975
 30
0.0
 10
133.058997
 20
1010.906975
 30
0.0
 10
145.530996
 20
1010.906975
 30
0.0
 10
145.530996
 20
996.732975
 30
0.0
 10
160.129996
 20
996.732975
 30
0.0
 10
160.129996
 20
1081.772973
 30
0.0
  0
LWPOLYLINE
  5
328
100
AcDbEntity
  8
printingsheet2
 62
1
100
AcDbPolyline
 90
4
 70
1
 10
58.552999
 20
327.101992
 30
0.0
 10
24.536999
 20
327.101992
 30
0.0
 10
24.536999
 20
334.754992
 30
0.0
 10
58.552999
 20
334.754992
 30
0.0
  0
LWPOLYLINE
  5
329
100
AcDbEntity
  8
printingsheet2
 62
1
100
AcDbPolyline
 90
20
 70
1
 10
62.379998
 20
373.447991
 30
0.0
 10
62.379998
 20
359.273991
 30
0.0
 10
49.907999
 20
359.273991
 30
0.0
 10
49.907999
 20
373.447991
 30
0.0
 10
34.033999
 20
373.447991
 30
0.0
 10
34.033999
 20
359.273991
 30
0.0
 10
21.561999
 20
359.273991
 30
0.0
 10
21.561999
 20
373.447991
 30
0.0
 10
6.113000
 20
373.447991
 30
0.0
 10
6.113000
 20
288.407993
 30
0.0
 10
21.561999
 20
288.407993
 30
0.0
 10
21.561999
 20
302.581992
 30
0.0
 10
34.033999
 20
302.581992
 30
0.0
 10
34.033999
 20
288.407993
 30
0.0
 10
49.907999
 20
288.407993
 30
0.0
 10
49.907999
 20
302.581992
 30
0.0
 10
62.379998
 20
302.581992
 30
0.0
 10
62.379998
 20
288.407993
 30
0.0
 10
76.977998
 20
288.407993
 30
0.0
 10
76.977998
 20
373.447991
 30
0.0
  0
ENDSEC
  0
SECTION
  2
OBJECTS
  0
DICTIONARY
  5
C
330
0
100
AcDbDictionary
  3
ACAD_GROUP
350
D
  3
ACAD_MLINESTYLE
350
17
  0
DICTIONARY
  5
D
330
C
100
AcDbDictionary
  0
DICTIONARY
  5
1A
330
C
100
AcDbDictionary
  0
DICTIONARY
  5
17
330
C
100
AcDbDictionary
  3
STANDARD
350
18
  0
DICTIONARY
  5
19
330
C
100
AcDbDictionary
  0
ENDSEC
  0
EOF
